rawline-200.ufo
<glyph name="exclam" format="2">
  <advance width="481"/>
  <unicode hex="0021"/>
  <outline>
    <contour>
      <point x="205" y="426" type="line"/>
      <point x="205" y="1468" type="line"/>
      <point x="276" y="1468" type="line"/>
      <point x="276" y="426" type="line"/>
    </contour>
    <contour>
      <point x="205" y="0" type="line"/>
      <point x="205" y="188" type="line"/>
      <point x="276" y="188" type="line"/>
      <point x="276" y="0" type="line"/>
    </contour>
  </outline>
</glyph>
<glyph name="quotedbl" format="2">
  <advance width="487"/>
  <unicode hex="0022"/>
  <outline>
    <contour>
      <point x="147" y="1139" type="line"/>
      <point x="147" y="1458" type="line"/>
      <point x="211" y="1458" type="line"/>
      <point x="211" y="1139" type="line"/>
    </contour>
    <contour>
      <point x="276" y="1139" type="line"/>
      <point x="276" y="1458" type="line"/>
      <point x="340" y="1458" type="line"/>
      <point x="340" y="1139" type="line"/>
    </contour>
  </outline>
</glyph>
<glyph name="numbersign" format="2">
  <advance width="1349"/>
  <unicode hex="0023"/>
  <outline>
    <contour>
      <point x="1272" y="971" type="line"/>
      <point x="1024" y="971" type="line"/>
      <point x="911" y="506" type="line"/>
      <point x="1188" y="506" type="line"/>
      <point x="1188" y="444" type="line"/>
      <point x="895" y="444" type="line"/>
      <point x="788" y="0" type="line"/>
      <point x="723" y="0" type="line"/>
      <point x="834" y="444" type="line"/>
      <point x="373" y="444" type="line"/>
      <point x="264" y="0" type="line"/>
      <point x="201" y="0" type="line"/>
      <point x="309" y="444" type="line"/>
      <point x="78" y="444" type="line"/>
      <point x="78" y="506" type="line"/>
      <point x="324" y="506" type="line"/>
      <point x="436" y="971" type="line"/>
      <point x="162" y="971" type="line"/>
      <point x="162" y="1030" type="line"/>
      <point x="451" y="1030" type="line"/>
      <point x="555" y="1454" type="line"/>
      <point x="618" y="1454" type="line"/>
      <point x="514" y="1030" type="line"/>
      <point x="975" y="1030" type="line"/>
      <point x="1077" y="1454" type="line"/>
      <point x="1143" y="1454" type="line"/>
      <point x="1038" y="1030" type="line"/>
      <point x="1272" y="1030" type="line"/>
    </contour>
    <contour>
      <point x="848" y="506" type="line"/>
      <point x="961" y="971" type="line"/>
      <point x="500" y="971" type="line"/>
      <point x="387" y="506" type="line"/>
    </contour>
  </outline>
</glyph>
<glyph name="dollar" format="2">
  <advance width="1259"/>
  <unicode hex="0024"/>
  <anchor x="655" y="1489" name="Anchor-1"/>
  <anchor x="653" y="0" name="Anchor-0"/>
  <outline>
    <contour>
      <point x="1176" y="365" type="qcurve" smooth="yes"/>
      <point x="1176" y="184"/>
      <point x="902" y="-10"/>
      <point x="664" y="-10" type="qcurve"/>
      <point x="664" y="-197" type="line"/>
      <point x="608" y="-197" type="line"/>
      <point x="608" y="-8" type="line"/>
      <point x="306" y="7"/>
      <point x="90" y="211" type="qcurve"/>
      <point x="133" y="264" type="line"/>
      <point x="323" y="68"/>
      <point x="610" y="53" type="qcurve"/>
      <point x="610" y="700" type="line"/>
      <point x="512" y="720"/>
      <point x="376" y="759"/>
      <point x="254" y="817"/>
      <point x="182" y="891"/>
      <point x="141" y="996"/>
      <point x="141" y="1065" type="qcurve" smooth="yes"/>
      <point x="141" y="1246"/>
      <point x="392" y="1453"/>
      <point x="608" y="1464" type="qcurve"/>
      <point x="608" y="1669" type="line"/>
      <point x="664" y="1669" type="line"/>
      <point x="664" y="1464" type="line"/>
      <point x="799" y="1462"/>
      <point x="1008" y="1379"/>
      <point x="1094" y="1292" type="qcurve"/>
      <point x="1055" y="1239" type="line"/>
      <point x="979" y="1323"/>
      <point x="791" y="1397"/>
      <point x="662" y="1399" type="qcurve"/>
      <point x="662" y="758" type="line"/>
      <point x="748" y="741"/>
      <point x="873" y="708"/>
      <point x="997" y="662"/>
      <point x="1079" y="604"/>
      <point x="1145" y="528"/>
      <point x="1176" y="428"/>
    </contour>
    <contour>
      <point x="213" y="1075" type="qcurve" smooth="yes"/>
      <point x="213" y="1019"/>
      <point x="243" y="934"/>
      <point x="300" y="873"/>
      <point x="401" y="824"/>
      <point x="521" y="789"/>
      <point x="610" y="770" type="qcurve"/>
      <point x="610" y="1399" type="line"/>
      <point x="408" y="1390"/>
      <point x="213" y="1220"/>
    </contour>
    <contour>
      <point x="664" y="51" type="line" smooth="yes"/>
      <point x="872" y="51"/>
      <point x="1104" y="205"/>
      <point x="1104" y="354" type="qcurve" smooth="yes"/>
      <point x="1104" y="429"/>
      <point x="1053" y="535"/>
      <point x="938" y="613"/>
      <point x="782" y="665"/>
      <point x="662" y="690" type="qcurve"/>
      <point x="662" y="51" type="line"/>
    </contour>
  </outline>
</glyph>
<glyph name="percent" format="2">
  <advance width="1398"/>
  <unicode hex="0025"/>
  <outline>
    <contour>
      <point x="94" y="1188" type="qcurve" smooth="yes"/>
      <point x="94" y="1307"/>
      <point x="263" y="1475"/>
      <point x="503" y="1475"/>
      <point x="672" y="1307"/>
      <point x="672" y="1188" type="qcurve" smooth="yes"/>
      <point x="672" y="1070"/>
      <point x="503" y="903"/>
      <point x="263" y="903"/>
      <point x="94" y="1070"/>
    </contour>
    <contour>
      <point x="109" y="33" type="line"/>
      <point x="680" y="743" type="line"/>
      <point x="1247" y="1458" type="line"/>
      <point x="1292" y="1423" type="line"/>
      <point x="717" y="709" type="line"/>
      <point x="152" y="-4" type="line"/>
    </contour>
    <contour>
      <point x="612" y="1188" type="qcurve" smooth="yes"/>
      <point x="612" y="1285"/>
      <point x="475" y="1421"/>
      <point x="383" y="1421" type="qcurve" smooth="yes"/>
      <point x="288" y="1421"/>
      <point x="154" y="1282"/>
      <point x="154" y="1188" type="qcurve" smooth="yes"/>
      <point x="154" y="1091"/>
      <point x="289" y="954"/>
      <point x="383" y="954" type="qcurve" smooth="yes"/>
      <point x="478" y="954"/>
      <point x="612" y="1094"/>
    </contour>
    <contour>
      <point x="727" y="266" type="qcurve" smooth="yes"/>
      <point x="727" y="384"/>
      <point x="898" y="551"/>
      <point x="1138" y="551"/>
      <point x="1307" y="384"/>
      <point x="1307" y="266" type="qcurve" smooth="yes"/>
      <point x="1307" y="146"/>
      <point x="1138" y="-20"/>
      <point x="898" y="-20"/>
      <point x="727" y="146"/>
    </contour>
    <contour>
      <point x="1247" y="266" type="qcurve" smooth="yes"/>
      <point x="1247" y="361"/>
      <point x="1109" y="500"/>
      <point x="1018" y="500" type="qcurve" smooth="yes"/>
      <point x="923" y="500"/>
      <point x="788" y="360"/>
      <point x="788" y="266" type="qcurve" smooth="yes"/>
      <point x="788" y="168"/>
      <point x="922" y="33"/>
      <point x="1018" y="33" type="qcurve" smooth="yes"/>
      <point x="1113" y="33"/>
      <point x="1247" y="172"/>
    </contour>
  </outline>
</glyph>
<glyph name="ampersand" format="2">
  <advance width="1318"/>
  <unicode hex="0026"/>
  <outline>
    <contour>
      <point x="1303" y="0" type="line"/>
      <point x="1208" y="0" type="line"/>
      <point x="1008" y="211" type="line"/>
      <point x="923" y="103"/>
      <point x="692" y="-20"/>
      <point x="555" y="-20" type="qcurve" smooth="yes"/>
      <point x="468" y="-20"/>
      <point x="306" y="31"/>
      <point x="180" y="124"/>
      <point x="104" y="269"/>
      <point x="104" y="356" type="qcurve" smooth="yes"/>
      <point x="104" y="414"/>
      <point x="141" y="522"/>
      <point x="197" y="606"/>
      <point x="293" y="696"/>
      <point x="377" y="760"/>
      <point x="440" y="803" type="qcurve"/>
      <point x="316" y="936"/>
      <point x="219" y="1095"/>
      <point x="219" y="1169" type="qcurve" smooth="yes"/>
      <point x="219" y="1292"/>
      <point x="421" y="1473"/>
      <point x="567" y="1473" type="qcurve" smooth="yes"/>
      <point x="703" y="1473"/>
      <point x="883" y="1317"/>
      <point x="883" y="1202" type="qcurve" smooth="yes"/>
      <point x="883" y="1154"/>
      <point x="843" y="1060"/>
      <point x="786" y="987"/>
      <point x="684" y="899"/>
      <point x="603" y="842"/>
      <point x="537" y="797" type="qcurve"/>
      <point x="1004" y="311" type="line"/>
      <point x="1104" y="490"/>
      <point x="1104" y="696" type="qcurve"/>
      <point x="1167" y="696" type="line"/>
      <point x="1167" y="455"/>
      <point x="1047" y="266" type="qcurve"/>
    </contour>
    <contour>
      <point x="567" y="1411" type="qcurve" smooth="yes"/>
      <point x="448" y="1411"/>
      <point x="287" y="1270"/>
      <point x="287" y="1169" type="qcurve" smooth="yes"/>
      <point x="287" y="1111"/>
      <point x="372" y="969"/>
      <point x="496" y="840" type="qcurve"/>
      <point x="566" y="888"/>
      <point x="646" y="945"/>
      <point x="738" y="1023"/>
      <point x="785" y="1084"/>
      <point x="817" y="1159"/>
      <point x="817" y="1198" type="qcurve" smooth="yes"/>
      <point x="817" y="1290"/>
      <point x="674" y="1411"/>
    </contour>
    <contour>
      <point x="563" y="39" type="qcurve" smooth="yes"/>
      <point x="685" y="39"/>
      <point x="892" y="154"/>
      <point x="965" y="254" type="qcurve"/>
      <point x="483" y="760" type="line"/>
      <point x="426" y="721"/>
      <point x="345" y="659"/>
      <point x="260" y="577"/>
      <point x="208" y="500"/>
      <point x="174" y="403"/>
      <point x="174" y="352" type="qcurve" smooth="yes"/>
      <point x="174" y="276"/>
      <point x="244" y="153"/>
      <point x="357" y="79"/>
      <point x="493" y="39"/>
    </contour>
  </outline>
</glyph>
<glyph name="quotesingle" format="2">
  <advance width="358"/>
  <unicode hex="0027"/>
  <outline>
    <contour>
      <point x="147" y="1137" type="line"/>
      <point x="147" y="1458" type="line"/>
      <point x="211" y="1458" type="line"/>
      <point x="211" y="1137" type="line"/>
    </contour>
  </outline>
</glyph>
<glyph name="parenleft" format="2">
  <advance width="499"/>
  <unicode hex="0028"/>
  <outline>
    <contour>
      <point x="375" y="1495" type="qcurve"/>
      <point x="430" y="1462" type="line"/>
      <point x="326" y="1308"/>
      <point x="164" y="876"/>
      <point x="164" y="700" type="qcurve" smooth="yes"/>
      <point x="164" y="542"/>
      <point x="305" y="155"/>
      <point x="430" y="-27" type="qcurve"/>
      <point x="375" y="-59" type="line"/>
      <point x="98" y="349"/>
      <point x="98" y="707" type="qcurve" smooth="yes"/>
      <point x="98" y="899"/>
      <point x="241" y="1270"/>
    </contour>
  </outline>
</glyph>
<glyph name="parenright" format="2">
  <advance width="497"/>
  <unicode hex="0029"/>
  <outline>
    <contour>
      <point x="125" y="-59" type="qcurve"/>
      <point x="72" y="-27" type="line"/>
      <point x="196" y="155"/>
      <point x="336" y="542"/>
      <point x="336" y="700" type="qcurve" smooth="yes"/>
      <point x="336" y="876"/>
      <point x="174" y="1308"/>
      <point x="70" y="1462" type="qcurve"/>
      <point x="125" y="1495" type="line"/>
      <point x="258" y="1271"/>
      <point x="401" y="899"/>
      <point x="401" y="707" type="qcurve" smooth="yes"/>
      <point x="401" y="347"/>
    </contour>
  </outline>
</glyph>
<glyph name="asterisk" format="2">
  <advance width="630"/>
  <unicode hex="002A"/>
  <outline>
    <contour>
      <point x="188" y="1145" type="line"/>
      <point x="274" y="1264" type="line"/>
      <point x="135" y="1309" type="line"/>
      <point x="152" y="1358" type="line"/>
      <point x="289" y="1311" type="line"/>
      <point x="289" y="1456" type="line"/>
      <point x="342" y="1456" type="line"/>
      <point x="340" y="1311" type="line"/>
      <point x="479" y="1358" type="line"/>
      <point x="494" y="1309" type="line"/>
      <point x="356" y="1264" type="line"/>
      <point x="444" y="1145" type="line"/>
      <point x="399" y="1114" type="line"/>
      <point x="315" y="1235" type="line"/>
      <point x="229" y="1114" type="line"/>
    </contour>
  </outline>
</glyph>
<glyph name="plus" format="2">
  <advance width="845"/>
  <unicode hex="002B"/>
  <outline>
    <contour>
      <point x="733" y="758" type="line"/>
      <point x="733" y="696" type="line"/>
      <point x="457" y="696" type="line"/>
      <point x="457" y="397" type="line"/>
      <point x="389" y="397" type="line"/>
      <point x="389" y="696" type="line"/>
      <point x="113" y="696" type="line"/>
      <point x="113" y="758" type="line"/>
      <point x="389" y="758" type="line"/>
      <point x="389" y="1057" type="line"/>
      <point x="457" y="1057" type="line"/>
      <point x="457" y="758" type="line"/>
    </contour>
  </outline>
</glyph>
<glyph name="comma" format="2">
  <advance width="512"/>
  <unicode hex="002C"/>
  <outline>
    <contour>
      <point x="219" y="-166" type="line"/>
      <point x="244" y="-12" type="line"/>
      <point x="217" y="-12" type="line"/>
      <point x="217" y="152" type="line"/>
      <point x="295" y="152" type="line"/>
      <point x="295" y="-12" type="line"/>
      <point x="260" y="-166" type="line"/>
    </contour>
  </outline>
</glyph>
<glyph name="hyphen" format="2">
  <advance width="862"/>
  <unicode hex="002D"/>
  <outline>
    <contour>
      <point x="139" y="522" type="line"/>
      <point x="139" y="590" type="line"/>
      <point x="723" y="590" type="line"/>
      <point x="723" y="522" type="line"/>
    </contour>
  </outline>
</glyph>
<glyph name="period" format="2">
  <advance width="342"/>
  <unicode hex="002E"/>
  <outline>
    <contour>
      <point x="139" y="0" type="line"/>
      <point x="139" y="152" type="line"/>
      <point x="203" y="152" type="line"/>
      <point x="203" y="0" type="line"/>
    </contour>
  </outline>
</glyph>
<glyph name="one" format="2">
  <advance width="765"/>
  <unicode hex="0031"/>
  <outline>
    <contour>
      <point x="731" y="66" type="line"/>
      <point x="731" y="0" type="line"/>
      <point x="129" y="0" type="line"/>
      <point x="129" y="66" type="line"/>
      <point x="401" y="66" type="line"/>
      <point x="401" y="1380" type="line"/>
      <point x="362" y="1326"/>
      <point x="159" y="1204"/>
      <point x="82" y="1204" type="qcurve"/>
      <point x="82" y="1272" type="line"/>
      <point x="122" y="1272"/>
      <point x="216" y="1313"/>
      <point x="293" y="1370"/>
      <point x="361" y="1430"/>
      <point x="399" y="1471"/>
      <point x="401" y="1475" type="qcurve"/>
      <point x="471" y="1475" type="line"/>
      <point x="471" y="66" type="line"/>
    </contour>
  </outline>
</glyph>
<glyph name="two" format="2">
  <advance width="1161"/>
  <unicode hex="0032"/>
  <outline>
    <contour>
      <point x="104" y="0" type="line"/>
      <point x="97" y="134"/>
      <point x="148" y="347"/>
      <point x="260" y="499"/>
      <point x="403" y="606"/>
      <point x="498" y="647" type="qcurve" smooth="yes"/>
      <point x="528" y="661"/>
      <point x="624" y="700"/>
      <point x="692" y="727"/>
      <point x="780" y="770"/>
      <point x="842" y="810"/>
      <point x="907" y="868"/>
      <point x="946" y="931"/>
      <point x="971" y="1016"/>
      <point x="971" y="1065" type="qcurve" smooth="yes"/>
      <point x="971" y="1132"/>
      <point x="926" y="1252"/>
      <point x="839" y="1348"/>
      <point x="694" y="1405"/>
      <point x="602" y="1405" type="qcurve" smooth="yes"/>
      <point x="517" y="1405"/>
      <point x="369" y="1359"/>
      <point x="264" y="1281"/>
      <point x="198" y="1214"/>
      <point x="172" y="1176" type="qcurve"/>
      <point x="121" y="1217" type="line"/>
      <point x="126" y="1227"/>
      <point x="161" y="1273"/>
      <point x="246" y="1354"/>
      <point x="352" y="1422"/>
      <point x="518" y="1473"/>
      <point x="608" y="1473" type="qcurve" smooth="yes"/>
      <point x="715" y="1473"/>
      <point x="885" y="1404"/>
      <point x="989" y="1288"/>
      <point x="1044" y="1143"/>
      <point x="1044" y="1063" type="qcurve" smooth="yes"/>
      <point x="1044" y="1009"/>
      <point x="1016" y="913"/>
      <point x="976" y="842"/>
      <point x="905" y="775"/>
      <point x="845" y="732"/>
      <point x="750" y="684"/>
      <point x="689" y="658"/>
      <point x="587" y="618"/>
      <point x="565" y="608" type="qcurve" smooth="yes"/>
      <point x="461" y="565"/>
      <point x="311" y="452"/>
      <point x="232" y="347"/>
      <point x="187" y="216"/>
      <point x="176" y="124"/>
      <point x="176" y="66" type="qcurve"/>
      <point x="1047" y="66" type="line"/>
      <point x="1047" y="0" type="line"/>
    </contour>
  </outline>
</glyph>
<glyph name="four" format="2">
  <advance width="1138"/>
  <unicode hex="0034"/>
  <outline>
    <contour>
      <point x="817" y="0" type="line"/>
      <point x="817" y="420" type="line"/>
      <point x="51" y="420" type="line"/>
      <point x="51" y="481" type="line"/>
      <point x="838" y="1454" type="line"/>
      <point x="887" y="1454" type="line"/>
      <point x="887" y="485" type="line"/>
      <point x="1067" y="485" type="line"/>
      <point x="1067" y="420" type="line"/>
      <point x="887" y="420" type="line"/>
      <point x="887" y="0" type="line"/>
    </contour>
    <contour>
      <point x="135" y="485" type="line"/>
      <point x="821" y="485" type="line"/>
      <point x="821" y="1337" type="line"/>
    </contour>
  </outline>
</glyph>
<glyph name="seven" format="2">
  <advance width="1024"/>
  <unicode hex="0037"/>
  <outline>
    <contour>
      <point x="909" y="1386" type="line"/>
      <point x="61" y="1386" type="line"/>
      <point x="61" y="1454" type="line"/>
      <point x="1022" y="1454" type="line"/>
      <point x="279" y="0" type="line"/>
      <point x="199" y="0" type="line"/>
    </contour>
  </outline>
</glyph>
<glyph name="eight" format="2">
  <advance width="1198"/>
  <unicode hex="0038"/>
  <outline>
    <contour>
      <point x="592" y="-14" type="qcurve" smooth="yes"/>
      <point x="485" y="-14"/>
      <point x="301" y="53"/>
      <point x="176" y="165"/>
      <point x="106" y="314"/>
      <point x="106" y="395" type="qcurve" smooth="yes"/>
      <point x="106" y="535"/>
      <point x="298" y="741"/>
      <point x="430" y="780" type="qcurve"/>
      <point x="312" y="823"/>
      <point x="160" y="988"/>
      <point x="160" y="1100" type="qcurve" smooth="yes"/>
      <point x="160" y="1183"/>
      <point x="237" y="1320"/>
      <point x="363" y="1407"/>
      <point x="518" y="1454"/>
      <point x="600" y="1454" type="qcurve" smooth="yes"/>
      <point x="710" y="1454"/>
      <point x="906" y="1375"/>
      <point x="1038" y="1210"/>
      <point x="1038" y="1102" type="qcurve" smooth="yes"/>
      <point x="1038" y="990"/>
      <point x="884" y="823"/>
      <point x="766" y="780" type="qcurve"/>
      <point x="907" y="737"/>
      <point x="1090" y="528"/>
      <point x="1090" y="391" type="qcurve" smooth="yes"/>
      <point x="1090" y="271"/>
      <point x="951" y="83"/>
      <point x="726" y="-14"/>
    </contour>
    <contour>
      <point x="598" y="809" type="qcurve" smooth="yes"/>
      <point x="686" y="809"/>
      <point x="853" y="876"/>
      <point x="969" y="1013"/>
      <point x="969" y="1100" type="qcurve" smooth="yes"/>
      <point x="969" y="1188"/>
      <point x="860" y="1323"/>
      <point x="692" y="1389"/>
      <point x="596" y="1389" type="qcurve" smooth="yes"/>
      <point x="447" y="1389"/>
      <point x="229" y="1228"/>
      <point x="229" y="1096" type="qcurve" smooth="yes"/>
      <point x="229" y="1030"/>
      <point x="297" y="918"/>
      <point x="405" y="848"/>
      <point x="534" y="809"/>
    </contour>
    <contour>
      <point x="596" y="748" type="qcurve" smooth="yes"/>
      <point x="493" y="748"/>
      <point x="303" y="662"/>
      <point x="178" y="497"/>
      <point x="178" y="395" type="qcurve" smooth="yes"/>
      <point x="178" y="315"/>
      <point x="255" y="180"/>
      <point x="378" y="95"/>
      <point x="527" y="47"/>
      <point x="602" y="47" type="qcurve" smooth="yes"/>
      <point x="678" y="47"/>
      <point x="826" y="97"/>
      <point x="946" y="185"/>
      <point x="1020" y="319"/>
      <point x="1020" y="397" type="qcurve" smooth="yes"/>
      <point x="1020" y="477"/>
      <point x="943" y="613"/>
      <point x="819" y="700"/>
      <point x="670" y="748"/>
    </contour>
  </outline>
</glyph>
<glyph name="nine" format="2">
  <advance width="1222"/>
  <unicode hex="0039"/>
  <outline>
    <contour>
      <point x="586" y="471" type="qcurve" smooth="yes"/>
      <point x="741" y="471"/>
      <point x="993" y="648"/>
      <point x="1040" y="791" type="qcurve"/>
      <point x="1040" y="441"/>
      <point x="794" y="45"/>
      <point x="588" y="45" type="qcurve" smooth="yes"/>
      <point x="461" y="45"/>
      <point x="257" y="188"/>
      <point x="217" y="305" type="qcurve"/>
      <point x="164" y="272" type="line"/>
      <point x="214" y="137"/>
      <point x="441" y="-20"/>
      <point x="588" y="-20" type="qcurve" smooth="yes"/>
      <point x="829" y="-20"/>
      <point x="1110" y="434"/>
      <point x="1110" y="887" type="qcurve" smooth="yes"/>
      <point x="1110" y="1150"/>
      <point x="820" y="1464"/>
      <point x="596" y="1464" type="qcurve" smooth="yes"/>
      <point x="384" y="1464"/>
      <point x="88" y="1174"/>
      <point x="88" y="967" type="qcurve" smooth="yes"/>
      <point x="88" y="833"/>
      <point x="221" y="605"/>
      <point x="450" y="471"/>
    </contour>
    <contour>
      <point x="1032" y="967" type="qcurve" smooth="yes"/>
      <point x="1032" y="792"/>
      <point x="773" y="535"/>
      <point x="594" y="535" type="qcurve" smooth="yes"/>
      <point x="416" y="535"/>
      <point x="158" y="792"/>
      <point x="158" y="1146"/>
      <point x="412" y="1401"/>
      <point x="772" y="1401"/>
      <point x="1032" y="1144"/>
    </contour>
  </outline>
</glyph>
<glyph name="colon" format="2">
  <advance width="342"/>
  <unicode hex="003A"/>
  <outline>
    <contour>
      <point x="139" y="907" type="line"/>
      <point x="139" y="1059" type="line"/>
      <point x="203" y="1059" type="line"/>
      <point x="203" y="907" type="line"/>
    </contour>
    <contour>
      <point x="139" y="0" type="line"/>
      <point x="139" y="152" type="line"/>
      <point x="203" y="152" type="line"/>
      <point x="203" y="0" type="line"/>
    </contour>
  </outline>
</glyph>
<glyph name="semicolon" format="2">
  <advance width="366"/>
  <unicode hex="003B"/>
  <outline>
    <contour>
      <point x="147" y="907" type="line"/>
      <point x="147" y="1059" type="line"/>
      <point x="211" y="1059" type="line"/>
      <point x="211" y="907" type="line"/>
    </contour>
    <contour>
      <point x="147" y="-166" type="line"/>
      <point x="172" y="-12" type="line"/>
      <point x="145" y="-12" type="line"/>
      <point x="145" y="152" type="line"/>
      <point x="221" y="152" type="line"/>
      <point x="221" y="-12" type="line"/>
      <point x="188" y="-166" type="line"/>
    </contour>
  </outline>
</glyph>
<glyph name="less" format="2">
  <advance width="1032"/>
  <unicode hex="003C"/>
  <outline>
    <contour>
      <point x="70" y="553" type="line"/>
      <point x="924" y="1065" type="line"/>
      <point x="924" y="989" type="line"/>
      <point x="170" y="530" type="line"/>
      <point x="924" y="70" type="line"/>
      <point x="924" y="-6" type="line"/>
      <point x="70" y="506" type="line"/>
    </contour>
  </outline>
</glyph>
<glyph name="equal" format="2">
  <advance width="892"/>
  <unicode hex="003D"/>
  <outline>
    <contour>
      <point x="143" y="621" type="line"/>
      <point x="143" y="680" type="line"/>
      <point x="750" y="680" type="line"/>
      <point x="750" y="621" type="line"/>
    </contour>
    <contour>
      <point x="143" y="451" type="line"/>
      <point x="143" y="510" type="line"/>
      <point x="750" y="510" type="line"/>
      <point x="750" y="451" type="line"/>
    </contour>
  </outline>
</glyph>
<glyph name="greater" format="2">
  <advance width="1032"/>
  <unicode hex="003E"/>
  <outline>
    <contour>
      <point x="963" y="506" type="line"/>
      <point x="106" y="-6" type="line"/>
      <point x="106" y="70" type="line"/>
      <point x="860" y="530" type="line"/>
      <point x="106" y="989" type="line"/>
      <point x="106" y="1065" type="line"/>
      <point x="963" y="553" type="line"/>
    </contour>
  </outline>
</glyph>
<glyph name="question" format="2">
  <advance width="962"/>
  <unicode hex="003F"/>
  <outline>
    <contour>
      <point x="350" y="381" type="line"/>
      <point x="350" y="468"/>
      <point x="374" y="594"/>
      <point x="424" y="678"/>
      <point x="482" y="731"/>
      <point x="526" y="754" type="qcurve" smooth="yes"/>
      <point x="543" y="763"/>
      <point x="605" y="793"/>
      <point x="644" y="814"/>
      <point x="701" y="849"/>
      <point x="739" y="880"/>
      <point x="781" y="929"/>
      <point x="805" y="982"/>
      <point x="821" y="1053"/>
      <point x="821" y="1094" type="qcurve" smooth="yes"/>
      <point x="821" y="1172"/>
      <point x="767" y="1296"/>
      <point x="675" y="1371"/>
      <point x="561" y="1409"/>
      <point x="498" y="1409" type="qcurve" smooth="yes"/>
      <point x="380" y="1409"/>
      <point x="176" y="1283"/>
      <point x="125" y="1180" type="qcurve"/>
      <point x="72" y="1208" type="line"/>
      <point x="127" y="1332"/>
      <point x="364" y="1473"/>
      <point x="498" y="1473" type="qcurve" smooth="yes"/>
      <point x="601" y="1473"/>
      <point x="773" y="1389"/>
      <point x="885" y="1210"/>
      <point x="885" y="1087" type="qcurve" smooth="yes"/>
      <point x="885" y="1043"/>
      <point x="869" y="967"/>
      <point x="846" y="911"/>
      <point x="801" y="856"/>
      <point x="768" y="823"/>
      <point x="703" y="781"/>
      <point x="666" y="761"/>
      <point x="591" y="722"/>
      <point x="575" y="713" type="qcurve" smooth="yes"/>
      <point x="544" y="696"/>
      <point x="503" y="667"/>
      <point x="457" y="614"/>
      <point x="431" y="549"/>
      <point x="414" y="447"/>
      <point x="414" y="381" type="qcurve"/>
    </contour>
    <contour>
      <point x="350" y="0" type="line"/>
      <point x="350" y="186" type="line"/>
      <point x="416" y="186" type="line"/>
      <point x="416" y="0" type="line"/>
    </contour>
  </outline>
</glyph>
<glyph name="at" format="2">
  <advance width="1703"/>
  <unicode hex="0040"/>
  <outline>
    <contour>
      <point x="1583" y="455" type="qcurve" smooth="yes"/>
      <point x="1583" y="424"/>
      <point x="1579" y="356"/>
      <point x="1564" y="257"/>
      <point x="1540" y="168"/>
      <point x="1496" y="76"/>
      <point x="1437" y="9"/>
      <point x="1347" y="-33"/>
      <point x="1292" y="-33" type="qcurve" smooth="yes"/>
      <point x="1245" y="-33"/>
      <point x="1183" y="-4"/>
      <point x="1151" y="58"/>
      <point x="1137" y="119"/>
      <point x="1133" y="168" type="qcurve"/>
      <point x="1076" y="104"/>
      <point x="892" y="20"/>
      <point x="791" y="20" type="qcurve" smooth="yes"/>
      <point x="654" y="20"/>
      <point x="487" y="169"/>
      <point x="487" y="287" type="qcurve" smooth="yes"/>
      <point x="487" y="358"/>
      <point x="553" y="464"/>
      <point x="664" y="521"/>
      <point x="791" y="547"/>
      <point x="862" y="547" type="qcurve" smooth="yes"/>
      <point x="997" y="547"/>
      <point x="1135" y="500" type="qcurve"/>
      <point x="1135" y="586"/>
      <point x="1110" y="714"/>
      <point x="1051" y="815"/>
      <point x="944" y="868"/>
      <point x="868" y="868" type="qcurve" smooth="yes"/>
      <point x="713" y="868"/>
      <point x="575" y="770" type="qcurve"/>
      <point x="549" y="817" type="line"/>
      <point x="709" y="924"/>
      <point x="874" y="924" type="qcurve" smooth="yes"/>
      <point x="955" y="924"/>
      <point x="1073" y="875"/>
      <point x="1139" y="799"/>
      <point x="1178" y="684"/>
      <point x="1190" y="578"/>
      <point x="1190" y="510" type="qcurve" smooth="yes"/>
      <point x="1190" y="211" type="line" smooth="yes"/>
      <point x="1190" y="110"/>
      <point x="1232" y="18"/>
      <point x="1296" y="18" type="qcurve" smooth="yes"/>
      <point x="1349" y="18"/>
      <point x="1433" y="78"/>
      <point x="1485" y="171"/>
      <point x="1519" y="292"/>
      <point x="1532" y="404"/>
      <point x="1532" y="457" type="qcurve" smooth="yes"/>
      <point x="1532" y="657"/>
      <point x="1349" y="992"/>
      <point x="1035" y="1186"/>
      <point x="848" y="1186" type="qcurve" smooth="yes"/>
      <point x="711" y="1186"/>
      <point x="458" y="1078"/>
      <point x="267" y="892"/>
      <point x="152" y="623"/>
      <point x="152" y="471" type="qcurve" smooth="yes"/>
      <point x="152" y="274"/>
      <point x="336" y="-58"/>
      <point x="655" y="-250"/>
      <point x="844" y="-250" type="qcurve" smooth="yes"/>
      <point x="1005" y="-250"/>
      <point x="1155" y="-172" type="qcurve"/>
      <point x="1178" y="-217" type="line"/>
      <point x="1015" y="-299"/>
      <point x="842" y="-299" type="qcurve" smooth="yes"/>
      <point x="692" y="-299"/>
      <point x="418" y="-180"/>
      <point x="218" y="24"/>
      <point x="100" y="311"/>
      <point x="100" y="471" type="qcurve" smooth="yes"/>
      <point x="100" y="635"/>
      <point x="225" y="924"/>
      <point x="432" y="1122"/>
      <point x="704" y="1235"/>
      <point x="848" y="1235" type="qcurve" smooth="yes"/>
      <point x="997" y="1235"/>
      <point x="1268" y="1114"/>
      <point x="1466" y="908"/>
      <point x="1583" y="617"/>
    </contour>
    <contour>
      <point x="1133" y="354" type="qcurve" smooth="yes"/>
      <point x="1133" y="446" type="line"/>
      <point x="1123" y="447"/>
      <point x="1041" y="472"/>
      <point x="917" y="496"/>
      <point x="852" y="496" type="qcurve" smooth="yes"/>
      <point x="791" y="496"/>
      <point x="687" y="475"/>
      <point x="597" y="429"/>
      <point x="545" y="345"/>
      <point x="545" y="287" type="qcurve" smooth="yes"/>
      <point x="545" y="191"/>
      <point x="688" y="76"/>
      <point x="791" y="76" type="qcurve" smooth="yes"/>
      <point x="895" y="76"/>
      <point x="987" y="121" type="qcurve" smooth="yes"/>
      <point x="1033" y="143"/>
      <point x="1095" y="199"/>
      <point x="1123" y="264"/>
      <point x="1133" y="319"/>
    </contour>
  </outline>
</glyph>
<glyph name="F" format="2">
  <advance width="1224"/>
  <unicode hex="0046"/>
  <outline>
    <contour>
      <point x="197" y="0" type="line"/>
      <point x="197" y="1454" type="line"/>
      <point x="1139" y="1454" type="line"/>
      <point x="1139" y="1389" type="line"/>
      <point x="268" y="1389" type="line"/>
      <point x="268" y="774" type="line"/>
      <point x="1008" y="774" type="line"/>
      <point x="1008" y="711" type="line"/>
      <point x="268" y="711" type="line"/>
      <point x="268" y="0" type="line"/>
    </contour>
  </outline>
</glyph>
<glyph name="H" format="2">
  <advance width="1501"/>
  <unicode hex="0048"/>
  <anchor x="0" y="0" name="Anchor-11"/>
  <anchor x="752" y="727" name="Anchor-10"/>
  <anchor x="754" y="1448" name="Anchor-9"/>
  <anchor x="0" y="0" name="Anchor-8"/>
  <anchor x="752" y="0" name="Anchor-7"/>
  <outline>
    <contour>
      <point x="1305" y="1454" type="line"/>
      <point x="1305" y="0" type="line"/>
      <point x="1235" y="0" type="line"/>
      <point x="1235" y="711" type="line"/>
      <point x="268" y="711" type="line"/>
      <point x="268" y="0" type="line"/>
      <point x="197" y="0" type="line"/>
      <point x="197" y="1454" type="line"/>
      <point x="268" y="1454" type="line"/>
      <point x="268" y="776" type="line"/>
      <point x="1235" y="776" type="line"/>
      <point x="1235" y="1454" type="line"/>
    </contour>
  </outline>
</glyph>
<glyph name="K" format="2">
  <advance width="1284"/>
  <unicode hex="004B"/>
  <anchor x="0" y="0" name="Anchor-11"/>
  <anchor x="0" y="0" name="Anchor-10"/>
  <anchor x="0" y="0" name="Anchor-9"/>
  <anchor x="0" y="0" name="Anchor-8"/>
  <anchor x="653" y="0" name="Anchor-7"/>
  <outline>
    <contour>
      <point x="197" y="0" type="line"/>
      <point x="197" y="1454" type="line"/>
      <point x="268" y="1454" type="line"/>
      <point x="268" y="539" type="line"/>
      <point x="1157" y="1454" type="line"/>
      <point x="1245" y="1454" type="line"/>
      <point x="633" y="817" type="line"/>
      <point x="1274" y="0" type="line"/>
      <point x="1190" y="0" type="line"/>
      <point x="584" y="772" type="line"/>
      <point x="268" y="451" type="line"/>
      <point x="268" y="0" type="line"/>
    </contour>
  </outline>
</glyph>
<glyph name="V" format="2">
  <advance width="1388"/>
  <unicode hex="0056"/>
  <outline>
    <contour>
      <point x="109" y="1454" type="line"/>
      <point x="694" y="88" type="line"/>
      <point x="1278" y="1454" type="line"/>
      <point x="1354" y="1454" type="line"/>
      <point x="729" y="0" type="line"/>
      <point x="659" y="0" type="line"/>
      <point x="35" y="1454" type="line"/>
    </contour>
  </outline>
</glyph>
<glyph name="X" format="2">
  <advance width="1277"/>
  <unicode hex="0058"/>
  <outline>
    <contour>
      <point x="104" y="1454" type="line"/>
      <point x="641" y="770" type="line"/>
      <point x="1176" y="1454" type="line"/>
      <point x="1260" y="1454" type="line"/>
      <point x="680" y="717" type="line"/>
      <point x="1243" y="0" type="line"/>
      <point x="1159" y="0" type="line"/>
      <point x="641" y="664" type="line"/>
      <point x="121" y="0" type="line"/>
      <point x="35" y="0" type="line"/>
      <point x="598" y="717" type="line"/>
      <point x="18" y="1454" type="line"/>
    </contour>
  </outline>
</glyph>
<glyph name="Z" format="2">
  <advance width="1280"/>
  <unicode hex="005A"/>
  <anchor x="0" y="0" name="Anchor-11"/>
  <anchor x="0" y="0" name="Anchor-10"/>
  <anchor x="676" y="1448" name="Anchor-9"/>
  <anchor x="0" y="0" name="Anchor-8"/>
  <anchor x="641" y="0" name="Anchor-7"/>
  <outline>
    <contour>
      <point x="59" y="61" type="line"/>
      <point x="1135" y="1389" type="line"/>
      <point x="72" y="1389" type="line"/>
      <point x="72" y="1454" type="line"/>
      <point x="1219" y="1454" type="line"/>
      <point x="1219" y="1393" type="line"/>
      <point x="147" y="66" type="line"/>
      <point x="1212" y="66" type="line"/>
      <point x="1212" y="0" type="line"/>
      <point x="59" y="0" type="line"/>
    </contour>
  </outline>
</glyph>
<glyph name="bracketleft" format="2">
  <advance width="485"/>
  <unicode hex="005B"/>
  <outline>
    <contour>
      <point x="193" y="-82" type="line"/>
      <point x="193" y="1516" type="line"/>
      <point x="367" y="1516" type="line"/>
      <point x="367" y="1452" type="line"/>
      <point x="260" y="1452" type="line"/>
      <point x="260" y="-18" type="line"/>
      <point x="367" y="-18" type="line"/>
      <point x="367" y="-82" type="line"/>
    </contour>
  </outline>
</glyph>
<glyph name="backslash" format="2">
  <advance width="1085"/>
  <unicode hex="005C"/>
  <outline>
    <contour>
      <point x="139" y="1454" type="line"/>
      <point x="1030" y="0" type="line"/>
      <point x="948" y="0" type="line"/>
      <point x="55" y="1454" type="line"/>
    </contour>
  </outline>
</glyph>
<glyph name="bracketright" format="2">
  <advance width="485"/>
  <unicode hex="005D"/>
  <outline>
    <contour>
      <point x="119" y="-82" type="line"/>
      <point x="119" y="-18" type="line"/>
      <point x="225" y="-18" type="line"/>
      <point x="225" y="1452" type="line"/>
      <point x="119" y="1452" type="line"/>
      <point x="119" y="1516" type="line"/>
      <point x="291" y="1516" type="line"/>
      <point x="291" y="-82" type="line"/>
    </contour>
  </outline>
</glyph>
<glyph name="asciicircum" format="2">
  <advance width="1054"/>
  <unicode hex="005E"/>
  <outline>
    <contour>
      <point x="92" y="621" type="line"/>
      <point x="498" y="1454" type="line"/>
      <point x="559" y="1454" type="line"/>
      <point x="963" y="621" type="line"/>
      <point x="893" y="621" type="line"/>
      <point x="528" y="1374" type="line"/>
      <point x="158" y="621" type="line"/>
    </contour>
  </outline>
</glyph>
<glyph name="underscore" format="2">
  <advance width="1075"/>
  <unicode hex="005F"/>
  <outline>
    <contour>
      <point x="139" y="-66" type="line"/>
      <point x="139" y="0" type="line"/>
      <point x="936" y="0" type="line"/>
      <point x="936" y="-66" type="line"/>
    </contour>
  </outline>
</glyph>
<glyph name="grave" format="2">
  <advance width="419"/>
  <unicode hex="0060"/>
  <outline>
    <contour>
      <point x="102" y="1495" type="line"/>
      <point x="193" y="1495" type="line"/>
      <point x="322" y="1333" type="line"/>
      <point x="272" y="1307" type="line"/>
    </contour>
  </outline>
</glyph>
<glyph name="b" format="2">
  <advance width="1243"/>
  <unicode hex="0062"/>
  <outline>
    <contour>
      <point x="231" y="217" type="qcurve"/>
      <point x="231" y="0" type="line"/>
      <point x="166" y="0" type="line"/>
      <point x="166" y="1495" type="line"/>
      <point x="236" y="1495" type="line"/>
      <point x="236" y="823" type="line"/>
      <point x="413" y="1081"/>
      <point x="662" y="1081" type="qcurve" smooth="yes"/>
      <point x="774" y="1081"/>
      <point x="963" y="984"/>
      <point x="1085" y="826"/>
      <point x="1153" y="630"/>
      <point x="1153" y="528" type="qcurve" smooth="yes"/>
      <point x="1153" y="384"/>
      <point x="1019" y="132"/>
      <point x="783" y="-20"/>
      <point x="643" y="-20" type="qcurve" smooth="yes"/>
      <point x="520" y="-20"/>
      <point x="296" y="113"/>
    </contour>
    <contour>
      <point x="1083" y="528" type="qcurve" smooth="yes"/>
      <point x="1083" y="654"/>
      <point x="976" y="877"/>
      <point x="775" y="1016"/>
      <point x="651" y="1016" type="qcurve" smooth="yes"/>
      <point x="515" y="1016"/>
      <point x="300" y="848"/>
      <point x="236" y="719" type="qcurve"/>
      <point x="236" y="348" type="line"/>
      <point x="243" y="269"/>
      <point x="375" y="125"/>
      <point x="553" y="45"/>
      <point x="633" y="45" type="qcurve" smooth="yes"/>
      <point x="759" y="45"/>
      <point x="969" y="186"/>
      <point x="1083" y="407"/>
    </contour>
  </outline>
</glyph>
<glyph name="f" format="2">
  <advance width="630"/>
  <unicode hex="0066"/>
  <outline>
    <contour>
      <point x="209" y="0" type="line"/>
      <point x="209" y="1004" type="line"/>
      <point x="57" y="1004" type="line"/>
      <point x="57" y="1065" type="line"/>
      <point x="209" y="1065" type="line"/>
      <point x="209" y="1104" type="line" smooth="yes"/>
      <point x="209" y="1297"/>
      <point x="363" y="1516"/>
      <point x="500" y="1516" type="qcurve" smooth="yes"/>
      <point x="559" y="1516"/>
      <point x="669" y="1477"/>
      <point x="702" y="1446" type="qcurve"/>
      <point x="668" y="1399" type="line"/>
      <point x="642" y="1423"/>
      <point x="554" y="1452"/>
      <point x="508" y="1452" type="qcurve" smooth="yes"/>
      <point x="398" y="1452"/>
      <point x="279" y="1272"/>
      <point x="279" y="1104" type="qcurve" smooth="yes"/>
      <point x="279" y="1065" type="line"/>
      <point x="590" y="1065" type="line"/>
      <point x="590" y="1004" type="line"/>
      <point x="279" y="1004" type="line"/>
      <point x="279" y="0" type="line"/>
    </contour>
  </outline>
</glyph>
<glyph name="k" format="2">
  <advance width="1052"/>
  <unicode hex="006B"/>
  <anchor x="0" y="0" name="Anchor-11"/>
  <anchor x="0" y="0" name="Anchor-10"/>
  <anchor x="0" y="0" name="Anchor-9"/>
  <anchor x="0" y="0" name="Anchor-8"/>
  <anchor x="549" y="0" name="Anchor-7"/>
  <outline>
    <contour>
      <point x="942" y="0" type="line"/>
      <point x="508" y="590" type="line"/>
      <point x="236" y="342" type="line"/>
      <point x="236" y="0" type="line"/>
      <point x="166" y="0" type="line"/>
      <point x="166" y="1495" type="line"/>
      <point x="236" y="1495" type="line"/>
      <point x="236" y="426" type="line"/>
      <point x="926" y="1061" type="line"/>
      <point x="1010" y="1061" type="line"/>
      <point x="557" y="635" type="line"/>
      <point x="1022" y="0" type="line"/>
    </contour>
  </outline>
</glyph>
<glyph name="p" format="2">
  <advance width="1243"/>
  <unicode hex="0070"/>
  <outline>
    <contour>
      <point x="236" y="238" type="qcurve"/>
      <point x="236" y="-436" type="line"/>
      <point x="166" y="-436" type="line"/>
      <point x="166" y="1065" type="line"/>
      <point x="231" y="1065" type="line"/>
      <point x="231" y="844" type="line"/>
      <point x="300" y="950"/>
      <point x="523" y="1081"/>
      <point x="643" y="1081" type="qcurve" smooth="yes"/>
      <point x="786" y="1081"/>
      <point x="1024" y="919"/>
      <point x="1153" y="668"/>
      <point x="1153" y="530" type="qcurve" smooth="yes"/>
      <point x="1153" y="382"/>
      <point x="1032" y="132"/>
      <point x="805" y="-20"/>
      <point x="662" y="-20" type="qcurve" smooth="yes"/>
      <point x="531" y="-20"/>
      <point x="309" y="124"/>
    </contour>
    <contour>
      <point x="1083" y="530" type="qcurve" smooth="yes"/>
      <point x="1083" y="656"/>
      <point x="964" y="879"/>
      <point x="755" y="1016"/>
      <point x="633" y="1016" type="qcurve" smooth="yes"/>
      <point x="555" y="1016"/>
      <point x="376" y="932"/>
      <point x="243" y="786"/>
      <point x="236" y="709" type="qcurve"/>
      <point x="236" y="342" type="line"/>
      <point x="293" y="213"/>
      <point x="520" y="45"/>
      <point x="651" y="45" type="qcurve" smooth="yes"/>
      <point x="746" y="45"/>
      <point x="911" y="128"/>
      <point x="1021" y="265"/>
      <point x="1083" y="439"/>
    </contour>
  </outline>
</glyph>
<glyph name="q" format="2">
  <advance width="1243"/>
  <unicode hex="0071"/>
  <outline>
    <contour>
      <point x="90" y="530" type="qcurve" smooth="yes"/>
      <point x="90" y="674"/>
      <point x="226" y="928"/>
      <point x="463" y="1081"/>
      <point x="602" y="1081" type="qcurve" smooth="yes"/>
      <point x="723" y="1081"/>
      <point x="947" y="947"/>
      <point x="1012" y="844" type="qcurve"/>
      <point x="1012" y="1065" type="line"/>
      <point x="1077" y="1065" type="line"/>
      <point x="1077" y="-436" type="line"/>
      <point x="1008" y="-436" type="line"/>
      <point x="1008" y="238" type="line"/>
      <point x="831" y="-20"/>
      <point x="582" y="-20" type="qcurve" smooth="yes"/>
      <point x="439" y="-20"/>
      <point x="210" y="139"/>
      <point x="90" y="388"/>
    </contour>
    <contour>
      <point x="1008" y="338" type="qcurve"/>
      <point x="1008" y="705" type="line"/>
      <point x="998" y="784"/>
      <point x="872" y="930"/>
      <point x="694" y="1016"/>
      <point x="608" y="1016" type="qcurve" smooth="yes"/>
      <point x="513" y="1016"/>
      <point x="344" y="931"/>
      <point x="229" y="794"/>
      <point x="162" y="618"/>
      <point x="162" y="528" type="qcurve" smooth="yes"/>
      <point x="162" y="400"/>
      <point x="271" y="180"/>
      <point x="471" y="45"/>
      <point x="594" y="45" type="qcurve" smooth="yes"/>
      <point x="730" y="45"/>
      <point x="942" y="209"/>
    </contour>
  </outline>
</glyph>
<glyph name="r" format="2">
  <advance width="677"/>
  <unicode hex="0072"/>
  <anchor x="0" y="0" name="Anchor-11"/>
  <anchor x="0" y="0" name="Anchor-10"/>
  <anchor x="375" y="1065" name="Anchor-9"/>
  <anchor x="0" y="0" name="Anchor-8"/>
  <anchor x="201" y="0" name="Anchor-7"/>
  <outline>
    <contour>
      <point x="643" y="999" type="line"/>
      <point x="496" y="993"/>
      <point x="279" y="818"/>
      <point x="236" y="670" type="qcurve"/>
      <point x="236" y="0" type="line"/>
      <point x="166" y="0" type="line"/>
      <point x="166" y="1065" type="line"/>
      <point x="233" y="1065" type="line"/>
      <point x="233" y="795" type="line"/>
      <point x="288" y="907"/>
      <point x="475" y="1051"/>
      <point x="578" y="1063" type="qcurve" smooth="yes"/>
      <point x="605" y="1065"/>
      <point x="643" y="1065" type="qcurve"/>
    </contour>
  </outline>
</glyph>
<glyph name="v" format="2">
  <advance width="1073"/>
  <unicode hex="0076"/>
  <outline>
    <contour>
      <point x="502" y="0" type="line"/>
      <point x="47" y="1065" type="line"/>
      <point x="123" y="1065" type="line"/>
      <point x="537" y="82" type="line"/>
      <point x="952" y="1065" type="line"/>
      <point x="1026" y="1065" type="line"/>
      <point x="571" y="0" type="line"/>
    </contour>
  </outline>
</glyph>
<glyph name="braceleft" format="2">
  <advance width="487"/>
  <unicode hex="007B"/>
  <outline>
    <contour>
      <point x="264" y="1452" type="line"/>
      <point x="264" y="856" type="line" smooth="yes"/>
      <point x="264" y="780"/>
      <point x="217" y="737" type="qcurve"/>
      <point x="264" y="697"/>
      <point x="264" y="618" type="qcurve" smooth="yes"/>
      <point x="264" y="0" type="line"/>
      <point x="377" y="0" type="line"/>
      <point x="377" y="-63" type="line"/>
      <point x="244" y="-63" type="line" smooth="yes"/>
      <point x="224" y="-63"/>
      <point x="197" y="-33"/>
      <point x="197" y="-2" type="qcurve" smooth="yes"/>
      <point x="197" y="608" type="line" smooth="yes"/>
      <point x="197" y="647"/>
      <point x="165" y="705"/>
      <point x="131" y="709" type="qcurve"/>
      <point x="131" y="770" type="line"/>
      <point x="157" y="770"/>
      <point x="189" y="811"/>
      <point x="197" y="849"/>
      <point x="197" y="866" type="qcurve" smooth="yes"/>
      <point x="197" y="1454" type="line" smooth="yes"/>
      <point x="197" y="1488"/>
      <point x="230" y="1516"/>
      <point x="244" y="1516" type="qcurve" smooth="yes"/>
      <point x="377" y="1516" type="line"/>
      <point x="377" y="1452" type="line"/>
    </contour>
  </outline>
</glyph>
<glyph name="bar" format="2">
  <advance width="442"/>
  <unicode hex="007C"/>
  <outline>
    <contour>
      <point x="188" y="-266" type="line"/>
      <point x="188" y="1587" type="line"/>
      <point x="254" y="1587" type="line"/>
      <point x="254" y="-266" type="line"/>
    </contour>
  </outline>
</glyph>
<glyph name="braceright" format="2">
  <advance width="487"/>
  <unicode hex="007D"/>
  <outline>
    <contour>
      <point x="111" y="1452" type="line"/>
      <point x="111" y="1516" type="line"/>
      <point x="244" y="1516" type="line" smooth="yes"/>
      <point x="252" y="1516"/>
      <point x="270" y="1508"/>
      <point x="291" y="1478"/>
      <point x="291" y="1454" type="qcurve" smooth="yes"/>
      <point x="291" y="866" type="line" smooth="yes"/>
      <point x="291" y="849"/>
      <point x="298" y="811"/>
      <point x="330" y="770"/>
      <point x="356" y="770" type="qcurve"/>
      <point x="356" y="709" type="line"/>
      <point x="322" y="705"/>
      <point x="291" y="647"/>
      <point x="291" y="608" type="qcurve" smooth="yes"/>
      <point x="291" y="-2" type="line" smooth="yes"/>
      <point x="291" y="-33"/>
      <point x="262" y="-63"/>
      <point x="244" y="-63" type="qcurve" smooth="yes"/>
      <point x="111" y="-63" type="line"/>
      <point x="111" y="0" type="line"/>
      <point x="223" y="0" type="line"/>
      <point x="223" y="618" type="line" smooth="yes"/>
      <point x="223" y="697"/>
      <point x="270" y="737" type="qcurve"/>
      <point x="223" y="780"/>
      <point x="223" y="856" type="qcurve" smooth="yes"/>
      <point x="223" y="1452" type="line"/>
    </contour>
  </outline>
</glyph>
<glyph name="asciitilde" format="2">
  <advance width="974"/>
  <unicode hex="007E"/>
  <outline>
    <contour>
      <point x="328" y="688" type="qcurve" smooth="yes"/>
      <point x="366" y="688"/>
      <point x="453" y="649"/>
      <point x="517" y="602"/>
      <point x="602" y="563"/>
      <point x="639" y="563" type="qcurve" smooth="yes"/>
      <point x="667" y="563"/>
      <point x="717" y="584"/>
      <point x="749" y="614"/>
      <point x="772" y="647"/>
      <point x="782" y="670"/>
      <point x="782" y="674" type="qcurve"/>
      <point x="836" y="672" type="line" smooth="yes"/>
      <point x="836" y="669"/>
      <point x="825" y="638"/>
      <point x="795" y="588"/>
      <point x="752" y="541"/>
      <point x="681" y="508"/>
      <point x="639" y="508" type="qcurve" smooth="yes"/>
      <point x="595" y="508"/>
      <point x="500" y="546"/>
      <point x="434" y="593"/>
      <point x="357" y="631"/>
      <point x="328" y="631" type="qcurve" smooth="yes"/>
      <point x="303" y="631"/>
      <point x="258" y="606"/>
      <point x="229" y="572"/>
      <point x="207" y="535"/>
      <point x="197" y="510"/>
      <point x="197" y="508" type="qcurve"/>
      <point x="141" y="508" type="line"/>
      <point x="141" y="516"/>
      <point x="163" y="569"/>
      <point x="204" y="637"/>
      <point x="281" y="688"/>
    </contour>
  </outline>
</glyph>
<glyph name="exclamdown" format="2">
  <advance width="481"/>
  <unicode hex="00A1"/>
  <outline>
    <contour>
      <point x="274" y="1466" type="line"/>
      <point x="274" y="1278" type="line"/>
      <point x="205" y="1278" type="line"/>
      <point x="205" y="1466" type="line"/>
    </contour>
    <contour>
      <point x="274" y="1040" type="line"/>
      <point x="274" y="-2" type="line"/>
      <point x="205" y="-2" type="line"/>
      <point x="205" y="1040" type="line"/>
    </contour>
  </outline>
</glyph>
<glyph name="cent" format="2">
  <advance width="1120"/>
  <unicode hex="00A2"/>
  <outline>
    <contour>
      <point x="565" y="-246" type="line"/>
      <point x="565" y="-18" type="line"/>
      <point x="431" y="-7"/>
      <point x="211" y="157"/>
      <point x="92" y="398"/>
      <point x="92" y="528" type="qcurve" smooth="yes"/>
      <point x="92" y="631"/>
      <point x="161" y="825"/>
      <point x="283" y="977"/>
      <point x="462" y="1074"/>
      <point x="565" y="1081" type="qcurve"/>
      <point x="565" y="1321" type="line"/>
      <point x="616" y="1321" type="line"/>
      <point x="616" y="1081" type="line"/>
      <point x="899" y="1073"/>
      <point x="1020" y="840" type="qcurve"/>
      <point x="952" y="815" type="line"/>
      <point x="846" y="1006"/>
      <point x="616" y="1016" type="qcurve"/>
      <point x="616" y="45" type="line"/>
      <point x="681" y="46"/>
      <point x="827" y="97"/>
      <point x="949" y="196"/>
      <point x="965" y="256" type="qcurve"/>
      <point x="1034" y="236" type="line"/>
      <point x="1007" y="155"/>
      <point x="863" y="35"/>
      <point x="697" y="-20"/>
      <point x="616" y="-20" type="qcurve"/>
      <point x="616" y="-246" type="line"/>
    </contour>
    <contour>
      <point x="565" y="49" type="qcurve"/>
      <point x="565" y="1014" type="line"/>
      <point x="472" y="1008"/>
      <point x="317" y="918"/>
      <point x="218" y="780"/>
      <point x="164" y="613"/>
      <point x="164" y="528" type="qcurve" smooth="yes"/>
      <point x="164" y="348"/>
      <point x="395" y="68"/>
    </contour>
  </outline>
</glyph>
<glyph name="sterling" format="2">
  <advance width="974"/>
  <unicode hex="00A3"/>
  <outline>
    <contour>
      <point x="862" y="76" type="qcurve"/>
      <point x="881" y="16" type="line"/>
      <point x="769" y="-31"/>
      <point x="662" y="-31" type="qcurve" smooth="yes"/>
      <point x="602" y="-31"/>
      <point x="402" y="12"/>
      <point x="340" y="12" type="qcurve" smooth="yes"/>
      <point x="238" y="12"/>
      <point x="139" y="-14" type="qcurve"/>
      <point x="113" y="39" type="line"/>
      <point x="271" y="203"/>
      <point x="385" y="398"/>
      <point x="385" y="502" type="qcurve" smooth="yes"/>
      <point x="385" y="595"/>
      <point x="346" y="692" type="qcurve"/>
      <point x="100" y="692" type="line"/>
      <point x="100" y="754" type="line"/>
      <point x="315" y="754" type="line"/>
      <point x="299" y="783"/>
      <point x="230" y="901"/>
      <point x="194" y="969"/>
      <point x="162" y="1073"/>
      <point x="162" y="1122" type="qcurve" smooth="yes"/>
      <point x="162" y="1263"/>
      <point x="365" y="1464"/>
      <point x="506" y="1464" type="qcurve" smooth="yes"/>
      <point x="610" y="1464"/>
      <point x="794" y="1348"/>
      <point x="850" y="1249" type="qcurve"/>
      <point x="801" y="1206" type="line"/>
      <point x="752" y="1297"/>
      <point x="591" y="1401"/>
      <point x="502" y="1401" type="qcurve" smooth="yes"/>
      <point x="389" y="1401"/>
      <point x="231" y="1239"/>
      <point x="231" y="1122" type="qcurve" smooth="yes"/>
      <point x="231" y="1063"/>
      <point x="275" y="951"/>
      <point x="371" y="789"/>
      <point x="389" y="754" type="qcurve"/>
      <point x="745" y="754" type="line"/>
      <point x="745" y="692" type="line"/>
      <point x="416" y="692" type="line"/>
      <point x="451" y="596"/>
      <point x="451" y="506" type="qcurve" smooth="yes"/>
      <point x="451" y="398"/>
      <point x="347" y="198"/>
      <point x="219" y="59" type="qcurve"/>
      <point x="303" y="74"/>
      <point x="365" y="74" type="qcurve" smooth="yes"/>
      <point x="430" y="74"/>
      <point x="617" y="35"/>
      <point x="666" y="35" type="qcurve" smooth="yes"/>
      <point x="746" y="35"/>
    </contour>
  </outline>
</glyph>
<glyph name="currency" format="2">
  <advance width="1093"/>
  <unicode hex="00A4"/>
  <outline>
    <contour>
      <point x="305" y="965" type="line"/>
      <point x="403" y="1057"/>
      <point x="545" y="1057" type="qcurve" smooth="yes"/>
      <point x="685" y="1057"/>
      <point x="788" y="961" type="qcurve"/>
      <point x="932" y="1104" type="line"/>
      <point x="975" y="1063" type="line"/>
      <point x="829" y="920" type="line"/>
      <point x="909" y="812"/>
      <point x="909" y="686" type="qcurve" smooth="yes"/>
      <point x="909" y="558"/>
      <point x="825" y="453" type="qcurve"/>
      <point x="975" y="307" type="line"/>
      <point x="934" y="268" type="line"/>
      <point x="786" y="414" type="line"/>
      <point x="681" y="319"/>
      <point x="545" y="319" type="qcurve" smooth="yes"/>
      <point x="411" y="319"/>
      <point x="307" y="410" type="qcurve"/>
      <point x="164" y="268" type="line"/>
      <point x="125" y="307" type="line"/>
      <point x="268" y="449" type="line"/>
      <point x="182" y="556"/>
      <point x="182" y="686" type="qcurve" smooth="yes"/>
      <point x="182" y="818"/>
      <point x="264" y="924" type="qcurve"/>
      <point x="125" y="1063" type="line"/>
      <point x="166" y="1104" type="line"/>
    </contour>
    <contour>
      <point x="545" y="375" type="qcurve" smooth="yes"/>
      <point x="668" y="375"/>
      <point x="844" y="560"/>
      <point x="844" y="688" type="qcurve" smooth="yes"/>
      <point x="844" y="818"/>
      <point x="669" y="999"/>
      <point x="545" y="999" type="qcurve" smooth="yes"/>
      <point x="423" y="999"/>
      <point x="248" y="815"/>
      <point x="248" y="684" type="qcurve" smooth="yes"/>
      <point x="248" y="557"/>
      <point x="423" y="375"/>
    </contour>
  </outline>
</glyph>
<glyph name="yen" format="2">
  <advance width="1347"/>
  <unicode hex="00A5"/>
  <outline>
    <contour>
      <point x="807" y="713" type="line"/>
      <point x="993" y="713" type="line"/>
      <point x="993" y="655" type="line"/>
      <point x="772" y="655" type="line"/>
      <point x="709" y="557" type="line"/>
      <point x="709" y="506" type="line"/>
      <point x="993" y="506" type="line"/>
      <point x="993" y="449" type="line"/>
      <point x="709" y="449" type="line"/>
      <point x="709" y="0" type="line"/>
      <point x="637" y="0" type="line"/>
      <point x="637" y="449" type="line"/>
      <point x="354" y="449" type="line"/>
      <point x="354" y="506" type="line"/>
      <point x="637" y="506" type="line"/>
      <point x="637" y="561" type="line"/>
      <point x="578" y="655" type="line"/>
      <point x="354" y="655" type="line"/>
      <point x="354" y="713" type="line"/>
      <point x="543" y="713" type="line"/>
      <point x="57" y="1454" type="line"/>
      <point x="137" y="1454" type="line"/>
      <point x="674" y="629" type="line"/>
      <point x="1212" y="1454" type="line"/>
      <point x="1290" y="1454" type="line"/>
    </contour>
  </outline>
</glyph>
<glyph name="brokenbar" format="2">
  <advance width="450"/>
  <unicode hex="00A6"/>
  <outline>
    <contour>
      <point x="258" y="1587" type="line"/>
      <point x="258" y="741" type="line"/>
      <point x="193" y="741" type="line"/>
      <point x="193" y="1587" type="line"/>
    </contour>
    <contour>
      <point x="258" y="580" type="line"/>
      <point x="258" y="-266" type="line"/>
      <point x="193" y="-266" type="line"/>
      <point x="193" y="580" type="line"/>
    </contour>
  </outline>
</glyph>
<glyph name="section" format="2">
  <advance width="999"/>
  <unicode hex="00A7"/>
  <outline>
    <contour>
      <point x="913" y="162" type="qcurve" smooth="yes"/>
      <point x="913" y="81"/>
      <point x="841" y="-53"/>
      <point x="726" y="-135"/>
      <point x="590" y="-180"/>
      <point x="522" y="-180" type="qcurve" smooth="yes"/>
      <point x="307" y="-180"/>
      <point x="133" y="-6" type="qcurve"/>
      <point x="182" y="37" type="line"/>
      <point x="341" y="-113"/>
      <point x="522" y="-113" type="qcurve" smooth="yes"/>
      <point x="601" y="-113"/>
      <point x="745" y="-49"/>
      <point x="842" y="79"/>
      <point x="842" y="160" type="qcurve" smooth="yes"/>
      <point x="842" y="214"/>
      <point x="805" y="294"/>
      <point x="748" y="341"/>
      <point x="662" y="370"/>
      <point x="584" y="381"/>
      <point x="535" y="383" type="qcurve" smooth="yes"/>
      <point x="470" y="385"/>
      <point x="357" y="411"/>
      <point x="259" y="461"/>
      <point x="190" y="532"/>
      <point x="150" y="635"/>
      <point x="150" y="698" type="qcurve" smooth="yes"/>
      <point x="150" y="752"/>
      <point x="183" y="856"/>
      <point x="211" y="887" type="qcurve"/>
      <point x="158" y="920"/>
      <point x="94" y="1051"/>
      <point x="94" y="1133" type="qcurve" smooth="yes"/>
      <point x="94" y="1232"/>
      <point x="213" y="1387"/>
      <point x="386" y="1464"/>
      <point x="479" y="1464" type="qcurve" smooth="yes"/>
      <point x="610" y="1464"/>
      <point x="771" y="1379"/>
      <point x="827" y="1298" type="qcurve"/>
      <point x="770" y="1272" type="line"/>
      <point x="735" y="1341"/>
      <point x="574" y="1399"/>
      <point x="481" y="1399" type="qcurve" smooth="yes"/>
      <point x="358" y="1399"/>
      <point x="164" y="1251"/>
      <point x="164" y="1133" type="qcurve" smooth="yes"/>
      <point x="164" y="1002"/>
      <point x="335" y="883"/>
      <point x="483" y="883" type="qcurve" smooth="yes"/>
      <point x="559" y="883"/>
      <point x="696" y="849"/>
      <point x="811" y="779"/>
      <point x="879" y="658"/>
      <point x="879" y="578" type="qcurve" smooth="yes"/>
      <point x="879" y="519"/>
      <point x="840" y="411"/>
      <point x="807" y="379" type="qcurve"/>
      <point x="913" y="320"/>
    </contour>
    <contour>
      <point x="739" y="403" type="qcurve"/>
      <point x="772" y="430"/>
      <point x="811" y="526"/>
      <point x="811" y="578" type="qcurve" smooth="yes"/>
      <point x="811" y="632"/>
      <point x="770" y="717"/>
      <point x="705" y="770"/>
      <point x="617" y="805"/>
      <point x="531" y="819"/>
      <point x="485" y="819" type="qcurve" smooth="yes"/>
      <point x="363" y="819"/>
      <point x="276" y="856" type="qcurve"/>
      <point x="250" y="830"/>
      <point x="217" y="740"/>
      <point x="217" y="694" type="qcurve" smooth="yes"/>
      <point x="217" y="621"/>
      <point x="273" y="520"/>
      <point x="359" y="473"/>
      <point x="477" y="444"/>
      <point x="585" y="435"/>
      <point x="704" y="417"/>
    </contour>
  </outline>
</glyph>
<glyph name="dieresis" format="2">
  <advance width="538"/>
  <unicode hex="00A8"/>
  <anchor x="270" y="1475" name="Anchor-13"/>
  <outline>
    <contour>
      <point x="109" y="1325" type="line"/>
      <point x="109" y="1493" type="line"/>
      <point x="172" y="1493" type="line"/>
      <point x="172" y="1325" type="line"/>
    </contour>
    <contour>
      <point x="367" y="1325" type="line"/>
      <point x="367" y="1493" type="line"/>
      <point x="430" y="1493" type="line"/>
      <point x="430" y="1325" type="line"/>
    </contour>
  </outline>
</glyph>
<glyph name="copyright" format="2">
  <advance width="1691"/>
  <unicode hex="00A9"/>
  <outline>
    <contour>
      <point x="102" y="727" type="qcurve" smooth="yes"/>
      <point x="102" y="852"/>
      <point x="174" y="1079"/>
      <point x="309" y="1259"/>
      <point x="491" y="1392"/>
      <point x="720" y="1464"/>
      <point x="846" y="1464" type="qcurve" smooth="yes"/>
      <point x="1056" y="1464"/>
      <point x="1396" y="1273"/>
      <point x="1589" y="935"/>
      <point x="1589" y="727" type="qcurve" smooth="yes"/>
      <point x="1589" y="518"/>
      <point x="1396" y="178"/>
      <point x="1056" y="-14"/>
      <point x="846" y="-14" type="qcurve" smooth="yes"/>
      <point x="689" y="-14"/>
      <point x="412" y="99"/>
      <point x="215" y="295"/>
      <point x="102" y="570"/>
    </contour>
    <contour>
      <point x="1536" y="721" type="qcurve" smooth="yes"/>
      <point x="1536" y="868"/>
      <point x="1431" y="1126"/>
      <point x="1250" y="1308"/>
      <point x="994" y="1413"/>
      <point x="848" y="1413" type="qcurve" smooth="yes"/>
      <point x="701" y="1413"/>
      <point x="444" y="1308"/>
      <point x="261" y="1127"/>
      <point x="156" y="871"/>
      <point x="156" y="725" type="qcurve" smooth="yes"/>
      <point x="156" y="580"/>
      <point x="261" y="324"/>
      <point x="443" y="142"/>
      <point x="701" y="37"/>
      <point x="848" y="37" type="qcurve" smooth="yes"/>
      <point x="1040" y="37"/>
      <point x="1354" y="208"/>
      <point x="1536" y="522"/>
    </contour>
    <contour>
      <point x="403" y="727" type="qcurve" smooth="yes"/>
      <point x="403" y="795"/>
      <point x="435" y="928"/>
      <point x="506" y="1052"/>
      <point x="608" y="1145"/>
      <point x="757" y="1202"/>
      <point x="846" y="1202" type="qcurve" smooth="yes"/>
      <point x="971" y="1202"/>
      <point x="1166" y="1093"/>
      <point x="1206" y="991" type="qcurve"/>
      <point x="1139" y="969" type="line"/>
      <point x="1118" y="1019"/>
      <point x="1045" y="1090"/>
      <point x="958" y="1123"/>
      <point x="883" y="1137"/>
      <point x="846" y="1137" type="qcurve" smooth="yes"/>
      <point x="754" y="1137"/>
      <point x="607" y="1063"/>
      <point x="519" y="943"/>
      <point x="473" y="801"/>
      <point x="473" y="727" type="qcurve" smooth="yes"/>
      <point x="473" y="634"/>
      <point x="544" y="477"/>
      <point x="657" y="377"/>
      <point x="788" y="322"/>
      <point x="852" y="322" type="qcurve" smooth="yes"/>
      <point x="943" y="322"/>
      <point x="1124" y="420"/>
      <point x="1159" y="500" type="qcurve"/>
      <point x="1225" y="481" type="line"/>
      <point x="1215" y="449"/>
      <point x="1154" y="375"/>
      <point x="1062" y="305"/>
      <point x="930" y="258"/>
      <point x="860" y="258" type="qcurve" smooth="yes"/>
      <point x="777" y="258"/>
      <point x="615" y="323"/>
      <point x="484" y="439"/>
      <point x="403" y="620"/>
    </contour>
  </outline>
</glyph>
<glyph name="ordfeminine" format="2">
  <advance width="876"/>
  <unicode hex="00AA"/>
  <anchor x="0" y="0" name="Anchor-11"/>
  <anchor x="0" y="0" name="Anchor-10"/>
  <anchor x="535" y="1063" name="Anchor-9"/>
  <anchor x="0" y="0" name="Anchor-8"/>
  <anchor x="930" y="23" name="Anchor-7"/>
  <outline>
    <contour>
      <point x="104" y="936" type="qcurve" smooth="yes"/>
      <point x="104" y="1031"/>
      <point x="276" y="1149"/>
      <point x="544" y="1149"/>
      <point x="637" y="1112" type="qcurve"/>
      <point x="637" y="1180" type="line" smooth="yes"/>
      <point x="637" y="1276"/>
      <point x="519" y="1391"/>
      <point x="418" y="1391" type="qcurve" smooth="yes"/>
      <point x="310" y="1391"/>
      <point x="182" y="1307" type="qcurve"/>
      <point x="152" y="1358" type="line"/>
      <point x="295" y="1452"/>
      <point x="424" y="1452" type="qcurve" smooth="yes"/>
      <point x="560" y="1452"/>
      <point x="717" y="1302"/>
      <point x="717" y="1171" type="qcurve" smooth="yes"/>
      <point x="717" y="838" type="line" smooth="yes"/>
      <point x="717" y="804"/>
      <point x="750" y="801" type="qcurve"/>
      <point x="750" y="729" type="line"/>
      <point x="724" y="726"/>
      <point x="707" y="729" type="qcurve" smooth="yes"/>
      <point x="681" y="732"/>
      <point x="649" y="767"/>
      <point x="647" y="793" type="qcurve" smooth="yes"/>
      <point x="645" y="850" type="line"/>
      <point x="594" y="786"/>
      <point x="438" y="717"/>
      <point x="346" y="717" type="qcurve" smooth="yes"/>
      <point x="245" y="717"/>
      <point x="104" y="844"/>
    </contour>
    <contour>
      <point x="612" y="883" type="qcurve" smooth="yes"/>
      <point x="637" y="911"/>
      <point x="637" y="938" type="qcurve" smooth="yes"/>
      <point x="637" y="1057" type="line"/>
      <point x="553" y="1094"/>
      <point x="420" y="1094" type="qcurve" smooth="yes"/>
      <point x="313" y="1094"/>
      <point x="180" y="1010"/>
      <point x="180" y="940" type="qcurve" smooth="yes"/>
      <point x="180" y="873"/>
      <point x="287" y="780"/>
      <point x="443" y="780"/>
      <point x="578" y="837"/>
    </contour>
  </outline>
</glyph>
<glyph name="guillemotleft" format="2">
  <advance width="1093"/>
  <unicode hex="00AB"/>
  <outline>
    <contour>
      <point x="86" y="553" type="line"/>
      <point x="578" y="905" type="line"/>
      <point x="578" y="838" type="line"/>
      <point x="145" y="530" type="line"/>
      <point x="578" y="223" type="line"/>
      <point x="578" y="156" type="line"/>
      <point x="86" y="506" type="line"/>
    </contour>
    <contour>
      <point x="463" y="553" type="line"/>
      <point x="956" y="905" type="line"/>
      <point x="956" y="838" type="line"/>
      <point x="524" y="530" type="line"/>
      <point x="956" y="223" type="line"/>
      <point x="956" y="156" type="line"/>
      <point x="463" y="506" type="line"/>
    </contour>
  </outline>
</glyph>
<glyph name="registered" format="2">
  <advance width="1691"/>
  <unicode hex="00AE"/>
  <outline>
    <contour>
      <point x="102" y="727" type="qcurve" smooth="yes"/>
      <point x="102" y="852"/>
      <point x="174" y="1079"/>
      <point x="309" y="1259"/>
      <point x="491" y="1392"/>
      <point x="720" y="1464"/>
      <point x="846" y="1464" type="qcurve" smooth="yes"/>
      <point x="1056" y="1464"/>
      <point x="1396" y="1273"/>
      <point x="1589" y="935"/>
      <point x="1589" y="727" type="qcurve" smooth="yes"/>
      <point x="1589" y="518"/>
      <point x="1396" y="178"/>
      <point x="1056" y="-14"/>
      <point x="846" y="-14" type="qcurve" smooth="yes"/>
      <point x="689" y="-14"/>
      <point x="412" y="99"/>
      <point x="215" y="295"/>
      <point x="102" y="570"/>
    </contour>
    <contour>
      <point x="1536" y="727" type="qcurve" smooth="yes"/>
      <point x="1536" y="920"/>
      <point x="1358" y="1234"/>
      <point x="1042" y="1413"/>
      <point x="846" y="1413" type="qcurve" smooth="yes"/>
      <point x="651" y="1413"/>
      <point x="336" y="1234"/>
      <point x="158" y="920"/>
      <point x="158" y="727" type="qcurve" smooth="yes"/>
      <point x="158" y="581"/>
      <point x="262" y="325"/>
      <point x="443" y="142"/>
      <point x="699" y="37"/>
      <point x="846" y="37" type="qcurve" smooth="yes"/>
      <point x="1040" y="37"/>
      <point x="1353" y="207"/>
      <point x="1536" y="524"/>
    </contour>
    <contour>
      <point x="545" y="1192" type="line"/>
      <point x="932" y="1192" type="line" smooth="yes"/>
      <point x="1045" y="1192"/>
      <point x="1200" y="1015"/>
      <point x="1200" y="903" type="qcurve" smooth="yes"/>
      <point x="1200" y="794"/>
      <point x="1070" y="631"/>
      <point x="969" y="621" type="qcurve"/>
      <point x="1204" y="252" type="line"/>
      <point x="1135" y="252" type="line"/>
      <point x="903" y="616" type="line"/>
      <point x="606" y="616" type="line"/>
      <point x="606" y="252" type="line"/>
      <point x="545" y="252" type="line"/>
    </contour>
    <contour>
      <point x="938" y="672" type="line" smooth="yes"/>
      <point x="1034" y="672"/>
      <point x="1141" y="804"/>
      <point x="1141" y="903" type="qcurve" smooth="yes"/>
      <point x="1141" y="999"/>
      <point x="1021" y="1133"/>
      <point x="930" y="1133" type="qcurve" smooth="yes"/>
      <point x="606" y="1133" type="line"/>
      <point x="606" y="672" type="line"/>
    </contour>
  </outline>
</glyph>
<glyph name="macron" format="2">
  <advance width="788"/>
  <unicode hex="00AF"/>
  <anchor x="393" y="1448" name="Anchor-13"/>
  <outline>
    <contour>
      <point x="104" y="1391" type="line"/>
      <point x="104" y="1448" type="line"/>
      <point x="684" y="1448" type="line"/>
      <point x="684" y="1391" type="line"/>
    </contour>
  </outline>
</glyph>
<glyph name="degree" format="2">
  <advance width="524"/>
  <unicode hex="00B0"/>
  <outline>
    <contour>
      <point x="262" y="1483" type="qcurve" smooth="yes"/>
      <point x="325" y="1483"/>
      <point x="412" y="1396"/>
      <point x="412" y="1270"/>
      <point x="325" y="1184"/>
      <point x="262" y="1184" type="qcurve" smooth="yes"/>
      <point x="200" y="1184"/>
      <point x="113" y="1270"/>
      <point x="113" y="1396"/>
      <point x="200" y="1483"/>
    </contour>
    <contour>
      <point x="166" y="1293"/>
      <point x="193" y="1266" type="qcurve" smooth="yes"/>
      <point x="224" y="1235"/>
      <point x="262" y="1235" type="qcurve" smooth="yes"/>
      <point x="301" y="1235"/>
      <point x="332" y="1266" type="qcurve" smooth="yes"/>
      <point x="360" y="1294"/>
      <point x="360" y="1372"/>
      <point x="332" y="1403" type="qcurve" smooth="yes"/>
      <point x="305" y="1430"/>
      <point x="262" y="1430" type="qcurve" smooth="yes"/>
      <point x="220" y="1430"/>
      <point x="193" y="1403" type="qcurve" smooth="yes"/>
      <point x="166" y="1373"/>
    </contour>
  </outline>
</glyph>
<glyph name="plusminus" format="2">
  <advance width="960"/>
  <unicode hex="00B1"/>
  <outline>
    <contour>
      <point x="795" y="764" type="line"/>
      <point x="795" y="700" type="line"/>
      <point x="514" y="700" type="line"/>
      <point x="514" y="399" type="line"/>
      <point x="446" y="399" type="line"/>
      <point x="446" y="700" type="line"/>
      <point x="166" y="700" type="line"/>
      <point x="166" y="764" type="line"/>
      <point x="446" y="764" type="line"/>
      <point x="446" y="1065" type="line"/>
      <point x="514" y="1065" type="line"/>
      <point x="514" y="764" type="line"/>
    </contour>
    <contour>
      <point x="166" y="160" type="line"/>
      <point x="166" y="223" type="line"/>
      <point x="795" y="223" type="line"/>
      <point x="795" y="160" type="line"/>
    </contour>
  </outline>
</glyph>
<glyph name="twosuperior" format="2">
  <advance width="768"/>
  <unicode hex="00B2"/>
  <outline>
    <contour>
      <point x="80" y="856" type="line"/>
      <point x="80" y="1004"/>
      <point x="206" y="1170"/>
      <point x="334" y="1217" type="qcurve" smooth="yes"/>
      <point x="351" y="1224"/>
      <point x="442" y="1255"/>
      <point x="486" y="1273"/>
      <point x="556" y="1310"/>
      <point x="590" y="1345"/>
      <point x="618" y="1401"/>
      <point x="618" y="1434" type="qcurve" smooth="yes"/>
      <point x="618" y="1508"/>
      <point x="501" y="1608"/>
      <point x="393" y="1608" type="qcurve" smooth="yes"/>
      <point x="228" y="1608"/>
      <point x="129" y="1487" type="qcurve"/>
      <point x="90" y="1524" type="line"/>
      <point x="98" y="1535"/>
      <point x="134" y="1569"/>
      <point x="210" y="1624"/>
      <point x="330" y="1661"/>
      <point x="399" y="1661" type="qcurve" smooth="yes"/>
      <point x="533" y="1661"/>
      <point x="678" y="1530"/>
      <point x="678" y="1432" type="qcurve" smooth="yes"/>
      <point x="678" y="1405"/>
      <point x="666" y="1358"/>
      <point x="640" y="1318"/>
      <point x="614" y="1287"/>
      <point x="569" y="1259"/>
      <point x="537" y="1240"/>
      <point x="481" y="1217"/>
      <point x="452" y="1207"/>
      <point x="393" y="1187"/>
      <point x="383" y="1184" type="qcurve" smooth="yes"/>
      <point x="310" y="1159"/>
      <point x="214" y="1089"/>
      <point x="172" y="1009"/>
      <point x="158" y="946"/>
      <point x="158" y="909" type="qcurve"/>
      <point x="678" y="909" type="line"/>
      <point x="678" y="856" type="line"/>
    </contour>
  </outline>
</glyph>
<glyph name="threesuperior" format="2">
  <advance width="784"/>
  <unicode hex="00B3"/>
  <outline>
    <contour>
      <point x="80" y="1038" type="qcurve"/>
      <point x="119" y="1065" type="line"/>
      <point x="125" y="1000"/>
      <point x="280" y="901"/>
      <point x="389" y="901" type="qcurve" smooth="yes"/>
      <point x="497" y="901"/>
      <point x="643" y="994"/>
      <point x="643" y="1067" type="qcurve" smooth="yes"/>
      <point x="643" y="1145"/>
      <point x="475" y="1237"/>
      <point x="338" y="1237" type="qcurve" smooth="yes"/>
      <point x="291" y="1237" type="line"/>
      <point x="291" y="1286" type="line"/>
      <point x="338" y="1286" type="line" smooth="yes"/>
      <point x="470" y="1286"/>
      <point x="614" y="1365"/>
      <point x="614" y="1438" type="qcurve" smooth="yes"/>
      <point x="614" y="1514"/>
      <point x="477" y="1610"/>
      <point x="375" y="1610" type="qcurve" smooth="yes"/>
      <point x="290" y="1610"/>
      <point x="161" y="1544"/>
      <point x="133" y="1489" type="qcurve"/>
      <point x="92" y="1528" type="line"/>
      <point x="126" y="1589"/>
      <point x="279" y="1661"/>
      <point x="375" y="1661" type="qcurve" smooth="yes"/>
      <point x="504" y="1661"/>
      <point x="674" y="1536"/>
      <point x="674" y="1442" type="qcurve" smooth="yes"/>
      <point x="674" y="1302"/>
      <point x="492" y="1264" type="qcurve"/>
      <point x="585" y="1249"/>
      <point x="698" y="1136"/>
      <point x="698" y="1059" type="qcurve" smooth="yes"/>
      <point x="698" y="965"/>
      <point x="519" y="846"/>
      <point x="389" y="846" type="qcurve" smooth="yes"/>
      <point x="262" y="846"/>
      <point x="89" y="953"/>
    </contour>
  </outline>
</glyph>
<glyph name="acute" format="2">
  <advance width="419"/>
  <unicode hex="00B4"/>
  <anchor x="213" y="1495" name="Anchor-13"/>
  <outline>
    <contour>
      <point x="152" y="1307" type="line"/>
      <point x="102" y="1333" type="line"/>
      <point x="229" y="1495" type="line"/>
      <point x="322" y="1495" type="line"/>
    </contour>
  </outline>
</glyph>
<glyph name="mu" format="2">
  <advance width="1243"/>
  <unicode hex="00B5"/>
  <outline>
    <contour>
      <point x="180" y="1065" type="line"/>
      <point x="250" y="1065" type="line"/>
      <point x="250" y="467" type="line" smooth="yes"/>
      <point x="250" y="253"/>
      <point x="392" y="45"/>
      <point x="682" y="45"/>
      <point x="930" y="237"/>
      <point x="977" y="389" type="qcurve"/>
      <point x="977" y="1065" type="line"/>
      <point x="1047" y="1065" type="line"/>
      <point x="1047" y="111" type="line" smooth="yes"/>
      <point x="1047" y="66"/>
      <point x="1083" y="66" type="qcurve"/>
      <point x="1083" y="0" type="line"/>
      <point x="1056" y="-3"/>
      <point x="1044" y="2" type="qcurve" smooth="yes"/>
      <point x="1017" y="8"/>
      <point x="981" y="59"/>
      <point x="981" y="90" type="qcurve" smooth="yes"/>
      <point x="981" y="262" type="line"/>
      <point x="916" y="135"/>
      <point x="672" y="-20"/>
      <point x="535" y="-20" type="qcurve" smooth="yes"/>
      <point x="321" y="-20"/>
      <point x="248" y="180" type="qcurve"/>
      <point x="250" y="-434" type="line"/>
      <point x="180" y="-434" type="line"/>
    </contour>
  </outline>
</glyph>
<glyph name="paragraph" format="2">
  <advance width="1179"/>
  <unicode hex="00B6"/>
  <outline>
    <contour>
      <point x="645" y="1454" type="qcurve" smooth="yes"/>
      <point x="1079" y="1454" type="line"/>
      <point x="1079" y="1393" type="line"/>
      <point x="936" y="1393" type="line"/>
      <point x="936" y="-164" type="line"/>
      <point x="872" y="-164" type="line"/>
      <point x="872" y="498" type="line"/>
      <point x="696" y="498" type="line"/>
      <point x="696" y="-164" type="line"/>
      <point x="631" y="-164" type="line"/>
      <point x="631" y="498" type="line"/>
      <point x="368" y="503"/>
      <point x="68" y="754"/>
      <point x="68" y="975" type="qcurve" smooth="yes"/>
      <point x="68" y="1199"/>
      <point x="373" y="1454"/>
    </contour>
    <contour>
      <point x="631" y="559" type="qcurve"/>
      <point x="631" y="1393" type="line"/>
      <point x="390" y="1393"/>
      <point x="131" y="1174"/>
      <point x="131" y="977" type="qcurve" smooth="yes"/>
      <point x="131" y="872"/>
      <point x="211" y="712"/>
      <point x="352" y="615"/>
      <point x="527" y="564"/>
    </contour>
    <contour>
      <point x="872" y="1393" type="line"/>
      <point x="696" y="1393" type="line"/>
      <point x="696" y="559" type="line"/>
      <point x="872" y="559" type="line"/>
    </contour>
  </outline>
</glyph>
<glyph name="cedilla" format="2">
  <advance width="534"/>
  <unicode hex="00B8"/>
  <outline>
    <contour>
      <point x="307" y="-346" type="qcurve" smooth="yes"/>
      <point x="186" y="-346"/>
      <point x="80" y="-293" type="qcurve"/>
      <point x="106" y="-244" type="line"/>
      <point x="212" y="-293"/>
      <point x="295" y="-293" type="qcurve" smooth="yes"/>
      <point x="453" y="-293"/>
      <point x="453" y="-180" type="qcurve" smooth="yes"/>
      <point x="453" y="-126"/>
      <point x="379" y="-44"/>
      <point x="299" y="0" type="qcurve"/>
      <point x="346" y="23" type="line"/>
      <point x="428" y="-24"/>
      <point x="510" y="-120"/>
      <point x="510" y="-186" type="qcurve" smooth="yes"/>
      <point x="510" y="-265"/>
      <point x="400" y="-346"/>
    </contour>
  </outline>
</glyph>
<glyph name="onesuperior" format="2">
  <advance width="528"/>
  <unicode hex="00B9"/>
  <outline>
    <contour>
      <point x="483" y="909" type="line"/>
      <point x="483" y="854" type="line"/>
      <point x="100" y="854" type="line"/>
      <point x="100" y="909" type="line"/>
      <point x="268" y="909" type="line"/>
      <point x="268" y="1593" type="line"/>
      <point x="243" y="1563"/>
      <point x="119" y="1495"/>
      <point x="72" y="1495" type="qcurve"/>
      <point x="72" y="1550" type="line"/>
      <point x="97" y="1550"/>
      <point x="155" y="1572"/>
      <point x="203" y="1603"/>
      <point x="244" y="1636"/>
      <point x="267" y="1659"/>
      <point x="268" y="1661" type="qcurve" smooth="yes"/>
      <point x="326" y="1661" type="line"/>
      <point x="326" y="909" type="line"/>
    </contour>
  </outline>
</glyph>
<glyph name="ordmasculine" format="2">
  <advance width="921"/>
  <unicode hex="00BA"/>
  <anchor x="0" y="0" name="Anchor-11"/>
  <anchor x="0" y="0" name="Anchor-10"/>
  <anchor x="598" y="1063" name="Anchor-9"/>
  <anchor x="0" y="0" name="Anchor-8"/>
  <anchor x="596" y="0" name="Anchor-7"/>
  <outline>
    <contour>
      <point x="98" y="1083" type="qcurve" smooth="yes"/>
      <point x="98" y="1235"/>
      <point x="307" y="1452"/>
      <point x="459" y="1452" type="qcurve" smooth="yes"/>
      <point x="613" y="1452"/>
      <point x="823" y="1235"/>
      <point x="823" y="1083" type="qcurve" smooth="yes"/>
      <point x="823" y="933"/>
      <point x="614" y="717"/>
      <point x="459" y="717" type="qcurve" smooth="yes"/>
      <point x="306" y="717"/>
      <point x="98" y="933"/>
    </contour>
    <contour>
      <point x="459" y="772" type="qcurve" smooth="yes"/>
      <point x="582" y="772"/>
      <point x="758" y="956"/>
      <point x="758" y="1214"/>
      <point x="582" y="1395"/>
      <point x="459" y="1395" type="qcurve" smooth="yes"/>
      <point x="338" y="1395"/>
      <point x="164" y="1211"/>
      <point x="164" y="1081" type="qcurve" smooth="yes"/>
      <point x="164" y="954"/>
      <point x="337" y="772"/>
    </contour>
  </outline>
</glyph>
<glyph name="onequarter" format="2">
  <advance width="1525"/>
  <unicode hex="00BC"/>
  <outline>
    <contour>
      <point x="483" y="745" type="line"/>
      <point x="483" y="690" type="line"/>
      <point x="100" y="690" type="line"/>
      <point x="100" y="745" type="line"/>
      <point x="268" y="745" type="line"/>
      <point x="268" y="1430" type="line"/>
      <point x="243" y="1399"/>
      <point x="119" y="1331"/>
      <point x="72" y="1331" type="qcurve"/>
      <point x="72" y="1386" type="line"/>
      <point x="97" y="1386"/>
      <point x="155" y="1408"/>
      <point x="203" y="1439"/>
      <point x="244" y="1472"/>
      <point x="267" y="1495"/>
      <point x="268" y="1497" type="qcurve" smooth="yes"/>
      <point x="326" y="1497" type="line"/>
      <point x="326" y="745" type="line"/>
    </contour>
    <contour>
      <point x="70" y="33" type="line"/>
      <point x="641" y="743" type="line"/>
      <point x="1208" y="1458" type="line"/>
      <point x="1253" y="1423" type="line"/>
      <point x="678" y="709" type="line"/>
      <point x="113" y="-4" type="line"/>
    </contour>
    <contour>
      <point x="1292" y="0" type="line"/>
      <point x="1292" y="221" type="line"/>
      <point x="817" y="221" type="line"/>
      <point x="817" y="270" type="line"/>
      <point x="1309" y="795" type="line"/>
      <point x="1348" y="795" type="line"/>
      <point x="1348" y="274" type="line"/>
      <point x="1462" y="274" type="line"/>
      <point x="1462" y="221" type="line"/>
      <point x="1348" y="221" type="line"/>
      <point x="1348" y="0" type="line"/>
    </contour>
    <contour>
      <point x="887" y="274" type="line"/>
      <point x="1292" y="274" type="line"/>
      <point x="1292" y="707" type="line"/>
    </contour>
  </outline>
</glyph>
<glyph name="onehalf" format="2">
  <advance width="1556"/>
  <unicode hex="00BD"/>
  <outline>
    <contour>
      <point x="483" y="745" type="line"/>
      <point x="483" y="690" type="line"/>
      <point x="100" y="690" type="line"/>
      <point x="100" y="745" type="line"/>
      <point x="268" y="745" type="line"/>
      <point x="268" y="1430" type="line"/>
      <point x="243" y="1399"/>
      <point x="119" y="1331"/>
      <point x="72" y="1331" type="qcurve"/>
      <point x="72" y="1386" type="line"/>
      <point x="97" y="1386"/>
      <point x="155" y="1408"/>
      <point x="203" y="1439"/>
      <point x="244" y="1472"/>
      <point x="267" y="1495"/>
      <point x="268" y="1497" type="qcurve" smooth="yes"/>
      <point x="326" y="1497" type="line"/>
      <point x="326" y="745" type="line"/>
    </contour>
    <contour>
      <point x="70" y="33" type="line"/>
      <point x="641" y="743" type="line"/>
      <point x="1208" y="1458" type="line"/>
      <point x="1253" y="1423" type="line"/>
      <point x="678" y="709" type="line"/>
      <point x="113" y="-4" type="line"/>
    </contour>
    <contour>
      <point x="874" y="0" type="line"/>
      <point x="874" y="148"/>
      <point x="998" y="313"/>
      <point x="1126" y="360" type="qcurve" smooth="yes"/>
      <point x="1143" y="367"/>
      <point x="1232" y="399"/>
      <point x="1277" y="416"/>
      <point x="1346" y="454"/>
      <point x="1381" y="489"/>
      <point x="1409" y="545"/>
      <point x="1409" y="578" type="qcurve" smooth="yes"/>
      <point x="1409" y="651"/>
      <point x="1293" y="752"/>
      <point x="1186" y="752" type="qcurve" smooth="yes"/>
      <point x="1090" y="752"/>
      <point x="960" y="678"/>
      <point x="924" y="631" type="qcurve"/>
      <point x="885" y="668" type="line"/>
      <point x="891" y="676"/>
      <point x="912" y="700"/>
      <point x="968" y="744"/>
      <point x="1033" y="778"/>
      <point x="1136" y="805"/>
      <point x="1192" y="805" type="qcurve" smooth="yes"/>
      <point x="1325" y="805"/>
      <point x="1468" y="673"/>
      <point x="1468" y="575" type="qcurve" smooth="yes"/>
      <point x="1468" y="548"/>
      <point x="1457" y="501"/>
      <point x="1431" y="462"/>
      <point x="1405" y="431"/>
      <point x="1360" y="402"/>
      <point x="1329" y="383"/>
      <point x="1273" y="361"/>
      <point x="1245" y="351"/>
      <point x="1186" y="331"/>
      <point x="1176" y="328" type="qcurve" smooth="yes"/>
      <point x="950" y="251"/>
      <point x="950" y="53" type="qcurve"/>
      <point x="1470" y="53" type="line"/>
      <point x="1470" y="0" type="line"/>
    </contour>
  </outline>
</glyph>
<glyph name="threequarters" format="2">
  <advance width="1781"/>
  <unicode hex="00BE"/>
  <outline>
    <contour>
      <point x="80" y="874" type="qcurve"/>
      <point x="119" y="901" type="line"/>
      <point x="125" y="836"/>
      <point x="280" y="737"/>
      <point x="389" y="737" type="qcurve" smooth="yes"/>
      <point x="497" y="737"/>
      <point x="643" y="830"/>
      <point x="643" y="903" type="qcurve" smooth="yes"/>
      <point x="643" y="981"/>
      <point x="475" y="1073"/>
      <point x="338" y="1073" type="qcurve" smooth="yes"/>
      <point x="291" y="1073" type="line"/>
      <point x="291" y="1122" type="line"/>
      <point x="338" y="1122" type="line" smooth="yes"/>
      <point x="470" y="1122"/>
      <point x="614" y="1201"/>
      <point x="614" y="1274" type="qcurve" smooth="yes"/>
      <point x="614" y="1350"/>
      <point x="477" y="1446"/>
      <point x="375" y="1446" type="qcurve" smooth="yes"/>
      <point x="290" y="1446"/>
      <point x="161" y="1380"/>
      <point x="133" y="1325" type="qcurve"/>
      <point x="92" y="1364" type="line"/>
      <point x="126" y="1425"/>
      <point x="279" y="1497"/>
      <point x="375" y="1497" type="qcurve" smooth="yes"/>
      <point x="504" y="1497"/>
      <point x="674" y="1372"/>
      <point x="674" y="1278" type="qcurve" smooth="yes"/>
      <point x="674" y="1138"/>
      <point x="492" y="1100" type="qcurve"/>
      <point x="585" y="1085"/>
      <point x="698" y="972"/>
      <point x="698" y="895" type="qcurve" smooth="yes"/>
      <point x="698" y="801"/>
      <point x="519" y="682"/>
      <point x="389" y="682" type="qcurve" smooth="yes"/>
      <point x="262" y="682"/>
      <point x="89" y="789"/>
    </contour>
    <contour>
      <point x="326" y="33" type="line"/>
      <point x="897" y="743" type="line"/>
      <point x="1464" y="1458" type="line"/>
      <point x="1509" y="1423" type="line"/>
      <point x="934" y="709" type="line"/>
      <point x="369" y="-4" type="line"/>
    </contour>
    <contour>
      <point x="1548" y="0" type="line"/>
      <point x="1548" y="221" type="line"/>
      <point x="1073" y="221" type="line"/>
      <point x="1073" y="270" type="line"/>
      <point x="1565" y="795" type="line"/>
      <point x="1604" y="795" type="line"/>
      <point x="1604" y="274" type="line"/>
      <point x="1718" y="274" type="line"/>
      <point x="1718" y="221" type="line"/>
      <point x="1604" y="221" type="line"/>
      <point x="1604" y="0" type="line"/>
    </contour>
    <contour>
      <point x="1143" y="274" type="line"/>
      <point x="1548" y="274" type="line"/>
      <point x="1548" y="707" type="line"/>
    </contour>
  </outline>
</glyph>
<glyph name="questiondown" format="2">
  <advance width="948"/>
  <unicode hex="00BF"/>
  <outline>
    <contour>
      <point x="604" y="1036" type="line"/>
      <point x="604" y="850" type="line"/>
      <point x="539" y="850" type="line"/>
      <point x="539" y="1036" type="line"/>
    </contour>
    <contour>
      <point x="604" y="655" type="line"/>
      <point x="604" y="568"/>
      <point x="580" y="442"/>
      <point x="530" y="358"/>
      <point x="472" y="306"/>
      <point x="428" y="283" type="qcurve" smooth="yes"/>
      <point x="411" y="274"/>
      <point x="349" y="244"/>
      <point x="310" y="223"/>
      <point x="253" y="188"/>
      <point x="215" y="157"/>
      <point x="173" y="108"/>
      <point x="149" y="55"/>
      <point x="133" y="-16"/>
      <point x="133" y="-57" type="qcurve" smooth="yes"/>
      <point x="133" y="-135"/>
      <point x="188" y="-259"/>
      <point x="280" y="-334"/>
      <point x="394" y="-373"/>
      <point x="457" y="-373" type="qcurve" smooth="yes"/>
      <point x="575" y="-373"/>
      <point x="778" y="-246"/>
      <point x="829" y="-143" type="qcurve"/>
      <point x="883" y="-172" type="line"/>
      <point x="828" y="-296"/>
      <point x="591" y="-436"/>
      <point x="457" y="-436" type="qcurve" smooth="yes"/>
      <point x="381" y="-436"/>
      <point x="244" y="-387"/>
      <point x="135" y="-293"/>
      <point x="70" y="-144"/>
      <point x="70" y="-51" type="qcurve" smooth="yes"/>
      <point x="70" y="-16"/>
      <point x="80" y="47"/>
      <point x="96" y="98"/>
      <point x="124" y="145"/>
      <point x="150" y="179"/>
      <point x="192" y="216"/>
      <point x="224" y="239"/>
      <point x="275" y="269"/>
      <point x="308" y="287"/>
      <point x="364" y="316"/>
      <point x="379" y="324" type="qcurve" smooth="yes"/>
      <point x="419" y="346"/>
      <point x="468" y="385"/>
      <point x="518" y="458"/>
      <point x="541" y="573"/>
      <point x="541" y="655" type="qcurve"/>
    </contour>
  </outline>
</glyph>
<glyph name="Agrave" format="2">
  <advance width="1382"/>
  <unicode hex="00C0"/>
  <anchor x="0" y="0" name="Anchor-11"/>
  <anchor x="0" y="0" name="Anchor-10"/>
  <anchor x="647" y="1880" name="Anchor-9"/>
  <anchor x="1346" y="0" name="Anchor-8"/>
  <anchor x="711" y="0" name="Anchor-7"/>
  <outline>
    <contour>
      <point x="537" y="1880" type="line"/>
      <point x="627" y="1880" type="line"/>
      <point x="756" y="1718" type="line"/>
      <point x="707" y="1692" type="line"/>
    </contour>
    <contour>
      <point x="659" y="1454" type="line"/>
      <point x="721" y="1454" type="line"/>
      <point x="1346" y="0" type="line"/>
      <point x="1270" y="0" type="line"/>
      <point x="1055" y="502" type="line"/>
      <point x="326" y="502" type="line"/>
      <point x="111" y="0" type="line"/>
      <point x="33" y="0" type="line"/>
    </contour>
    <contour>
      <point x="1032" y="563" type="line"/>
      <point x="690" y="1364" type="line"/>
      <point x="346" y="563" type="line"/>
    </contour>
  </outline>
</glyph>
<glyph name="Aacute" format="2">
  <advance width="1382"/>
  <unicode hex="00C1"/>
  <anchor x="0" y="0" name="Anchor-11"/>
  <anchor x="0" y="0" name="Anchor-10"/>
  <anchor x="774" y="1878" name="Anchor-9"/>
  <anchor x="1346" y="0" name="Anchor-8"/>
  <anchor x="711" y="0" name="Anchor-7"/>
  <outline>
    <contour>
      <point x="713" y="1690" type="line"/>
      <point x="664" y="1716" type="line"/>
      <point x="791" y="1878" type="line"/>
      <point x="883" y="1878" type="line"/>
    </contour>
    <contour>
      <point x="659" y="1454" type="line"/>
      <point x="721" y="1454" type="line"/>
      <point x="1346" y="0" type="line"/>
      <point x="1270" y="0" type="line"/>
      <point x="1055" y="502" type="line"/>
      <point x="326" y="502" type="line"/>
      <point x="111" y="0" type="line"/>
      <point x="33" y="0" type="line"/>
    </contour>
    <contour>
      <point x="1032" y="563" type="line"/>
      <point x="690" y="1364" type="line"/>
      <point x="346" y="563" type="line"/>
    </contour>
  </outline>
</glyph>
<glyph name="Atilde" format="2">
  <advance width="1382"/>
  <unicode hex="00C3"/>
  <anchor x="0" y="0" name="Anchor-11"/>
  <anchor x="0" y="0" name="Anchor-10"/>
  <anchor x="690" y="1878" name="Anchor-9"/>
  <anchor x="1346" y="0" name="Anchor-8"/>
  <anchor x="711" y="0" name="Anchor-7"/>
  <outline>
    <contour>
      <point x="551" y="1804" type="qcurve" smooth="yes"/>
      <point x="521" y="1804"/>
      <point x="475" y="1778"/>
      <point x="455" y="1740"/>
      <point x="446" y="1713"/>
      <point x="446" y="1706" type="qcurve"/>
      <point x="393" y="1706" type="line"/>
      <point x="393" y="1714"/>
      <point x="399" y="1744"/>
      <point x="419" y="1791"/>
      <point x="452" y="1831"/>
      <point x="513" y="1860"/>
      <point x="553" y="1860" type="qcurve" smooth="yes"/>
      <point x="608" y="1860"/>
      <point x="760" y="1780"/>
      <point x="811" y="1780" type="qcurve" smooth="yes"/>
      <point x="842" y="1780"/>
      <point x="889" y="1799"/>
      <point x="913" y="1825"/>
      <point x="927" y="1856"/>
      <point x="930" y="1873"/>
      <point x="930" y="1878" type="qcurve"/>
      <point x="985" y="1878" type="line"/>
      <point x="985" y="1869"/>
      <point x="979" y="1839"/>
      <point x="956" y="1793"/>
      <point x="920" y="1754"/>
      <point x="852" y="1726"/>
      <point x="809" y="1726" type="qcurve" smooth="yes"/>
      <point x="757" y="1726"/>
      <point x="663" y="1765"/>
      <point x="585" y="1804"/>
    </contour>
    <contour>
      <point x="659" y="1454" type="line"/>
      <point x="721" y="1454" type="line"/>
      <point x="1346" y="0" type="line"/>
      <point x="1270" y="0" type="line"/>
      <point x="1055" y="502" type="line"/>
      <point x="326" y="502" type="line"/>
      <point x="111" y="0" type="line"/>
      <point x="33" y="0" type="line"/>
    </contour>
    <contour>
      <point x="1032" y="563" type="line"/>
      <point x="690" y="1364" type="line"/>
      <point x="346" y="563" type="line"/>
    </contour>
  </outline>
</glyph>
<glyph name="Adieresis" format="2">
  <advance width="1382"/>
  <unicode hex="00C4"/>
  <anchor x="0" y="0" name="Anchor-11"/>
  <anchor x="0" y="0" name="Anchor-10"/>
  <anchor x="690" y="1860" name="Anchor-9"/>
  <anchor x="1346" y="0" name="Anchor-8"/>
  <anchor x="711" y="0" name="Anchor-7"/>
  <outline>
    <contour>
      <point x="528" y="1710" type="line"/>
      <point x="528" y="1878" type="line"/>
      <point x="592" y="1878" type="line"/>
      <point x="592" y="1710" type="line"/>
    </contour>
    <contour>
      <point x="786" y="1710" type="line"/>
      <point x="786" y="1878" type="line"/>
      <point x="850" y="1878" type="line"/>
      <point x="850" y="1710" type="line"/>
    </contour>
    <contour>
      <point x="659" y="1454" type="line"/>
      <point x="721" y="1454" type="line"/>
      <point x="1346" y="0" type="line"/>
      <point x="1270" y="0" type="line"/>
      <point x="1055" y="502" type="line"/>
      <point x="326" y="502" type="line"/>
      <point x="111" y="0" type="line"/>
      <point x="33" y="0" type="line"/>
    </contour>
    <contour>
      <point x="1032" y="563" type="line"/>
      <point x="690" y="1364" type="line"/>
      <point x="346" y="563" type="line"/>
    </contour>
  </outline>
</glyph>
<glyph name="Aring" format="2">
  <advance width="1382"/>
  <unicode hex="00C5"/>
  <anchor x="0" y="0" name="Anchor-11"/>
  <anchor x="0" y="0" name="Anchor-10"/>
  <anchor x="688" y="1888" name="Anchor-9"/>
  <anchor x="1346" y="0" name="Anchor-8"/>
  <anchor x="711" y="0" name="Anchor-7"/>
  <outline>
    <contour>
      <point x="690" y="1929" type="qcurve" smooth="yes"/>
      <point x="759" y="1929"/>
      <point x="854" y="1839"/>
      <point x="854" y="1705"/>
      <point x="759" y="1612"/>
      <point x="690" y="1612" type="qcurve" smooth="yes"/>
      <point x="622" y="1612"/>
      <point x="528" y="1705"/>
      <point x="528" y="1839"/>
      <point x="622" y="1929"/>
    </contour>
    <contour>
      <point x="584" y="1772" type="qcurve" smooth="yes"/>
      <point x="584" y="1726"/>
      <point x="646" y="1663"/>
      <point x="690" y="1663" type="qcurve" smooth="yes"/>
      <point x="732" y="1663"/>
      <point x="799" y="1726"/>
      <point x="799" y="1772" type="qcurve" smooth="yes"/>
      <point x="799" y="1820"/>
      <point x="736" y="1878"/>
      <point x="690" y="1878" type="qcurve" smooth="yes"/>
      <point x="646" y="1878"/>
      <point x="584" y="1820"/>
    </contour>
    <contour>
      <point x="659" y="1454" type="line"/>
      <point x="721" y="1454" type="line"/>
      <point x="1346" y="0" type="line"/>
      <point x="1270" y="0" type="line"/>
      <point x="1055" y="502" type="line"/>
      <point x="326" y="502" type="line"/>
      <point x="111" y="0" type="line"/>
      <point x="33" y="0" type="line"/>
    </contour>
    <contour>
      <point x="1032" y="563" type="line"/>
      <point x="690" y="1364" type="line"/>
      <point x="346" y="563" type="line"/>
    </contour>
  </outline>
</glyph>
<glyph name="AE" format="2">
  <advance width="1970"/>
  <unicode hex="00C6"/>
  <anchor x="0" y="0" name="Anchor-11"/>
  <anchor x="0" y="0" name="Anchor-10"/>
  <anchor x="1139" y="1448" name="Anchor-9"/>
  <anchor x="0" y="0" name="Anchor-8"/>
  <anchor x="0" y="0" name="Anchor-7"/>
  <outline>
    <contour>
      <point x="895" y="1454" type="line"/>
      <point x="1851" y="1454" type="line"/>
      <point x="1851" y="1389" type="line"/>
      <point x="983" y="1389" type="line"/>
      <point x="983" y="776" type="line"/>
      <point x="1741" y="776" type="line"/>
      <point x="1741" y="711" type="line"/>
      <point x="983" y="711" type="line"/>
      <point x="983" y="66" type="line"/>
      <point x="1870" y="66" type="line"/>
      <point x="1870" y="0" type="line"/>
      <point x="913" y="0" type="line"/>
      <point x="913" y="502" type="line"/>
      <point x="350" y="502" type="line"/>
      <point x="25" y="0" type="line"/>
      <point x="-57" y="0" type="line"/>
    </contour>
    <contour>
      <point x="909" y="567" type="line"/>
      <point x="909" y="1358" type="line"/>
      <point x="387" y="567" type="line"/>
    </contour>
  </outline>
</glyph>
<glyph name="Egrave" format="2">
  <advance width="1259"/>
  <unicode hex="00C8"/>
  <anchor x="0" y="0" name="Anchor-11"/>
  <anchor x="0" y="0" name="Anchor-10"/>
  <anchor x="657" y="1880" name="Anchor-9"/>
  <anchor x="1157" y="0" name="Anchor-8"/>
  <anchor x="700" y="0" name="Anchor-7"/>
  <outline>
    <contour>
      <point x="547" y="1880" type="line"/>
      <point x="637" y="1880" type="line"/>
      <point x="766" y="1718" type="line"/>
      <point x="717" y="1692" type="line"/>
    </contour>
    <contour>
      <point x="1157" y="66" type="line"/>
      <point x="1157" y="0" type="line"/>
      <point x="197" y="0" type="line"/>
      <point x="197" y="1454" type="line"/>
      <point x="1139" y="1454" type="line"/>
      <point x="1139" y="1389" type="line"/>
      <point x="268" y="1389" type="line"/>
      <point x="268" y="776" type="line"/>
      <point x="1030" y="776" type="line"/>
      <point x="1030" y="711" type="line"/>
      <point x="268" y="711" type="line"/>
      <point x="268" y="66" type="line"/>
    </contour>
  </outline>
</glyph>
<glyph name="Eacute" format="2">
  <advance width="1259"/>
  <unicode hex="00C9"/>
  <anchor x="0" y="0" name="Anchor-11"/>
  <anchor x="0" y="0" name="Anchor-10"/>
  <anchor x="784" y="1878" name="Anchor-9"/>
  <anchor x="1157" y="0" name="Anchor-8"/>
  <anchor x="700" y="0" name="Anchor-7"/>
  <outline>
    <contour>
      <point x="723" y="1690" type="line"/>
      <point x="674" y="1716" type="line"/>
      <point x="801" y="1878" type="line"/>
      <point x="893" y="1878" type="line"/>
    </contour>
    <contour>
      <point x="1157" y="66" type="line"/>
      <point x="1157" y="0" type="line"/>
      <point x="197" y="0" type="line"/>
      <point x="197" y="1454" type="line"/>
      <point x="1139" y="1454" type="line"/>
      <point x="1139" y="1389" type="line"/>
      <point x="268" y="1389" type="line"/>
      <point x="268" y="776" type="line"/>
      <point x="1030" y="776" type="line"/>
      <point x="1030" y="711" type="line"/>
      <point x="268" y="711" type="line"/>
      <point x="268" y="66" type="line"/>
    </contour>
  </outline>
</glyph>
<glyph name="Edieresis" format="2">
  <advance width="1259"/>
  <unicode hex="00CB"/>
  <anchor x="0" y="0" name="Anchor-11"/>
  <anchor x="0" y="0" name="Anchor-10"/>
  <anchor x="700" y="1860" name="Anchor-9"/>
  <anchor x="1157" y="0" name="Anchor-8"/>
  <anchor x="700" y="0" name="Anchor-7"/>
  <outline>
    <contour>
      <point x="539" y="1710" type="line"/>
      <point x="539" y="1878" type="line"/>
      <point x="602" y="1878" type="line"/>
      <point x="602" y="1710" type="line"/>
    </contour>
    <contour>
      <point x="797" y="1710" type="line"/>
      <point x="797" y="1878" type="line"/>
      <point x="860" y="1878" type="line"/>
      <point x="860" y="1710" type="line"/>
    </contour>
    <contour>
      <point x="1157" y="66" type="line"/>
      <point x="1157" y="0" type="line"/>
      <point x="197" y="0" type="line"/>
      <point x="197" y="1454" type="line"/>
      <point x="1139" y="1454" type="line"/>
      <point x="1139" y="1389" type="line"/>
      <point x="268" y="1389" type="line"/>
      <point x="268" y="776" type="line"/>
      <point x="1030" y="776" type="line"/>
      <point x="1030" y="711" type="line"/>
      <point x="268" y="711" type="line"/>
      <point x="268" y="66" type="line"/>
    </contour>
  </outline>
</glyph>
<glyph name="Igrave" format="2">
  <advance width="464"/>
  <unicode hex="00CC"/>
  <anchor x="0" y="0" name="Anchor-11"/>
  <anchor x="0" y="0" name="Anchor-10"/>
  <anchor x="188" y="1880" name="Anchor-9"/>
  <anchor x="268" y="0" name="Anchor-8"/>
  <anchor x="233" y="0" name="Anchor-7"/>
  <outline>
    <contour>
      <point x="78" y="1880" type="line"/>
      <point x="168" y="1880" type="line"/>
      <point x="297" y="1718" type="line"/>
      <point x="248" y="1692" type="line"/>
    </contour>
    <contour>
      <point x="197" y="0" type="line"/>
      <point x="197" y="1454" type="line"/>
      <point x="268" y="1454" type="line"/>
      <point x="268" y="0" type="line"/>
    </contour>
  </outline>
</glyph>
<glyph name="Iacute" format="2">
  <advance width="464"/>
  <unicode hex="00CD"/>
  <anchor x="0" y="0" name="Anchor-11"/>
  <anchor x="0" y="0" name="Anchor-10"/>
  <anchor x="315" y="1878" name="Anchor-9"/>
  <anchor x="268" y="0" name="Anchor-8"/>
  <anchor x="233" y="0" name="Anchor-7"/>
  <outline>
    <contour>
      <point x="254" y="1690" type="line"/>
      <point x="205" y="1716" type="line"/>
      <point x="332" y="1878" type="line"/>
      <point x="424" y="1878" type="line"/>
    </contour>
    <contour>
      <point x="197" y="0" type="line"/>
      <point x="197" y="1454" type="line"/>
      <point x="268" y="1454" type="line"/>
      <point x="268" y="0" type="line"/>
    </contour>
  </outline>
</glyph>
<glyph name="Icircumflex" format="2">
  <advance width="464"/>
  <unicode hex="00CE"/>
  <anchor x="0" y="0" name="Anchor-11"/>
  <anchor x="0" y="0" name="Anchor-10"/>
  <anchor x="231" y="1878" name="Anchor-9"/>
  <anchor x="268" y="0" name="Anchor-8"/>
  <anchor x="233" y="0" name="Anchor-7"/>
  <outline>
    <contour>
      <point x="12" y="1720" type="line"/>
      <point x="205" y="1878" type="line"/>
      <point x="258" y="1878" type="line"/>
      <point x="453" y="1720" type="line"/>
      <point x="406" y="1690" type="line"/>
      <point x="231" y="1819" type="line"/>
      <point x="57" y="1690" type="line"/>
    </contour>
    <contour>
      <point x="197" y="0" type="line"/>
      <point x="197" y="1454" type="line"/>
      <point x="268" y="1454" type="line"/>
      <point x="268" y="0" type="line"/>
    </contour>
  </outline>
</glyph>
<glyph name="Eth" format="2">
  <advance width="1472"/>
  <unicode hex="00D0"/>
  <anchor x="0" y="0" name="Anchor-11"/>
  <anchor x="743" y="727" name="Anchor-10"/>
  <anchor x="731" y="1448" name="Anchor-9"/>
  <anchor x="0" y="0" name="Anchor-8"/>
  <anchor x="745" y="0" name="Anchor-7"/>
  <outline>
    <contour>
      <point x="686" y="1454" type="line" smooth="yes"/>
      <point x="821" y="1454"/>
      <point x="1046" y="1380"/>
      <point x="1206" y="1248"/>
      <point x="1318" y="1066"/>
      <point x="1372" y="850"/>
      <point x="1372" y="729" type="qcurve" smooth="yes"/>
      <point x="1372" y="398"/>
      <point x="1000" y="0"/>
      <point x="686" y="0" type="qcurve" smooth="yes"/>
      <point x="211" y="0" type="line"/>
      <point x="211" y="700" type="line"/>
      <point x="72" y="700" type="line"/>
      <point x="72" y="762" type="line"/>
      <point x="211" y="762" type="line"/>
      <point x="211" y="1454" type="line"/>
    </contour>
    <contour>
      <point x="686" y="66" type="line" smooth="yes"/>
      <point x="834" y="66"/>
      <point x="1069" y="167"/>
      <point x="1220" y="346"/>
      <point x="1300" y="587"/>
      <point x="1300" y="729" type="qcurve" smooth="yes"/>
      <point x="1300" y="873"/>
      <point x="1218" y="1115"/>
      <point x="1065" y="1291"/>
      <point x="831" y="1389"/>
      <point x="686" y="1389" type="qcurve" smooth="yes"/>
      <point x="283" y="1389" type="line"/>
      <point x="283" y="762" type="line"/>
      <point x="662" y="762" type="line"/>
      <point x="662" y="700" type="line"/>
      <point x="283" y="700" type="line"/>
      <point x="283" y="66" type="line"/>
    </contour>
  </outline>
</glyph>
<glyph name="Ntilde" format="2">
  <advance width="1587"/>
  <unicode hex="00D1"/>
  <anchor x="0" y="0" name="Anchor-11"/>
  <anchor x="0" y="0" name="Anchor-10"/>
  <anchor x="803" y="1878" name="Anchor-9"/>
  <anchor x="0" y="0" name="Anchor-8"/>
  <anchor x="805" y="0" name="Anchor-7"/>
  <outline>
    <contour>
      <point x="664" y="1804" type="qcurve" smooth="yes"/>
      <point x="634" y="1804"/>
      <point x="588" y="1778"/>
      <point x="568" y="1740"/>
      <point x="559" y="1713"/>
      <point x="559" y="1706" type="qcurve"/>
      <point x="506" y="1706" type="line"/>
      <point x="506" y="1714"/>
      <point x="512" y="1744"/>
      <point x="532" y="1791"/>
      <point x="565" y="1831"/>
      <point x="626" y="1860"/>
      <point x="666" y="1860" type="qcurve" smooth="yes"/>
      <point x="721" y="1860"/>
      <point x="873" y="1780"/>
      <point x="924" y="1780" type="qcurve" smooth="yes"/>
      <point x="955" y="1780"/>
      <point x="1002" y="1799"/>
      <point x="1025" y="1825"/>
      <point x="1039" y="1856"/>
      <point x="1042" y="1873"/>
      <point x="1042" y="1878" type="qcurve"/>
      <point x="1098" y="1878" type="line"/>
      <point x="1098" y="1869"/>
      <point x="1092" y="1839"/>
      <point x="1069" y="1793"/>
      <point x="1033" y="1754"/>
      <point x="965" y="1726"/>
      <point x="922" y="1726" type="qcurve" smooth="yes"/>
      <point x="870" y="1726"/>
      <point x="776" y="1765"/>
      <point x="698" y="1804"/>
    </contour>
    <contour>
      <point x="268" y="1321" type="line"/>
      <point x="268" y="0" type="line"/>
      <point x="197" y="0" type="line"/>
      <point x="197" y="1454" type="line"/>
      <point x="254" y="1454" type="line"/>
      <point x="1319" y="113" type="line"/>
      <point x="1319" y="1454" type="line"/>
      <point x="1391" y="1454" type="line"/>
      <point x="1391" y="0" type="line"/>
      <point x="1317" y="0" type="line"/>
    </contour>
  </outline>
</glyph>
<glyph name="Otilde" format="2">
  <advance width="1546"/>
  <unicode hex="00D5"/>
  <anchor x="1040" y="1364" name="Anchor-11"/>
  <anchor x="774" y="727" name="Anchor-10"/>
  <anchor x="774" y="1878" name="Anchor-9"/>
  <anchor x="887" y="2" name="Anchor-8"/>
  <anchor x="774" y="0" name="Anchor-7"/>
  <outline>
    <contour>
      <point x="635" y="1804" type="qcurve" smooth="yes"/>
      <point x="605" y="1804"/>
      <point x="559" y="1778"/>
      <point x="539" y="1740"/>
      <point x="530" y="1713"/>
      <point x="530" y="1706" type="qcurve"/>
      <point x="477" y="1706" type="line"/>
      <point x="477" y="1714"/>
      <point x="483" y="1744"/>
      <point x="503" y="1791"/>
      <point x="536" y="1831"/>
      <point x="597" y="1860"/>
      <point x="637" y="1860" type="qcurve" smooth="yes"/>
      <point x="692" y="1860"/>
      <point x="844" y="1780"/>
      <point x="895" y="1780" type="qcurve" smooth="yes"/>
      <point x="926" y="1780"/>
      <point x="973" y="1799"/>
      <point x="997" y="1825"/>
      <point x="1011" y="1856"/>
      <point x="1014" y="1873"/>
      <point x="1014" y="1878" type="qcurve"/>
      <point x="1069" y="1878" type="line"/>
      <point x="1069" y="1869"/>
      <point x="1063" y="1839"/>
      <point x="1040" y="1793"/>
      <point x="1004" y="1754"/>
      <point x="936" y="1726"/>
      <point x="893" y="1726" type="qcurve" smooth="yes"/>
      <point x="841" y="1726"/>
      <point x="747" y="1765"/>
      <point x="669" y="1804"/>
    </contour>
    <contour>
      <point x="94" y="727" type="qcurve" smooth="yes"/>
      <point x="94" y="919"/>
      <point x="271" y="1257"/>
      <point x="587" y="1464"/>
      <point x="774" y="1464" type="qcurve" smooth="yes"/>
      <point x="920" y="1464"/>
      <point x="1178" y="1335"/>
      <point x="1352" y="1127"/>
      <point x="1452" y="863"/>
      <point x="1452" y="727" type="qcurve" smooth="yes"/>
      <point x="1452" y="582"/>
      <point x="1347" y="312"/>
      <point x="1168" y="111"/>
      <point x="914" y="-10"/>
      <point x="774" y="-10" type="qcurve" smooth="yes"/>
      <point x="627" y="-9"/>
      <point x="370" y="117"/>
      <point x="195" y="322"/>
      <point x="94" y="588"/>
    </contour>
    <contour>
      <point x="774" y="57" type="qcurve" smooth="yes"/>
      <point x="906" y="57"/>
      <point x="1137" y="173"/>
      <point x="1292" y="363"/>
      <point x="1380" y="603"/>
      <point x="1380" y="727" type="qcurve" smooth="yes"/>
      <point x="1380" y="856"/>
      <point x="1287" y="1100"/>
      <point x="1128" y="1285"/>
      <point x="900" y="1397"/>
      <point x="774" y="1397" type="qcurve" smooth="yes"/>
      <point x="642" y="1397"/>
      <point x="410" y="1281"/>
      <point x="255" y="1092"/>
      <point x="166" y="852"/>
      <point x="166" y="727" type="qcurve" smooth="yes"/>
      <point x="166" y="597"/>
      <point x="258" y="354"/>
      <point x="416" y="169"/>
      <point x="645" y="57"/>
    </contour>
  </outline>
</glyph>
<glyph name="multiply" format="2">
  <advance width="911"/>
  <unicode hex="00D7"/>
  <outline>
    <contour>
      <point x="772" y="287" type="line"/>
      <point x="725" y="240" type="line"/>
      <point x="455" y="508" type="line"/>
      <point x="186" y="240" type="line"/>
      <point x="141" y="289" type="line"/>
      <point x="408" y="555" type="line"/>
      <point x="141" y="823" type="line"/>
      <point x="188" y="870" type="line"/>
      <point x="455" y="602" type="line"/>
      <point x="725" y="872" type="line"/>
      <point x="770" y="823" type="line"/>
      <point x="502" y="555" type="line"/>
    </contour>
  </outline>
</glyph>
<glyph name="Yacute" format="2">
  <advance width="1318"/>
  <unicode hex="00DD"/>
  <anchor x="0" y="0" name="Anchor-11"/>
  <anchor x="0" y="0" name="Anchor-10"/>
  <anchor x="741" y="1878" name="Anchor-9"/>
  <anchor x="0" y="0" name="Anchor-8"/>
  <anchor x="659" y="0" name="Anchor-7"/>
  <outline>
    <contour>
      <point x="680" y="1690" type="line"/>
      <point x="631" y="1716" type="line"/>
      <point x="758" y="1878" type="line"/>
      <point x="850" y="1878" type="line"/>
    </contour>
    <contour>
      <point x="123" y="1454" type="line"/>
      <point x="657" y="629" type="line"/>
      <point x="1196" y="1454" type="line"/>
      <point x="1276" y="1454" type="line"/>
      <point x="694" y="557" type="line"/>
      <point x="694" y="0" type="line"/>
      <point x="623" y="0" type="line"/>
      <point x="623" y="561" type="line"/>
      <point x="43" y="1454" type="line"/>
    </contour>
  </outline>
</glyph>
<glyph name="Thorn" format="2">
  <advance width="1228"/>
  <unicode hex="00DE"/>
  <outline>
    <contour>
      <point x="1167" y="707" type="qcurve" smooth="yes"/>
      <point x="1167" y="621"/>
      <point x="1108" y="460"/>
      <point x="1006" y="335"/>
      <point x="853" y="260"/>
      <point x="766" y="260" type="qcurve" smooth="yes"/>
      <point x="268" y="260" type="line"/>
      <point x="268" y="0" type="line"/>
      <point x="197" y="0" type="line"/>
      <point x="197" y="1454" type="line"/>
      <point x="268" y="1454" type="line"/>
      <point x="268" y="1153" type="line"/>
      <point x="752" y="1153" type="line" smooth="yes"/>
      <point x="840" y="1153"/>
      <point x="997" y="1075"/>
      <point x="1104" y="949"/>
      <point x="1167" y="789"/>
    </contour>
    <contour>
      <point x="1098" y="707" type="qcurve" smooth="yes"/>
      <point x="1098" y="858"/>
      <point x="893" y="1085"/>
      <point x="750" y="1085" type="qcurve" smooth="yes"/>
      <point x="268" y="1085" type="line"/>
      <point x="268" y="326" type="line"/>
      <point x="764" y="326" type="line" smooth="yes"/>
      <point x="863" y="326"/>
      <point x="1019" y="439"/>
      <point x="1098" y="611"/>
    </contour>
  </outline>
</glyph>
<glyph name="germandbls" format="2">
  <advance width="1120"/>
  <unicode hex="00DF"/>
  <outline>
    <contour>
      <point x="475" y="53" type="line"/>
      <point x="707" y="58"/>
      <point x="961" y="247"/>
      <point x="961" y="420" type="qcurve" smooth="yes"/>
      <point x="961" y="586"/>
      <point x="741" y="791"/>
      <point x="563" y="791" type="qcurve" smooth="yes"/>
      <point x="528" y="791" type="line"/>
      <point x="528" y="856" type="line"/>
      <point x="561" y="856" type="line" smooth="yes"/>
      <point x="689" y="856"/>
      <point x="858" y="1009"/>
      <point x="858" y="1126" type="qcurve" smooth="yes"/>
      <point x="858" y="1245"/>
      <point x="682" y="1397"/>
      <point x="551" y="1397" type="qcurve" smooth="yes"/>
      <point x="405" y="1397"/>
      <point x="236" y="1200"/>
      <point x="236" y="1040" type="qcurve" smooth="yes"/>
      <point x="236" y="0" type="line"/>
      <point x="166" y="0" type="line"/>
      <point x="166" y="1047" type="line" smooth="yes"/>
      <point x="166" y="1232"/>
      <point x="382" y="1462"/>
      <point x="553" y="1462" type="qcurve" smooth="yes"/>
      <point x="712" y="1462"/>
      <point x="926" y="1278"/>
      <point x="926" y="1139" type="qcurve" smooth="yes"/>
      <point x="926" y="1029"/>
      <point x="788" y="847"/>
      <point x="688" y="827" type="qcurve"/>
      <point x="852" y="792"/>
      <point x="1032" y="577"/>
      <point x="1032" y="418" type="qcurve" smooth="yes"/>
      <point x="1032" y="219"/>
      <point x="741" y="-3"/>
      <point x="475" y="-12" type="qcurve"/>
    </contour>
  </outline>
</glyph>
<glyph name="atilde" format="2">
  <advance width="1085"/>
  <unicode hex="00E3"/>
  <anchor x="0" y="0" name="Anchor-11"/>
  <anchor x="0" y="0" name="Anchor-10"/>
  <anchor x="530" y="1495" name="Anchor-9"/>
  <anchor x="969" y="0" name="Anchor-8"/>
  <anchor x="563" y="0" name="Anchor-7"/>
  <outline>
    <contour>
      <point x="391" y="1421" type="qcurve" smooth="yes"/>
      <point x="361" y="1421"/>
      <point x="316" y="1395"/>
      <point x="296" y="1357"/>
      <point x="287" y="1330"/>
      <point x="287" y="1323" type="qcurve"/>
      <point x="233" y="1323" type="line"/>
      <point x="233" y="1331"/>
      <point x="239" y="1361"/>
      <point x="259" y="1408"/>
      <point x="292" y="1448"/>
      <point x="353" y="1477"/>
      <point x="393" y="1477" type="qcurve" smooth="yes"/>
      <point x="448" y="1477"/>
      <point x="600" y="1397"/>
      <point x="651" y="1397" type="qcurve" smooth="yes"/>
      <point x="682" y="1397"/>
      <point x="729" y="1416"/>
      <point x="753" y="1442"/>
      <point x="767" y="1473"/>
      <point x="770" y="1490"/>
      <point x="770" y="1495" type="qcurve"/>
      <point x="825" y="1495" type="line"/>
      <point x="825" y="1486"/>
      <point x="819" y="1456"/>
      <point x="796" y="1410"/>
      <point x="760" y="1371"/>
      <point x="692" y="1343"/>
      <point x="649" y="1343" type="qcurve" smooth="yes"/>
      <point x="597" y="1343"/>
      <point x="503" y="1382"/>
      <point x="425" y="1421"/>
    </contour>
    <contour>
      <point x="76" y="305" type="qcurve" smooth="yes"/>
      <point x="76" y="443"/>
      <point x="323" y="616"/>
      <point x="518" y="616" type="qcurve" smooth="yes"/>
      <point x="702" y="616"/>
      <point x="862" y="559" type="qcurve"/>
      <point x="862" y="672" type="line" smooth="yes"/>
      <point x="862" y="829"/>
      <point x="678" y="1018"/>
      <point x="526" y="1018" type="qcurve" smooth="yes"/>
      <point x="367" y="1018"/>
      <point x="184" y="889" type="qcurve"/>
      <point x="150" y="940" type="line"/>
      <point x="355" y="1081"/>
      <point x="530" y="1081" type="qcurve" smooth="yes"/>
      <point x="715" y="1081"/>
      <point x="932" y="858"/>
      <point x="932" y="668" type="qcurve" smooth="yes"/>
      <point x="932" y="106" type="line" smooth="yes"/>
      <point x="932" y="61"/>
      <point x="969" y="61" type="qcurve"/>
      <point x="969" y="0" type="line"/>
      <point x="940" y="-3"/>
      <point x="930" y="2" type="qcurve" smooth="yes"/>
      <point x="902" y="8"/>
      <point x="868" y="55"/>
      <point x="866" y="86" type="qcurve" smooth="yes"/>
      <point x="866" y="178" type="line"/>
      <point x="793" y="84"/>
      <point x="560" y="-20"/>
      <point x="426" y="-20" type="qcurve" smooth="yes"/>
      <point x="277" y="-20"/>
      <point x="76" y="168"/>
    </contour>
    <contour>
      <point x="825" y="213" type="qcurve"/>
      <point x="862" y="259"/>
      <point x="862" y="303" type="qcurve" smooth="yes"/>
      <point x="862" y="498" type="line"/>
      <point x="704" y="559"/>
      <point x="522" y="559" type="qcurve" smooth="yes"/>
      <point x="352" y="559"/>
      <point x="143" y="422"/>
      <point x="143" y="309" type="qcurve" smooth="yes"/>
      <point x="143" y="197"/>
      <point x="310" y="39"/>
      <point x="434" y="39" type="qcurve" smooth="yes"/>
      <point x="559" y="39"/>
      <point x="772" y="135"/>
    </contour>
  </outline>
</glyph>
<glyph name="icircumflex" format="2">
  <advance width="403"/>
  <unicode hex="00EE"/>
  <anchor x="0" y="0" name="Anchor-11"/>
  <anchor x="0" y="0" name="Anchor-10"/>
  <anchor x="201" y="1495" name="Anchor-9"/>
  <anchor x="0" y="0" name="Anchor-8"/>
  <anchor x="0" y="0" name="Anchor-7"/>
  <outline>
    <contour>
      <point x="-18" y="1337" type="line"/>
      <point x="174" y="1495" type="line"/>
      <point x="227" y="1495" type="line"/>
      <point x="422" y="1337" type="line"/>
      <point x="375" y="1307" type="line"/>
      <point x="201" y="1436" type="line"/>
      <point x="27" y="1307" type="line"/>
    </contour>
    <contour>
      <point x="166" y="0" type="line"/>
      <point x="166" y="1065" type="line"/>
      <point x="236" y="1065" type="line"/>
      <point x="236" y="0" type="line"/>
    </contour>
  </outline>
</glyph>
<glyph name="idieresis" format="2">
  <advance width="403"/>
  <unicode hex="00EF"/>
  <anchor x="0" y="0" name="Anchor-11"/>
  <anchor x="0" y="0" name="Anchor-10"/>
  <anchor x="201" y="1477" name="Anchor-9"/>
  <anchor x="0" y="0" name="Anchor-8"/>
  <anchor x="0" y="0" name="Anchor-7"/>
  <outline>
    <contour>
      <point x="39" y="1327" type="line"/>
      <point x="39" y="1495" type="line"/>
      <point x="102" y="1495" type="line"/>
      <point x="102" y="1327" type="line"/>
    </contour>
    <contour>
      <point x="297" y="1327" type="line"/>
      <point x="297" y="1495" type="line"/>
      <point x="360" y="1495" type="line"/>
      <point x="360" y="1327" type="line"/>
    </contour>
    <contour>
      <point x="166" y="0" type="line"/>
      <point x="166" y="1065" type="line"/>
      <point x="236" y="1065" type="line"/>
      <point x="236" y="0" type="line"/>
    </contour>
  </outline>
</glyph>
<glyph name="eth" format="2">
  <advance width="1220"/>
  <unicode hex="00F0"/>
  <outline>
    <contour>
      <point x="797" y="1305" type="line"/>
      <point x="896" y="1215"/>
      <point x="1029" y="1021"/>
      <point x="1095" y="818"/>
      <point x="1120" y="634"/>
      <point x="1120" y="522" type="qcurve" smooth="yes"/>
      <point x="1120" y="411"/>
      <point x="1038" y="209"/>
      <point x="899" y="65"/>
      <point x="708" y="-20"/>
      <point x="604" y="-20" type="qcurve" smooth="yes"/>
      <point x="466" y="-20"/>
      <point x="231" y="114"/>
      <point x="94" y="342"/>
      <point x="94" y="608"/>
      <point x="231" y="838"/>
      <point x="464" y="973"/>
      <point x="600" y="973" type="qcurve" smooth="yes"/>
      <point x="750" y="973"/>
      <point x="995" y="817"/>
      <point x="1051" y="692" type="qcurve"/>
      <point x="1031" y="853"/>
      <point x="895" y="1137"/>
      <point x="745" y="1274" type="qcurve"/>
      <point x="498" y="1114" type="line"/>
      <point x="469" y="1153" type="line"/>
      <point x="709" y="1305" type="line"/>
      <point x="584" y="1409"/>
      <point x="432" y="1495" type="qcurve"/>
      <point x="532" y="1495" type="line"/>
      <point x="665" y="1418"/>
      <point x="760" y="1335" type="qcurve"/>
      <point x="952" y="1460" type="line"/>
      <point x="979" y="1421" type="line"/>
    </contour>
    <contour>
      <point x="604" y="45" type="qcurve" smooth="yes"/>
      <point x="786" y="45"/>
      <point x="1051" y="317"/>
      <point x="1051" y="502" type="qcurve" smooth="yes"/>
      <point x="1051" y="669"/>
      <point x="788" y="909"/>
      <point x="608" y="909" type="qcurve" smooth="yes"/>
      <point x="427" y="909"/>
      <point x="166" y="652"/>
      <point x="166" y="473" type="qcurve" smooth="yes"/>
      <point x="166" y="296"/>
      <point x="423" y="45"/>
    </contour>
  </outline>
</glyph>
<glyph name="ntilde" format="2">
  <advance width="1167"/>
  <unicode hex="00F1"/>
  <anchor x="0" y="0" name="Anchor-11"/>
  <anchor x="0" y="0" name="Anchor-10"/>
  <anchor x="584" y="1495" name="Anchor-9"/>
  <anchor x="0" y="0" name="Anchor-8"/>
  <anchor x="580" y="0" name="Anchor-7"/>
  <outline>
    <contour>
      <point x="444" y="1421" type="qcurve" smooth="yes"/>
      <point x="414" y="1421"/>
      <point x="369" y="1395"/>
      <point x="349" y="1357"/>
      <point x="340" y="1330"/>
      <point x="340" y="1323" type="qcurve"/>
      <point x="287" y="1323" type="line"/>
      <point x="287" y="1331"/>
      <point x="292" y="1361"/>
      <point x="313" y="1409"/>
      <point x="345" y="1448"/>
      <point x="406" y="1477"/>
      <point x="446" y="1477" type="qcurve" smooth="yes"/>
      <point x="501" y="1477"/>
      <point x="654" y="1397"/>
      <point x="705" y="1397" type="qcurve" smooth="yes"/>
      <point x="736" y="1397"/>
      <point x="783" y="1416"/>
      <point x="806" y="1442"/>
      <point x="820" y="1473"/>
      <point x="823" y="1490"/>
      <point x="823" y="1495" type="qcurve"/>
      <point x="879" y="1495" type="line"/>
      <point x="879" y="1486"/>
      <point x="872" y="1456"/>
      <point x="849" y="1410"/>
      <point x="813" y="1371"/>
      <point x="745" y="1343"/>
      <point x="702" y="1343" type="qcurve" smooth="yes"/>
      <point x="650" y="1343"/>
      <point x="556" y="1382"/>
      <point x="478" y="1421"/>
    </contour>
    <contour>
      <point x="1014" y="0" type="line"/>
      <point x="944" y="0" type="line"/>
      <point x="944" y="594" type="line" smooth="yes"/>
      <point x="944" y="812"/>
      <point x="819" y="1016"/>
      <point x="684" y="1016" type="qcurve" smooth="yes"/>
      <point x="538" y="1016"/>
      <point x="278" y="815"/>
      <point x="236" y="666" type="qcurve"/>
      <point x="236" y="0" type="line"/>
      <point x="166" y="0" type="line"/>
      <point x="166" y="1065" type="line"/>
      <point x="233" y="1065" type="line"/>
      <point x="233" y="799" type="line"/>
      <point x="298" y="925"/>
      <point x="554" y="1081"/>
      <point x="696" y="1081" type="qcurve" smooth="yes"/>
      <point x="861" y="1081"/>
      <point x="1014" y="843"/>
      <point x="1014" y="602" type="qcurve" smooth="yes"/>
    </contour>
  </outline>
</glyph>
<glyph name="divide" format="2">
  <advance width="1112"/>
  <unicode hex="00F7"/>
  <outline>
    <contour>
      <point x="524" y="797" type="line"/>
      <point x="524" y="944" type="line"/>
      <point x="588" y="944" type="line"/>
      <point x="588" y="797" type="line"/>
    </contour>
    <contour>
      <point x="145" y="530" type="line"/>
      <point x="145" y="594" type="line"/>
      <point x="971" y="594" type="line"/>
      <point x="971" y="530" type="line"/>
    </contour>
    <contour>
      <point x="524" y="178" type="line"/>
      <point x="524" y="324" type="line"/>
      <point x="588" y="324" type="line"/>
      <point x="588" y="178" type="line"/>
    </contour>
  </outline>
</glyph>
<glyph name="ucircumflex" format="2">
  <advance width="1189"/>
  <unicode hex="00FB"/>
  <anchor x="1114" y="975" name="Anchor-11"/>
  <anchor x="0" y="0" name="Anchor-10"/>
  <anchor x="582" y="1495" name="Anchor-9"/>
  <anchor x="1057" y="0" name="Anchor-8"/>
  <anchor x="590" y="2" name="Anchor-7"/>
  <outline>
    <contour>
      <point x="362" y="1337" type="line"/>
      <point x="555" y="1495" type="line"/>
      <point x="608" y="1495" type="line"/>
      <point x="803" y="1337" type="line"/>
      <point x="756" y="1307" type="line"/>
      <point x="582" y="1436" type="line"/>
      <point x="408" y="1307" type="line"/>
    </contour>
    <contour>
      <point x="156" y="459" type="qcurve" smooth="yes"/>
      <point x="156" y="1065" type="line"/>
      <point x="225" y="1065" type="line"/>
      <point x="225" y="467" type="line" smooth="yes"/>
      <point x="225" y="253"/>
      <point x="365" y="45"/>
      <point x="655" y="45"/>
      <point x="903" y="237"/>
      <point x="950" y="389" type="qcurve"/>
      <point x="950" y="1065" type="line"/>
      <point x="1020" y="1065" type="line"/>
      <point x="1020" y="106" type="line" smooth="yes"/>
      <point x="1020" y="61"/>
      <point x="1057" y="61" type="qcurve"/>
      <point x="1057" y="0" type="line"/>
      <point x="1030" y="-3"/>
      <point x="1018" y="2" type="qcurve" smooth="yes"/>
      <point x="992" y="8"/>
      <point x="956" y="56"/>
      <point x="956" y="86" type="qcurve" smooth="yes"/>
      <point x="954" y="262" type="line"/>
      <point x="885" y="132"/>
      <point x="639" y="-20"/>
      <point x="496" y="-20" type="qcurve" smooth="yes"/>
      <point x="329" y="-20"/>
      <point x="156" y="223"/>
    </contour>
  </outline>
</glyph>
<glyph name="udieresis" format="2">
  <advance width="1189"/>
  <unicode hex="00FC"/>
  <anchor x="1114" y="975" name="Anchor-11"/>
  <anchor x="0" y="0" name="Anchor-10"/>
  <anchor x="582" y="1477" name="Anchor-9"/>
  <anchor x="1057" y="0" name="Anchor-8"/>
  <anchor x="590" y="2" name="Anchor-7"/>
  <outline>
    <contour>
      <point x="420" y="1327" type="line"/>
      <point x="420" y="1495" type="line"/>
      <point x="483" y="1495" type="line"/>
      <point x="483" y="1327" type="line"/>
    </contour>
    <contour>
      <point x="678" y="1327" type="line"/>
      <point x="678" y="1495" type="line"/>
      <point x="741" y="1495" type="line"/>
      <point x="741" y="1327" type="line"/>
    </contour>
    <contour>
      <point x="156" y="459" type="qcurve" smooth="yes"/>
      <point x="156" y="1065" type="line"/>
      <point x="225" y="1065" type="line"/>
      <point x="225" y="467" type="line" smooth="yes"/>
      <point x="225" y="253"/>
      <point x="365" y="45"/>
      <point x="655" y="45"/>
      <point x="903" y="237"/>
      <point x="950" y="389" type="qcurve"/>
      <point x="950" y="1065" type="line"/>
      <point x="1020" y="1065" type="line"/>
      <point x="1020" y="106" type="line" smooth="yes"/>
      <point x="1020" y="61"/>
      <point x="1057" y="61" type="qcurve"/>
      <point x="1057" y="0" type="line"/>
      <point x="1030" y="-3"/>
      <point x="1018" y="2" type="qcurve" smooth="yes"/>
      <point x="992" y="8"/>
      <point x="956" y="56"/>
      <point x="956" y="86" type="qcurve" smooth="yes"/>
      <point x="954" y="262" type="line"/>
      <point x="885" y="132"/>
      <point x="639" y="-20"/>
      <point x="496" y="-20" type="qcurve" smooth="yes"/>
      <point x="329" y="-20"/>
      <point x="156" y="223"/>
    </contour>
  </outline>
</glyph>
<glyph name="thorn" format="2">
  <advance width="1234"/>
  <unicode hex="00FE"/>
  <outline>
    <contour>
      <point x="631" y="-25" type="qcurve" smooth="yes"/>
      <point x="512" y="-25"/>
      <point x="297" y="104"/>
      <point x="238" y="201" type="qcurve"/>
      <point x="238" y="-436" type="line"/>
      <point x="166" y="-436" type="line"/>
      <point x="166" y="1454" type="line"/>
      <point x="238" y="1454" type="line"/>
      <point x="238" y="838" type="line"/>
      <point x="409" y="1081"/>
      <point x="649" y="1081" type="qcurve" smooth="yes"/>
      <point x="739" y="1081"/>
      <point x="900" y="1017"/>
      <point x="1017" y="908"/>
      <point x="1102" y="766"/>
      <point x="1145" y="608"/>
      <point x="1145" y="528" type="qcurve" smooth="yes"/>
      <point x="1142" y="383"/>
      <point x="1008" y="130"/>
      <point x="772" y="-25"/>
    </contour>
    <contour>
      <point x="647" y="1016" type="qcurve" smooth="yes"/>
      <point x="512" y="1016"/>
      <point x="301" y="851"/>
      <point x="238" y="725" type="qcurve"/>
      <point x="238" y="348" type="line" smooth="yes"/>
      <point x="238" y="271"/>
      <point x="368" y="126"/>
      <point x="549" y="43"/>
      <point x="629" y="43" type="qcurve" smooth="yes"/>
      <point x="724" y="43"/>
      <point x="892" y="126"/>
      <point x="1008" y="262"/>
      <point x="1075" y="437"/>
      <point x="1075" y="528" type="qcurve" smooth="yes"/>
      <point x="1075" y="654"/>
      <point x="969" y="877"/>
      <point x="770" y="1016"/>
    </contour>
  </outline>
</glyph>
<glyph name="Amacron" format="2">
  <advance width="1382"/>
  <unicode hex="0100"/>
  <anchor x="0" y="0" name="Anchor-11"/>
  <anchor x="0" y="0" name="Anchor-10"/>
  <anchor x="690" y="1831" name="Anchor-9"/>
  <anchor x="1346" y="0" name="Anchor-8"/>
  <anchor x="711" y="0" name="Anchor-7"/>
  <outline>
    <contour>
      <point x="401" y="1774" type="line"/>
      <point x="401" y="1831" type="line"/>
      <point x="981" y="1831" type="line"/>
      <point x="981" y="1774" type="line"/>
    </contour>
    <contour>
      <point x="659" y="1454" type="line"/>
      <point x="721" y="1454" type="line"/>
      <point x="1346" y="0" type="line"/>
      <point x="1270" y="0" type="line"/>
      <point x="1055" y="502" type="line"/>
      <point x="326" y="502" type="line"/>
      <point x="111" y="0" type="line"/>
      <point x="33" y="0" type="line"/>
    </contour>
    <contour>
      <point x="1032" y="563" type="line"/>
      <point x="690" y="1364" type="line"/>
      <point x="346" y="563" type="line"/>
    </contour>
  </outline>
</glyph>
<glyph name="Aogonek" format="2">
  <advance width="1382"/>
  <unicode hex="0104"/>
  <anchor x="0" y="0" name="Anchor-11"/>
  <anchor x="0" y="0" name="Anchor-10"/>
  <anchor x="690" y="1448" name="Anchor-9"/>
  <anchor x="1346" y="0" name="Anchor-8"/>
  <anchor x="711" y="0" name="Anchor-7"/>
  <outline>
    <contour>
      <point x="1188" y="-199" type="qcurve" smooth="yes"/>
      <point x="1188" y="-237"/>
      <point x="1256" y="-280"/>
      <point x="1337" y="-295" type="qcurve"/>
      <point x="1311" y="-346" type="line"/>
      <point x="1128" y="-319"/>
      <point x="1128" y="-207" type="qcurve" smooth="yes"/>
      <point x="1128" y="-112"/>
      <point x="1270" y="0" type="qcurve"/>
      <point x="1055" y="502" type="line"/>
      <point x="326" y="502" type="line"/>
      <point x="111" y="0" type="line"/>
      <point x="33" y="0" type="line"/>
      <point x="659" y="1454" type="line"/>
      <point x="721" y="1454" type="line"/>
      <point x="1346" y="0" type="line"/>
      <point x="1261" y="-65"/>
      <point x="1188" y="-156"/>
    </contour>
    <contour>
      <point x="346" y="563" type="line"/>
      <point x="1032" y="563" type="line"/>
      <point x="690" y="1364" type="line"/>
    </contour>
  </outline>
</glyph>
<glyph name="ccircumflex" format="2">
  <advance width="1107"/>
  <unicode hex="0109"/>
  <anchor x="0" y="0" name="Anchor-11"/>
  <anchor x="0" y="0" name="Anchor-10"/>
  <anchor x="602" y="1495" name="Anchor-9"/>
  <anchor x="0" y="0" name="Anchor-8"/>
  <anchor x="610" y="0" name="Anchor-7"/>
  <outline>
    <contour>
      <point x="383" y="1337" type="line"/>
      <point x="575" y="1495" type="line"/>
      <point x="629" y="1495" type="line"/>
      <point x="823" y="1337" type="line"/>
      <point x="776" y="1307" type="line"/>
      <point x="602" y="1436" type="line"/>
      <point x="428" y="1307" type="line"/>
    </contour>
    <contour>
      <point x="610" y="-20" type="qcurve" smooth="yes"/>
      <point x="504" y="-20"/>
      <point x="311" y="69"/>
      <point x="172" y="219"/>
      <point x="90" y="425"/>
      <point x="90" y="537" type="qcurve" smooth="yes"/>
      <point x="90" y="688"/>
      <point x="224" y="937"/>
      <point x="462" y="1081"/>
      <point x="608" y="1081" type="qcurve" smooth="yes"/>
      <point x="746" y="1081"/>
      <point x="964" y="953"/>
      <point x="1018" y="840" type="qcurve"/>
      <point x="950" y="815" type="line"/>
      <point x="899" y="909"/>
      <point x="714" y="1016"/>
      <point x="602" y="1016" type="qcurve" smooth="yes"/>
      <point x="416" y="1016"/>
      <point x="160" y="739"/>
      <point x="160" y="537" type="qcurve" smooth="yes"/>
      <point x="160" y="336"/>
      <point x="423" y="45"/>
      <point x="604" y="45" type="qcurve" smooth="yes"/>
      <point x="723" y="45"/>
      <point x="938" y="171"/>
      <point x="963" y="256" type="qcurve"/>
      <point x="1032" y="236" type="line"/>
      <point x="994" y="126"/>
      <point x="753" y="-20"/>
    </contour>
  </outline>
</glyph>
<glyph name="Dcaron" format="2">
  <advance width="1458"/>
  <unicode hex="010E"/>
  <anchor x="0" y="0" name="Anchor-11"/>
  <anchor x="729" y="727" name="Anchor-10"/>
  <anchor x="717" y="1878" name="Anchor-9"/>
  <anchor x="0" y="0" name="Anchor-8"/>
  <anchor x="731" y="0" name="Anchor-7"/>
  <outline>
    <contour>
      <point x="543" y="1878" type="line"/>
      <point x="717" y="1749" type="line"/>
      <point x="891" y="1878" type="line"/>
      <point x="938" y="1849" type="line"/>
      <point x="743" y="1690" type="line"/>
      <point x="690" y="1690" type="line"/>
      <point x="498" y="1849" type="line"/>
    </contour>
    <contour>
      <point x="197" y="0" type="line"/>
      <point x="197" y="1454" type="line"/>
      <point x="672" y="1454" type="line" smooth="yes"/>
      <point x="807" y="1454"/>
      <point x="1032" y="1380"/>
      <point x="1192" y="1248"/>
      <point x="1304" y="1066"/>
      <point x="1358" y="850"/>
      <point x="1358" y="729" type="qcurve" smooth="yes"/>
      <point x="1358" y="398"/>
      <point x="986" y="0"/>
      <point x="672" y="0" type="qcurve" smooth="yes"/>
    </contour>
    <contour>
      <point x="672" y="1389" type="qcurve" smooth="yes"/>
      <point x="268" y="1389" type="line"/>
      <point x="268" y="66" type="line"/>
      <point x="672" y="66" type="line" smooth="yes"/>
      <point x="820" y="66"/>
      <point x="1055" y="167"/>
      <point x="1206" y="346"/>
      <point x="1286" y="587"/>
      <point x="1286" y="729" type="qcurve" smooth="yes"/>
      <point x="1286" y="873"/>
      <point x="1204" y="1115"/>
      <point x="1051" y="1291"/>
      <point x="817" y="1389"/>
    </contour>
  </outline>
</glyph>
<glyph name="dcroat" format="2">
  <advance width="1247"/>
  <unicode hex="0111"/>
  <anchor x="1167" y="1065" name="Anchor-11"/>
  <anchor x="625" y="532" name="Anchor-10"/>
  <anchor x="625" y="1065" name="Anchor-9"/>
  <anchor x="0" y="0" name="Anchor-8"/>
  <anchor x="625" y="0" name="Anchor-7"/>
  <outline>
    <contour>
      <point x="1229" y="1286" type="line"/>
      <point x="1077" y="1286" type="line"/>
      <point x="1077" y="106" type="line" smooth="yes"/>
      <point x="1077" y="61"/>
      <point x="1114" y="61" type="qcurve"/>
      <point x="1114" y="0" type="line"/>
      <point x="1092" y="-3"/>
      <point x="1077" y="2" type="qcurve" smooth="yes"/>
      <point x="1048" y="9"/>
      <point x="1012" y="58"/>
      <point x="1012" y="88" type="qcurve" smooth="yes"/>
      <point x="1012" y="217" type="line"/>
      <point x="946" y="111"/>
      <point x="721" y="-20"/>
      <point x="602" y="-20" type="qcurve" smooth="yes"/>
      <point x="458" y="-20"/>
      <point x="220" y="139"/>
      <point x="90" y="390"/>
      <point x="90" y="528" type="qcurve" smooth="yes"/>
      <point x="90" y="637"/>
      <point x="165" y="840"/>
      <point x="294" y="991"/>
      <point x="478" y="1081"/>
      <point x="582" y="1081" type="qcurve" smooth="yes"/>
      <point x="717" y="1081"/>
      <point x="940" y="935"/>
      <point x="1008" y="823" type="qcurve"/>
      <point x="1008" y="1286" type="line"/>
      <point x="760" y="1286" type="line"/>
      <point x="760" y="1343" type="line"/>
      <point x="1008" y="1343" type="line"/>
      <point x="1008" y="1495" type="line"/>
      <point x="1077" y="1495" type="line"/>
      <point x="1077" y="1343" type="line"/>
      <point x="1229" y="1343" type="line"/>
    </contour>
    <contour>
      <point x="1008" y="352" type="qcurve"/>
      <point x="1008" y="719" type="line"/>
      <point x="964" y="841"/>
      <point x="717" y="1016"/>
      <point x="592" y="1016" type="qcurve" smooth="yes"/>
      <point x="497" y="1016"/>
      <point x="333" y="932"/>
      <point x="224" y="795"/>
      <point x="162" y="620"/>
      <point x="162" y="528" type="qcurve" smooth="yes"/>
      <point x="162" y="401"/>
      <point x="280" y="179"/>
      <point x="488" y="45"/>
      <point x="610" y="45" type="qcurve" smooth="yes"/>
      <point x="691" y="45"/>
      <point x="869" y="127"/>
      <point x="1001" y="273"/>
    </contour>
  </outline>
</glyph>
<glyph name="Emacron" format="2">
  <advance width="1259"/>
  <unicode hex="0112"/>
  <anchor x="0" y="0" name="Anchor-11"/>
  <anchor x="0" y="0" name="Anchor-10"/>
  <anchor x="700" y="1831" name="Anchor-9"/>
  <anchor x="1157" y="0" name="Anchor-8"/>
  <anchor x="700" y="0" name="Anchor-7"/>
  <outline>
    <contour>
      <point x="412" y="1774" type="line"/>
      <point x="412" y="1831" type="line"/>
      <point x="991" y="1831" type="line"/>
      <point x="991" y="1774" type="line"/>
    </contour>
    <contour>
      <point x="1157" y="66" type="line"/>
      <point x="1157" y="0" type="line"/>
      <point x="197" y="0" type="line"/>
      <point x="197" y="1454" type="line"/>
      <point x="1139" y="1454" type="line"/>
      <point x="1139" y="1389" type="line"/>
      <point x="268" y="1389" type="line"/>
      <point x="268" y="776" type="line"/>
      <point x="1030" y="776" type="line"/>
      <point x="1030" y="711" type="line"/>
      <point x="268" y="711" type="line"/>
      <point x="268" y="66" type="line"/>
    </contour>
  </outline>
</glyph>
<glyph name="Edot" format="2">
  <advance width="1259"/>
  <unicode hex="0116"/>
  <anchor x="0" y="0" name="Anchor-11"/>
  <anchor x="0" y="0" name="Anchor-10"/>
  <anchor x="700" y="1878" name="Anchor-9"/>
  <anchor x="1157" y="0" name="Anchor-8"/>
  <anchor x="700" y="0" name="Anchor-7"/>
  <outline>
    <contour>
      <point x="668" y="1708" type="line"/>
      <point x="668" y="1878" type="line"/>
      <point x="733" y="1878" type="line"/>
      <point x="733" y="1708" type="line"/>
    </contour>
    <contour>
      <point x="1157" y="66" type="line"/>
      <point x="1157" y="0" type="line"/>
      <point x="197" y="0" type="line"/>
      <point x="197" y="1454" type="line"/>
      <point x="1139" y="1454" type="line"/>
      <point x="1139" y="1389" type="line"/>
      <point x="268" y="1389" type="line"/>
      <point x="268" y="776" type="line"/>
      <point x="1030" y="776" type="line"/>
      <point x="1030" y="711" type="line"/>
      <point x="268" y="711" type="line"/>
      <point x="268" y="66" type="line"/>
    </contour>
  </outline>
</glyph>
<glyph name="Eogonek" format="2">
  <advance width="1259"/>
  <unicode hex="0118"/>
  <anchor x="0" y="0" name="Anchor-11"/>
  <anchor x="0" y="0" name="Anchor-10"/>
  <anchor x="700" y="1448" name="Anchor-9"/>
  <anchor x="1157" y="0" name="Anchor-8"/>
  <anchor x="700" y="0" name="Anchor-7"/>
  <outline>
    <contour>
      <point x="1157" y="0" type="line"/>
      <point x="1072" y="-65"/>
      <point x="999" y="-156"/>
      <point x="999" y="-199" type="qcurve" smooth="yes"/>
      <point x="999" y="-237"/>
      <point x="1068" y="-280"/>
      <point x="1149" y="-295" type="qcurve"/>
      <point x="1122" y="-346" type="line"/>
      <point x="1024" y="-332"/>
      <point x="940" y="-261"/>
      <point x="940" y="-207" type="qcurve" smooth="yes"/>
      <point x="940" y="-112"/>
      <point x="1079" y="0" type="qcurve"/>
      <point x="197" y="0" type="line"/>
      <point x="197" y="1454" type="line"/>
      <point x="1139" y="1454" type="line"/>
      <point x="1139" y="1389" type="line"/>
      <point x="268" y="1389" type="line"/>
      <point x="268" y="776" type="line"/>
      <point x="1030" y="776" type="line"/>
      <point x="1030" y="711" type="line"/>
      <point x="268" y="711" type="line"/>
      <point x="268" y="66" type="line"/>
      <point x="1157" y="66" type="line"/>
    </contour>
  </outline>
</glyph>
<glyph name="ecaron" format="2">
  <advance width="1185"/>
  <unicode hex="011B"/>
  <anchor x="0" y="0" name="Anchor-11"/>
  <anchor x="0" y="0" name="Anchor-10"/>
  <anchor x="600" y="1495" name="Anchor-9"/>
  <anchor x="743" y="0" name="Anchor-8"/>
  <anchor x="608" y="0" name="Anchor-7"/>
  <outline>
    <contour>
      <point x="426" y="1495" type="line"/>
      <point x="600" y="1366" type="line"/>
      <point x="774" y="1495" type="line"/>
      <point x="821" y="1466" type="line"/>
      <point x="627" y="1307" type="line"/>
      <point x="573" y="1307" type="line"/>
      <point x="381" y="1466" type="line"/>
    </contour>
    <contour>
      <point x="608" y="-20" type="qcurve" smooth="yes"/>
      <point x="502" y="-20"/>
      <point x="309" y="70"/>
      <point x="171" y="220"/>
      <point x="90" y="426"/>
      <point x="90" y="539" type="qcurve" smooth="yes"/>
      <point x="90" y="649"/>
      <point x="169" y="850"/>
      <point x="305" y="995"/>
      <point x="494" y="1081"/>
      <point x="600" y="1081" type="qcurve" smooth="yes"/>
      <point x="708" y="1081"/>
      <point x="900" y="994"/>
      <point x="1037" y="846"/>
      <point x="1117" y="643"/>
      <point x="1118" y="532" type="qcurve" smooth="yes"/>
      <point x="1118" y="510"/>
      <point x="1116" y="500" type="qcurve"/>
      <point x="162" y="500" type="line"/>
      <point x="177" y="305"/>
      <point x="435" y="39"/>
      <point x="612" y="39" type="qcurve" smooth="yes"/>
      <point x="729" y="39"/>
      <point x="934" y="159"/>
      <point x="977" y="254" type="qcurve"/>
      <point x="1040" y="238" type="line"/>
      <point x="996" y="126"/>
      <point x="751" y="-20"/>
    </contour>
    <contour>
      <point x="160" y="559" type="qcurve"/>
      <point x="1049" y="559" type="line"/>
      <point x="1036" y="760"/>
      <point x="782" y="1020"/>
      <point x="422" y="1020"/>
      <point x="170" y="758"/>
    </contour>
  </outline>
</glyph>
<glyph name="gbreve" format="2">
  <advance width="1243"/>
  <unicode hex="011F"/>
  <anchor x="0" y="0" name="Anchor-11"/>
  <anchor x="0" y="0" name="Anchor-10"/>
  <anchor x="616" y="1370" name="Anchor-9"/>
  <anchor x="0" y="0" name="Anchor-8"/>
  <anchor x="0" y="0" name="Anchor-7"/>
  <outline>
    <contour>
      <point x="731" y="1495" type="qcurve"/>
      <point x="782" y="1495" type="line"/>
      <point x="782" y="1425"/>
      <point x="682" y="1323"/>
      <point x="616" y="1323" type="qcurve" smooth="yes"/>
      <point x="548" y="1323"/>
      <point x="451" y="1425"/>
      <point x="451" y="1495" type="qcurve"/>
      <point x="504" y="1495" type="line"/>
      <point x="504" y="1447"/>
      <point x="573" y="1368"/>
      <point x="616" y="1368" type="qcurve" smooth="yes"/>
      <point x="657" y="1368"/>
      <point x="725" y="1443"/>
    </contour>
    <contour>
      <point x="90" y="528" type="qcurve" smooth="yes"/>
      <point x="90" y="673"/>
      <point x="214" y="925"/>
      <point x="444" y="1081"/>
      <point x="586" y="1081" type="qcurve" smooth="yes"/>
      <point x="832" y="1081"/>
      <point x="1012" y="823" type="qcurve"/>
      <point x="1012" y="1065" type="line"/>
      <point x="1077" y="1065" type="line"/>
      <point x="1077" y="-33" type="line" smooth="yes"/>
      <point x="1077" y="-137"/>
      <point x="998" y="-301"/>
      <point x="862" y="-404"/>
      <point x="690" y="-457"/>
      <point x="592" y="-457" type="qcurve" smooth="yes"/>
      <point x="414" y="-457"/>
      <point x="195" y="-328"/>
      <point x="127" y="-207" type="qcurve"/>
      <point x="180" y="-178" type="line"/>
      <point x="240" y="-287"/>
      <point x="459" y="-395"/>
      <point x="592" y="-395" type="qcurve" smooth="yes"/>
      <point x="708" y="-395"/>
      <point x="893" y="-316"/>
      <point x="1008" y="-149"/>
      <point x="1008" y="-33" type="qcurve" smooth="yes"/>
      <point x="1008" y="217" type="line"/>
      <point x="941" y="112"/>
      <point x="717" y="-18"/>
      <point x="598" y="-18" type="qcurve" smooth="yes"/>
      <point x="456" y="-18"/>
      <point x="219" y="141"/>
      <point x="90" y="391"/>
    </contour>
    <contour>
      <point x="1008" y="352" type="qcurve"/>
      <point x="1008" y="719" type="line"/>
      <point x="959" y="848"/>
      <point x="723" y="1016"/>
      <point x="592" y="1016" type="qcurve" smooth="yes"/>
      <point x="494" y="1016"/>
      <point x="328" y="929"/>
      <point x="221" y="789"/>
      <point x="162" y="617"/>
      <point x="162" y="528" type="qcurve" smooth="yes"/>
      <point x="162" y="401"/>
      <point x="280" y="179"/>
      <point x="488" y="45"/>
      <point x="610" y="45" type="qcurve" smooth="yes"/>
      <point x="702" y="45"/>
      <point x="883" y="138"/>
      <point x="1000" y="280"/>
    </contour>
  </outline>
</glyph>
<glyph name="Gcedilla" format="2">
  <advance width="1472"/>
  <unicode hex="0122"/>
  <anchor x="0" y="0" name="Anchor-11"/>
  <anchor x="0" y="0" name="Anchor-10"/>
  <anchor x="758" y="1448" name="Anchor-9"/>
  <anchor x="0" y="0" name="Anchor-8"/>
  <anchor x="780" y="0" name="Anchor-7"/>
  <outline>
    <contour>
      <point x="950" y="698" type="line"/>
      <point x="1352" y="698" type="line"/>
      <point x="1352" y="0" type="line"/>
      <point x="1286" y="0" type="line"/>
      <point x="1286" y="238" type="line"/>
      <point x="1069" y="-10"/>
      <point x="778" y="-10" type="qcurve" smooth="yes"/>
      <point x="633" y="-10"/>
      <point x="374" y="119"/>
      <point x="197" y="328"/>
      <point x="94" y="592"/>
      <point x="94" y="727" type="qcurve" smooth="yes"/>
      <point x="94" y="870"/>
      <point x="195" y="1138"/>
      <point x="368" y="1341"/>
      <point x="619" y="1464"/>
      <point x="760" y="1464" type="qcurve" smooth="yes"/>
      <point x="1156" y="1464"/>
      <point x="1315" y="1147" type="qcurve"/>
      <point x="1253" y="1116" type="line"/>
      <point x="1106" y="1397"/>
      <point x="758" y="1397" type="qcurve" smooth="yes"/>
      <point x="626" y="1397"/>
      <point x="399" y="1281"/>
      <point x="250" y="1092"/>
      <point x="166" y="852"/>
      <point x="166" y="727" type="qcurve" smooth="yes"/>
      <point x="166" y="552"/>
      <point x="329" y="244"/>
      <point x="614" y="57"/>
      <point x="782" y="57" type="qcurve" smooth="yes"/>
      <point x="1059" y="57"/>
      <point x="1286" y="322" type="qcurve"/>
      <point x="1286" y="637" type="line"/>
      <point x="950" y="637" type="line"/>
    </contour>
    <contour>
      <point x="737" y="-233" type="line"/>
      <point x="737" y="-102" type="line"/>
      <point x="813" y="-102" type="line"/>
      <point x="813" y="-233" type="line"/>
      <point x="778" y="-360" type="line"/>
      <point x="737" y="-360" type="line"/>
      <point x="762" y="-233" type="line"/>
    </contour>
  </outline>
</glyph>
<glyph name="Hcircumflex" format="2">
  <advance width="1501"/>
  <unicode hex="0124"/>
  <anchor x="0" y="0" name="Anchor-11"/>
  <anchor x="752" y="727" name="Anchor-10"/>
  <anchor x="754" y="1878" name="Anchor-9"/>
  <anchor x="0" y="0" name="Anchor-8"/>
  <anchor x="752" y="0" name="Anchor-7"/>
  <outline>
    <contour>
      <point x="535" y="1720" type="line"/>
      <point x="727" y="1878" type="line"/>
      <point x="780" y="1878" type="line"/>
      <point x="975" y="1720" type="line"/>
      <point x="928" y="1690" type="line"/>
      <point x="754" y="1819" type="line"/>
      <point x="580" y="1690" type="line"/>
    </contour>
    <contour>
      <point x="1305" y="1454" type="line"/>
      <point x="1305" y="0" type="line"/>
      <point x="1235" y="0" type="line"/>
      <point x="1235" y="711" type="line"/>
      <point x="268" y="711" type="line"/>
      <point x="268" y="0" type="line"/>
      <point x="197" y="0" type="line"/>
      <point x="197" y="1454" type="line"/>
      <point x="268" y="1454" type="line"/>
      <point x="268" y="776" type="line"/>
      <point x="1235" y="776" type="line"/>
      <point x="1235" y="1454" type="line"/>
    </contour>
  </outline>
</glyph>
<glyph name="hcircumflex" format="2">
  <advance width="1167"/>
  <unicode hex="0125"/>
  <anchor x="0" y="0" name="Anchor-11"/>
  <anchor x="584" y="532" name="Anchor-10"/>
  <anchor x="633" y="1884" name="Anchor-9"/>
  <anchor x="0" y="0" name="Anchor-8"/>
  <anchor x="584" y="0" name="Anchor-7"/>
  <outline>
    <contour>
      <point x="414" y="1726" type="line"/>
      <point x="606" y="1884" type="line"/>
      <point x="659" y="1884" type="line"/>
      <point x="854" y="1726" type="line"/>
      <point x="807" y="1696" type="line"/>
      <point x="633" y="1825" type="line"/>
      <point x="459" y="1696" type="line"/>
    </contour>
    <contour>
      <point x="1014" y="0" type="line"/>
      <point x="944" y="0" type="line"/>
      <point x="944" y="594" type="line" smooth="yes"/>
      <point x="944" y="803"/>
      <point x="802" y="1016"/>
      <point x="664" y="1016" type="qcurve" smooth="yes"/>
      <point x="523" y="1016"/>
      <point x="277" y="815"/>
      <point x="236" y="666" type="qcurve"/>
      <point x="236" y="0" type="line"/>
      <point x="166" y="0" type="line"/>
      <point x="166" y="1495" type="line"/>
      <point x="236" y="1495" type="line"/>
      <point x="236" y="799" type="line"/>
      <point x="302" y="928"/>
      <point x="541" y="1081"/>
      <point x="676" y="1081" type="qcurve" smooth="yes"/>
      <point x="844" y="1081"/>
      <point x="1014" y="834"/>
      <point x="1014" y="602" type="qcurve" smooth="yes"/>
    </contour>
  </outline>
</glyph>
<glyph name="Hbar" format="2">
  <advance width="1521"/>
  <unicode hex="0126"/>
  <anchor x="0" y="0" name="Anchor-11"/>
  <anchor x="762" y="727" name="Anchor-10"/>
  <anchor x="764" y="1448" name="Anchor-9"/>
  <anchor x="0" y="0" name="Anchor-8"/>
  <anchor x="762" y="0" name="Anchor-7"/>
  <outline>
    <contour>
      <point x="1417" y="1184" type="line"/>
      <point x="1417" y="1124" type="line"/>
      <point x="1315" y="1124" type="line"/>
      <point x="1315" y="0" type="line"/>
      <point x="1245" y="0" type="line"/>
      <point x="1245" y="711" type="line"/>
      <point x="279" y="711" type="line"/>
      <point x="279" y="0" type="line"/>
      <point x="207" y="0" type="line"/>
      <point x="207" y="1124" type="line"/>
      <point x="104" y="1124" type="line"/>
      <point x="104" y="1184" type="line"/>
      <point x="207" y="1184" type="line"/>
      <point x="207" y="1454" type="line"/>
      <point x="279" y="1454" type="line"/>
      <point x="279" y="1184" type="line"/>
      <point x="1245" y="1184" type="line"/>
      <point x="1245" y="1454" type="line"/>
      <point x="1315" y="1454" type="line"/>
      <point x="1315" y="1184" type="line"/>
    </contour>
    <contour>
      <point x="1245" y="776" type="line"/>
      <point x="1245" y="1124" type="line"/>
      <point x="279" y="1124" type="line"/>
      <point x="279" y="776" type="line"/>
    </contour>
  </outline>
</glyph>
<glyph name="hbar" format="2">
  <advance width="1167"/>
  <unicode hex="0127"/>
  <anchor x="0" y="0" name="Anchor-11"/>
  <anchor x="584" y="532" name="Anchor-10"/>
  <anchor x="633" y="1454" name="Anchor-9"/>
  <anchor x="0" y="0" name="Anchor-8"/>
  <anchor x="584" y="0" name="Anchor-7"/>
  <outline>
    <contour>
      <point x="676" y="1081" type="qcurve" smooth="yes"/>
      <point x="844" y="1081"/>
      <point x="1014" y="834"/>
      <point x="1014" y="602" type="qcurve" smooth="yes"/>
      <point x="1014" y="0" type="line"/>
      <point x="944" y="0" type="line"/>
      <point x="944" y="594" type="line" smooth="yes"/>
      <point x="944" y="803"/>
      <point x="802" y="1016"/>
      <point x="664" y="1016" type="qcurve" smooth="yes"/>
      <point x="523" y="1016"/>
      <point x="277" y="815"/>
      <point x="236" y="666" type="qcurve"/>
      <point x="236" y="0" type="line"/>
      <point x="166" y="0" type="line"/>
      <point x="166" y="1286" type="line"/>
      <point x="23" y="1286" type="line"/>
      <point x="23" y="1343" type="line"/>
      <point x="166" y="1343" type="line"/>
      <point x="166" y="1495" type="line"/>
      <point x="236" y="1495" type="line"/>
      <point x="236" y="1343" type="line"/>
      <point x="494" y="1343" type="line"/>
      <point x="494" y="1286" type="line"/>
      <point x="236" y="1286" type="line"/>
      <point x="236" y="799" type="line"/>
      <point x="302" y="928"/>
      <point x="541" y="1081"/>
    </contour>
  </outline>
</glyph>
<glyph name="Itilde" format="2">
  <advance width="464"/>
  <unicode hex="0128"/>
  <anchor x="0" y="0" name="Anchor-11"/>
  <anchor x="0" y="0" name="Anchor-10"/>
  <anchor x="231" y="1878" name="Anchor-9"/>
  <anchor x="268" y="0" name="Anchor-8"/>
  <anchor x="233" y="0" name="Anchor-7"/>
  <outline>
    <contour>
      <point x="92" y="1804" type="qcurve" smooth="yes"/>
      <point x="62" y="1804"/>
      <point x="17" y="1778"/>
      <point x="-3" y="1740"/>
      <point x="-12" y="1713"/>
      <point x="-12" y="1706" type="qcurve"/>
      <point x="-66" y="1706" type="line"/>
      <point x="-66" y="1714"/>
      <point x="-60" y="1744"/>
      <point x="-40" y="1791"/>
      <point x="-7" y="1831"/>
      <point x="54" y="1860"/>
      <point x="94" y="1860" type="qcurve" smooth="yes"/>
      <point x="149" y="1860"/>
      <point x="301" y="1780"/>
      <point x="352" y="1780" type="qcurve" smooth="yes"/>
      <point x="383" y="1780"/>
      <point x="430" y="1799"/>
      <point x="454" y="1825"/>
      <point x="468" y="1856"/>
      <point x="471" y="1873"/>
      <point x="471" y="1878" type="qcurve"/>
      <point x="526" y="1878" type="line"/>
      <point x="526" y="1869"/>
      <point x="520" y="1839"/>
      <point x="497" y="1793"/>
      <point x="461" y="1754"/>
      <point x="393" y="1726"/>
      <point x="350" y="1726" type="qcurve" smooth="yes"/>
      <point x="298" y="1726"/>
      <point x="204" y="1765"/>
      <point x="126" y="1804"/>
    </contour>
    <contour>
      <point x="197" y="0" type="line"/>
      <point x="197" y="1454" type="line"/>
      <point x="268" y="1454" type="line"/>
      <point x="268" y="0" type="line"/>
    </contour>
  </outline>
</glyph>
<glyph name="itilde" format="2">
  <advance width="403"/>
  <unicode hex="0129"/>
  <anchor x="0" y="0" name="Anchor-11"/>
  <anchor x="0" y="0" name="Anchor-10"/>
  <anchor x="201" y="1495" name="Anchor-9"/>
  <anchor x="0" y="0" name="Anchor-8"/>
  <anchor x="0" y="0" name="Anchor-7"/>
  <outline>
    <contour>
      <point x="61" y="1421" type="qcurve" smooth="yes"/>
      <point x="31" y="1421"/>
      <point x="-14" y="1395"/>
      <point x="-34" y="1357"/>
      <point x="-43" y="1330"/>
      <point x="-43" y="1323" type="qcurve"/>
      <point x="-96" y="1323" type="line"/>
      <point x="-96" y="1331"/>
      <point x="-91" y="1361"/>
      <point x="-70" y="1409"/>
      <point x="-38" y="1448"/>
      <point x="23" y="1477"/>
      <point x="63" y="1477" type="qcurve" smooth="yes"/>
      <point x="118" y="1477"/>
      <point x="271" y="1397"/>
      <point x="322" y="1397" type="qcurve" smooth="yes"/>
      <point x="353" y="1397"/>
      <point x="400" y="1416"/>
      <point x="423" y="1442"/>
      <point x="437" y="1473"/>
      <point x="440" y="1490"/>
      <point x="440" y="1495" type="qcurve"/>
      <point x="496" y="1495" type="line"/>
      <point x="496" y="1486"/>
      <point x="489" y="1456"/>
      <point x="466" y="1410"/>
      <point x="430" y="1371"/>
      <point x="362" y="1343"/>
      <point x="319" y="1343" type="qcurve" smooth="yes"/>
      <point x="267" y="1343"/>
      <point x="173" y="1382"/>
      <point x="95" y="1421"/>
    </contour>
    <contour>
      <point x="166" y="0" type="line"/>
      <point x="166" y="1065" type="line"/>
      <point x="236" y="1065" type="line"/>
      <point x="236" y="0" type="line"/>
    </contour>
  </outline>
</glyph>
<glyph name="Imacron" format="2">
  <advance width="464"/>
  <unicode hex="012A"/>
  <anchor x="0" y="0" name="Anchor-11"/>
  <anchor x="0" y="0" name="Anchor-10"/>
  <anchor x="231" y="1831" name="Anchor-9"/>
  <anchor x="268" y="0" name="Anchor-8"/>
  <anchor x="233" y="0" name="Anchor-7"/>
  <outline>
    <contour>
      <point x="-57" y="1774" type="line"/>
      <point x="-57" y="1831" type="line"/>
      <point x="522" y="1831" type="line"/>
      <point x="522" y="1774" type="line"/>
    </contour>
    <contour>
      <point x="197" y="0" type="line"/>
      <point x="197" y="1454" type="line"/>
      <point x="268" y="1454" type="line"/>
      <point x="268" y="0" type="line"/>
    </contour>
  </outline>
</glyph>
<glyph name="imacron" format="2">
  <advance width="403"/>
  <unicode hex="012B"/>
  <anchor x="0" y="0" name="Anchor-11"/>
  <anchor x="0" y="0" name="Anchor-10"/>
  <anchor x="201" y="1448" name="Anchor-9"/>
  <anchor x="0" y="0" name="Anchor-8"/>
  <anchor x="0" y="0" name="Anchor-7"/>
  <outline>
    <contour>
      <point x="-88" y="1391" type="line"/>
      <point x="-88" y="1448" type="line"/>
      <point x="492" y="1448" type="line"/>
      <point x="492" y="1391" type="line"/>
    </contour>
    <contour>
      <point x="166" y="0" type="line"/>
      <point x="166" y="1065" type="line"/>
      <point x="236" y="1065" type="line"/>
      <point x="236" y="0" type="line"/>
    </contour>
  </outline>
</glyph>
<glyph name="Ibreve" format="2">
  <advance width="464"/>
  <unicode hex="012C"/>
  <anchor x="0" y="0" name="Anchor-11"/>
  <anchor x="0" y="0" name="Anchor-10"/>
  <anchor x="231" y="1753" name="Anchor-9"/>
  <anchor x="268" y="0" name="Anchor-8"/>
  <anchor x="233" y="0" name="Anchor-7"/>
  <outline>
    <contour>
      <point x="346" y="1878" type="qcurve"/>
      <point x="397" y="1878" type="line"/>
      <point x="397" y="1808"/>
      <point x="297" y="1706"/>
      <point x="231" y="1706" type="qcurve" smooth="yes"/>
      <point x="163" y="1706"/>
      <point x="66" y="1808"/>
      <point x="66" y="1878" type="qcurve"/>
      <point x="119" y="1878" type="line"/>
      <point x="119" y="1830"/>
      <point x="188" y="1751"/>
      <point x="231" y="1751" type="qcurve" smooth="yes"/>
      <point x="272" y="1751"/>
      <point x="340" y="1826"/>
    </contour>
    <contour>
      <point x="197" y="0" type="line"/>
      <point x="197" y="1454" type="line"/>
      <point x="268" y="1454" type="line"/>
      <point x="268" y="0" type="line"/>
    </contour>
  </outline>
</glyph>
<glyph name="ibreve" format="2">
  <advance width="403"/>
  <unicode hex="012D"/>
  <anchor x="0" y="0" name="Anchor-11"/>
  <anchor x="0" y="0" name="Anchor-10"/>
  <anchor x="201" y="1370" name="Anchor-9"/>
  <anchor x="0" y="0" name="Anchor-8"/>
  <anchor x="0" y="0" name="Anchor-7"/>
  <outline>
    <contour>
      <point x="315" y="1495" type="qcurve"/>
      <point x="367" y="1495" type="line"/>
      <point x="367" y="1425"/>
      <point x="267" y="1323"/>
      <point x="201" y="1323" type="qcurve" smooth="yes"/>
      <point x="133" y="1323"/>
      <point x="35" y="1425"/>
      <point x="35" y="1495" type="qcurve"/>
      <point x="88" y="1495" type="line"/>
      <point x="88" y="1448"/>
      <point x="158" y="1368"/>
      <point x="201" y="1368" type="qcurve" smooth="yes"/>
      <point x="242" y="1368"/>
      <point x="309" y="1442"/>
    </contour>
    <contour>
      <point x="166" y="0" type="line"/>
      <point x="166" y="1065" type="line"/>
      <point x="236" y="1065" type="line"/>
      <point x="236" y="0" type="line"/>
    </contour>
  </outline>
</glyph>
<glyph name="Iogonek" format="2">
  <advance width="464"/>
  <unicode hex="012E"/>
  <anchor x="0" y="0" name="Anchor-11"/>
  <anchor x="0" y="0" name="Anchor-10"/>
  <anchor x="231" y="1448" name="Anchor-9"/>
  <anchor x="268" y="0" name="Anchor-8"/>
  <anchor x="233" y="0" name="Anchor-7"/>
  <outline>
    <contour>
      <point x="268" y="0" type="line"/>
      <point x="183" y="-64"/>
      <point x="111" y="-156"/>
      <point x="111" y="-199" type="qcurve" smooth="yes"/>
      <point x="111" y="-237"/>
      <point x="179" y="-280"/>
      <point x="260" y="-295" type="qcurve"/>
      <point x="233" y="-346" type="line"/>
      <point x="135" y="-332"/>
      <point x="51" y="-261"/>
      <point x="51" y="-207" type="qcurve" smooth="yes"/>
      <point x="51" y="-156"/>
      <point x="123" y="-55"/>
      <point x="197" y="4" type="qcurve"/>
      <point x="197" y="1454" type="line"/>
      <point x="268" y="1454" type="line"/>
    </contour>
  </outline>
</glyph>
<glyph name="iogonek" format="2">
  <advance width="403"/>
  <unicode hex="012F"/>
  <anchor x="0" y="0" name="Anchor-11"/>
  <anchor x="0" y="0" name="Anchor-10"/>
  <anchor x="0" y="0" name="Anchor-9"/>
  <anchor x="236" y="0" name="Anchor-8"/>
  <anchor x="201" y="0" name="Anchor-7"/>
  <outline>
    <contour>
      <point x="166" y="1495" type="line"/>
      <point x="236" y="1495" type="line"/>
      <point x="236" y="1323" type="line"/>
      <point x="166" y="1323" type="line"/>
    </contour>
    <contour>
      <point x="166" y="6" type="qcurve"/>
      <point x="166" y="1065" type="line"/>
      <point x="236" y="1065" type="line"/>
      <point x="236" y="0" type="line"/>
      <point x="151" y="-65"/>
      <point x="78" y="-156"/>
      <point x="78" y="-199" type="qcurve" smooth="yes"/>
      <point x="78" y="-237"/>
      <point x="146" y="-280"/>
      <point x="227" y="-295" type="qcurve"/>
      <point x="201" y="-346" type="line"/>
      <point x="18" y="-319"/>
      <point x="18" y="-207" type="qcurve" smooth="yes"/>
      <point x="18" y="-156"/>
      <point x="91" y="-55"/>
    </contour>
  </outline>
</glyph>
<glyph name="dotlessi" format="2">
  <advance width="403"/>
  <unicode hex="0131"/>
  <anchor x="0" y="0" name="Anchor-11"/>
  <anchor x="0" y="0" name="Anchor-10"/>
  <anchor x="201" y="1065" name="Anchor-9"/>
  <anchor x="0" y="0" name="Anchor-8"/>
  <anchor x="0" y="0" name="Anchor-7"/>
  <outline>
    <contour>
      <point x="166" y="0" type="line"/>
      <point x="166" y="1065" type="line"/>
      <point x="236" y="1065" type="line"/>
      <point x="236" y="0" type="line"/>
    </contour>
  </outline>
</glyph>
<glyph name="Jcircumflex" format="2">
  <advance width="972"/>
  <unicode hex="0134"/>
  <anchor x="0" y="0" name="Anchor-11"/>
  <anchor x="0" y="0" name="Anchor-10"/>
  <anchor x="760" y="1878" name="Anchor-9"/>
  <anchor x="0" y="0" name="Anchor-8"/>
  <anchor x="0" y="0" name="Anchor-7"/>
  <outline>
    <contour>
      <point x="541" y="1720" type="line"/>
      <point x="733" y="1878" type="line"/>
      <point x="786" y="1878" type="line"/>
      <point x="981" y="1720" type="line"/>
      <point x="934" y="1690" type="line"/>
      <point x="760" y="1819" type="line"/>
      <point x="586" y="1690" type="line"/>
    </contour>
    <contour>
      <point x="63" y="125" type="line"/>
      <point x="181" y="45"/>
      <point x="352" y="45" type="qcurve" smooth="yes"/>
      <point x="422" y="45"/>
      <point x="531" y="76"/>
      <point x="610" y="129"/>
      <point x="665" y="219"/>
      <point x="699" y="320"/>
      <point x="718" y="466"/>
      <point x="725" y="609"/>
      <point x="725" y="707" type="qcurve" smooth="yes"/>
      <point x="725" y="1454" type="line"/>
      <point x="795" y="1454" type="line"/>
      <point x="795" y="715" type="line" smooth="yes"/>
      <point x="795" y="612"/>
      <point x="787" y="458"/>
      <point x="764" y="296"/>
      <point x="725" y="182"/>
      <point x="658" y="77"/>
      <point x="565" y="14"/>
      <point x="435" y="-23"/>
      <point x="352" y="-23" type="qcurve" smooth="yes"/>
      <point x="170" y="-23"/>
      <point x="37" y="68" type="qcurve"/>
    </contour>
  </outline>
</glyph>
<glyph name="jcircumflex" format="2">
  <advance width="403"/>
  <unicode hex="0135"/>
  <anchor x="0" y="0" name="Anchor-11"/>
  <anchor x="0" y="0" name="Anchor-10"/>
  <anchor x="201" y="1495" name="Anchor-9"/>
  <anchor x="0" y="0" name="Anchor-8"/>
  <anchor x="0" y="0" name="Anchor-7"/>
  <outline>
    <contour>
      <point x="-18" y="1337" type="line"/>
      <point x="174" y="1495" type="line"/>
      <point x="227" y="1495" type="line"/>
      <point x="422" y="1337" type="line"/>
      <point x="375" y="1307" type="line"/>
      <point x="201" y="1436" type="line"/>
      <point x="27" y="1307" type="line"/>
    </contour>
    <contour>
      <point x="-262" y="-283" type="qcurve"/>
      <point x="-219" y="-238" type="line"/>
      <point x="-161" y="-289"/>
      <point x="-53" y="-289" type="qcurve" smooth="yes"/>
      <point x="30" y="-289"/>
      <point x="166" y="-159"/>
      <point x="166" y="-68" type="qcurve" smooth="yes"/>
      <point x="166" y="1065" type="line"/>
      <point x="236" y="1065" type="line"/>
      <point x="236" y="-66" type="line" smooth="yes"/>
      <point x="236" y="-187"/>
      <point x="59" y="-354"/>
      <point x="-49" y="-354" type="qcurve" smooth="yes"/>
      <point x="-188" y="-354"/>
    </contour>
  </outline>
</glyph>
<glyph name="kcedilla" format="2">
  <advance width="1052"/>
  <unicode hex="0137"/>
  <anchor x="0" y="0" name="Anchor-11"/>
  <anchor x="0" y="0" name="Anchor-10"/>
  <anchor x="0" y="0" name="Anchor-9"/>
  <anchor x="0" y="0" name="Anchor-8"/>
  <anchor x="549" y="0" name="Anchor-7"/>
  <outline>
    <contour>
      <point x="942" y="0" type="line"/>
      <point x="508" y="590" type="line"/>
      <point x="236" y="342" type="line"/>
      <point x="236" y="0" type="line"/>
      <point x="166" y="0" type="line"/>
      <point x="166" y="1495" type="line"/>
      <point x="236" y="1495" type="line"/>
      <point x="236" y="426" type="line"/>
      <point x="926" y="1061" type="line"/>
      <point x="1010" y="1061" type="line"/>
      <point x="557" y="635" type="line"/>
      <point x="1022" y="0" type="line"/>
    </contour>
    <contour>
      <point x="506" y="-360" type="line"/>
      <point x="530" y="-233" type="line"/>
      <point x="506" y="-233" type="line"/>
      <point x="506" y="-102" type="line"/>
      <point x="582" y="-102" type="line"/>
      <point x="582" y="-233" type="line"/>
      <point x="547" y="-360" type="line"/>
    </contour>
  </outline>
</glyph>
<glyph name="kgreenlandic" format="2">
  <advance width="1052"/>
  <unicode hex="0138"/>
  <outline>
    <contour>
      <point x="942" y="0" type="line"/>
      <point x="508" y="590" type="line"/>
      <point x="236" y="342" type="line"/>
      <point x="236" y="0" type="line"/>
      <point x="166" y="0" type="line"/>
      <point x="166" y="1065" type="line"/>
      <point x="236" y="1065" type="line"/>
      <point x="236" y="424" type="line"/>
      <point x="926" y="1061" type="line"/>
      <point x="1010" y="1061" type="line"/>
      <point x="557" y="635" type="line"/>
      <point x="1022" y="0" type="line"/>
    </contour>
  </outline>
</glyph>
<glyph name="Lacute" format="2">
  <advance width="1187"/>
  <unicode hex="0139"/>
  <anchor x="788" y="1077" name="Anchor-11"/>
  <anchor x="594" y="727" name="Anchor-10"/>
  <anchor x="315" y="1884" name="Anchor-9"/>
  <anchor x="0" y="0" name="Anchor-8"/>
  <anchor x="680" y="0" name="Anchor-7"/>
  <outline>
    <contour>
      <point x="254" y="1696" type="line"/>
      <point x="205" y="1722" type="line"/>
      <point x="332" y="1884" type="line"/>
      <point x="424" y="1884" type="line"/>
    </contour>
    <contour>
      <point x="197" y="0" type="line"/>
      <point x="197" y="1454" type="line"/>
      <point x="268" y="1454" type="line"/>
      <point x="268" y="66" type="line"/>
      <point x="1159" y="66" type="line"/>
      <point x="1159" y="0" type="line"/>
    </contour>
  </outline>
</glyph>
<glyph name="Lcedilla" format="2">
  <advance width="1187"/>
  <unicode hex="013B"/>
  <anchor x="788" y="1077" name="Anchor-11"/>
  <anchor x="594" y="727" name="Anchor-10"/>
  <anchor x="231" y="1454" name="Anchor-9"/>
  <anchor x="0" y="0" name="Anchor-8"/>
  <anchor x="680" y="0" name="Anchor-7"/>
  <outline>
    <contour>
      <point x="197" y="0" type="line"/>
      <point x="197" y="1454" type="line"/>
      <point x="268" y="1454" type="line"/>
      <point x="268" y="66" type="line"/>
      <point x="1159" y="66" type="line"/>
      <point x="1159" y="0" type="line"/>
    </contour>
    <contour>
      <point x="637" y="-360" type="line"/>
      <point x="662" y="-233" type="line"/>
      <point x="637" y="-233" type="line"/>
      <point x="637" y="-102" type="line"/>
      <point x="713" y="-102" type="line"/>
      <point x="713" y="-233" type="line"/>
      <point x="678" y="-360" type="line"/>
    </contour>
  </outline>
</glyph>
<glyph name="Lcaron" format="2">
  <advance width="1187"/>
  <unicode hex="013D"/>
  <anchor x="788" y="1077" name="Anchor-11"/>
  <anchor x="594" y="727" name="Anchor-10"/>
  <anchor x="231" y="1454" name="Anchor-9"/>
  <anchor x="0" y="0" name="Anchor-8"/>
  <anchor x="680" y="0" name="Anchor-7"/>
  <outline>
    <contour>
      <point x="836" y="1319" type="line"/>
      <point x="786" y="1346" type="line"/>
      <point x="913" y="1507" type="line"/>
      <point x="1006" y="1507" type="line"/>
    </contour>
    <contour>
      <point x="197" y="0" type="line"/>
      <point x="197" y="1454" type="line"/>
      <point x="268" y="1454" type="line"/>
      <point x="268" y="66" type="line"/>
      <point x="1159" y="66" type="line"/>
      <point x="1159" y="0" type="line"/>
    </contour>
  </outline>
</glyph>
<glyph name="Ldot" format="2">
  <advance width="1187"/>
  <unicode hex="013F"/>
  <anchor x="788" y="1077" name="Anchor-11"/>
  <anchor x="594" y="727" name="Anchor-10"/>
  <anchor x="231" y="1454" name="Anchor-9"/>
  <anchor x="0" y="0" name="Anchor-8"/>
  <anchor x="680" y="0" name="Anchor-7"/>
  <outline>
    <contour>
      <point x="197" y="0" type="line"/>
      <point x="197" y="1454" type="line"/>
      <point x="268" y="1454" type="line"/>
      <point x="268" y="66" type="line"/>
      <point x="1159" y="66" type="line"/>
      <point x="1159" y="0" type="line"/>
    </contour>
    <contour>
      <point x="750" y="731" type="line"/>
      <point x="750" y="918" type="line"/>
      <point x="813" y="918" type="line"/>
      <point x="813" y="731" type="line"/>
    </contour>
  </outline>
</glyph>
<glyph name="Lslash" format="2">
  <advance width="1202"/>
  <unicode hex="0141"/>
  <anchor x="803" y="1077" name="Anchor-11"/>
  <anchor x="608" y="727" name="Anchor-10"/>
  <anchor x="246" y="1454" name="Anchor-9"/>
  <anchor x="0" y="0" name="Anchor-8"/>
  <anchor x="694" y="0" name="Anchor-7"/>
  <outline>
    <contour>
      <point x="283" y="66" type="line"/>
      <point x="1174" y="66" type="line"/>
      <point x="1174" y="0" type="line"/>
      <point x="211" y="0" type="line"/>
      <point x="211" y="575" type="line"/>
      <point x="86" y="457" type="line"/>
      <point x="51" y="504" type="line"/>
      <point x="211" y="655" type="line"/>
      <point x="211" y="1454" type="line"/>
      <point x="283" y="1454" type="line"/>
      <point x="283" y="723" type="line"/>
      <point x="647" y="1067" type="line"/>
      <point x="680" y="1022" type="line"/>
      <point x="283" y="643" type="line"/>
    </contour>
  </outline>
</glyph>
<glyph name="lslash" format="2">
  <advance width="540"/>
  <unicode hex="0142"/>
  <anchor x="383" y="1065" name="Anchor-11"/>
  <anchor x="285" y="532" name="Anchor-10"/>
  <anchor x="244" y="1454" name="Anchor-9"/>
  <anchor x="0" y="0" name="Anchor-8"/>
  <anchor x="371" y="0" name="Anchor-7"/>
  <outline>
    <contour>
      <point x="522" y="74" type="qcurve"/>
      <point x="539" y="16" type="line"/>
      <point x="463" y="-10"/>
      <point x="383" y="-10" type="qcurve" smooth="yes"/>
      <point x="304" y="-10"/>
      <point x="207" y="87"/>
      <point x="207" y="168" type="qcurve" smooth="yes"/>
      <point x="207" y="745" type="line"/>
      <point x="66" y="614" type="line"/>
      <point x="29" y="657" type="line"/>
      <point x="207" y="823" type="line"/>
      <point x="207" y="1495" type="line"/>
      <point x="279" y="1495" type="line"/>
      <point x="279" y="889" type="line"/>
      <point x="465" y="1063" type="line"/>
      <point x="502" y="1020" type="line"/>
      <point x="279" y="813" type="line"/>
      <point x="279" y="182" type="line" smooth="yes"/>
      <point x="279" y="118"/>
      <point x="344" y="53"/>
      <point x="401" y="53" type="qcurve" smooth="yes"/>
      <point x="448" y="53"/>
    </contour>
  </outline>
</glyph>
<glyph name="Nacute" format="2">
  <advance width="1587"/>
  <unicode hex="0143"/>
  <anchor x="0" y="0" name="Anchor-11"/>
  <anchor x="0" y="0" name="Anchor-10"/>
  <anchor x="887" y="1878" name="Anchor-9"/>
  <anchor x="0" y="0" name="Anchor-8"/>
  <anchor x="805" y="0" name="Anchor-7"/>
  <outline>
    <contour>
      <point x="825" y="1690" type="line"/>
      <point x="776" y="1716" type="line"/>
      <point x="903" y="1878" type="line"/>
      <point x="995" y="1878" type="line"/>
    </contour>
    <contour>
      <point x="268" y="1321" type="line"/>
      <point x="268" y="0" type="line"/>
      <point x="197" y="0" type="line"/>
      <point x="197" y="1454" type="line"/>
      <point x="254" y="1454" type="line"/>
      <point x="1319" y="113" type="line"/>
      <point x="1319" y="1454" type="line"/>
      <point x="1391" y="1454" type="line"/>
      <point x="1391" y="0" type="line"/>
      <point x="1317" y="0" type="line"/>
    </contour>
  </outline>
</glyph>
<glyph name="nacute" format="2">
  <advance width="1167"/>
  <unicode hex="0144"/>
  <anchor x="0" y="0" name="Anchor-11"/>
  <anchor x="0" y="0" name="Anchor-10"/>
  <anchor x="668" y="1495" name="Anchor-9"/>
  <anchor x="0" y="0" name="Anchor-8"/>
  <anchor x="580" y="0" name="Anchor-7"/>
  <outline>
    <contour>
      <point x="606" y="1307" type="line"/>
      <point x="557" y="1333" type="line"/>
      <point x="684" y="1495" type="line"/>
      <point x="776" y="1495" type="line"/>
    </contour>
    <contour>
      <point x="1014" y="0" type="line"/>
      <point x="944" y="0" type="line"/>
      <point x="944" y="594" type="line" smooth="yes"/>
      <point x="944" y="812"/>
      <point x="819" y="1016"/>
      <point x="684" y="1016" type="qcurve" smooth="yes"/>
      <point x="538" y="1016"/>
      <point x="278" y="815"/>
      <point x="236" y="666" type="qcurve"/>
      <point x="236" y="0" type="line"/>
      <point x="166" y="0" type="line"/>
      <point x="166" y="1065" type="line"/>
      <point x="233" y="1065" type="line"/>
      <point x="233" y="799" type="line"/>
      <point x="298" y="925"/>
      <point x="554" y="1081"/>
      <point x="696" y="1081" type="qcurve" smooth="yes"/>
      <point x="861" y="1081"/>
      <point x="1014" y="843"/>
      <point x="1014" y="602" type="qcurve" smooth="yes"/>
    </contour>
  </outline>
</glyph>
<glyph name="Ncedilla" format="2">
  <advance width="1587"/>
  <unicode hex="0145"/>
  <anchor x="0" y="0" name="Anchor-11"/>
  <anchor x="0" y="0" name="Anchor-10"/>
  <anchor x="803" y="1448" name="Anchor-9"/>
  <anchor x="0" y="0" name="Anchor-8"/>
  <anchor x="805" y="0" name="Anchor-7"/>
  <outline>
    <contour>
      <point x="268" y="1321" type="line"/>
      <point x="268" y="0" type="line"/>
      <point x="197" y="0" type="line"/>
      <point x="197" y="1454" type="line"/>
      <point x="254" y="1454" type="line"/>
      <point x="1319" y="113" type="line"/>
      <point x="1319" y="1454" type="line"/>
      <point x="1391" y="1454" type="line"/>
      <point x="1391" y="0" type="line"/>
      <point x="1317" y="0" type="line"/>
    </contour>
    <contour>
      <point x="762" y="-360" type="line"/>
      <point x="786" y="-233" type="line"/>
      <point x="762" y="-233" type="line"/>
      <point x="762" y="-102" type="line"/>
      <point x="838" y="-102" type="line"/>
      <point x="838" y="-233" type="line"/>
      <point x="803" y="-360" type="line"/>
    </contour>
  </outline>
</glyph>
<glyph name="Ncaron" format="2">
  <advance width="1587"/>
  <unicode hex="0147"/>
  <anchor x="0" y="0" name="Anchor-11"/>
  <anchor x="0" y="0" name="Anchor-10"/>
  <anchor x="803" y="1878" name="Anchor-9"/>
  <anchor x="0" y="0" name="Anchor-8"/>
  <anchor x="805" y="0" name="Anchor-7"/>
  <outline>
    <contour>
      <point x="629" y="1878" type="line"/>
      <point x="803" y="1749" type="line"/>
      <point x="977" y="1878" type="line"/>
      <point x="1024" y="1849" type="line"/>
      <point x="829" y="1690" type="line"/>
      <point x="776" y="1690" type="line"/>
      <point x="584" y="1849" type="line"/>
    </contour>
    <contour>
      <point x="268" y="1321" type="line"/>
      <point x="268" y="0" type="line"/>
      <point x="197" y="0" type="line"/>
      <point x="197" y="1454" type="line"/>
      <point x="254" y="1454" type="line"/>
      <point x="1319" y="113" type="line"/>
      <point x="1319" y="1454" type="line"/>
      <point x="1391" y="1454" type="line"/>
      <point x="1391" y="0" type="line"/>
      <point x="1317" y="0" type="line"/>
    </contour>
  </outline>
</glyph>
<glyph name="Eng" format="2">
  <advance width="1583"/>
  <unicode hex="014A"/>
  <outline>
    <contour>
      <point x="268" y="1319" type="line"/>
      <point x="268" y="0" type="line"/>
      <point x="197" y="0" type="line"/>
      <point x="197" y="1454" type="line"/>
      <point x="250" y="1454" type="line"/>
      <point x="1317" y="115" type="line"/>
      <point x="1317" y="1452" type="line"/>
      <point x="1386" y="1452" type="line"/>
      <point x="1386" y="-68" type="line" smooth="yes"/>
      <point x="1386" y="-189"/>
      <point x="1209" y="-354"/>
      <point x="1102" y="-354" type="qcurve" smooth="yes"/>
      <point x="963" y="-354"/>
      <point x="889" y="-283" type="qcurve"/>
      <point x="932" y="-238" type="line"/>
      <point x="990" y="-289"/>
      <point x="1096" y="-289" type="qcurve" smooth="yes"/>
      <point x="1179" y="-289"/>
      <point x="1317" y="-159"/>
      <point x="1317" y="-68" type="qcurve" smooth="yes"/>
      <point x="1317" y="0" type="line"/>
    </contour>
  </outline>
</glyph>
<glyph name="eng" format="2">
  <advance width="1167"/>
  <unicode hex="014B"/>
  <outline>
    <contour>
      <point x="516" y="-283" type="qcurve"/>
      <point x="559" y="-238" type="line"/>
      <point x="617" y="-289"/>
      <point x="723" y="-289" type="qcurve" smooth="yes"/>
      <point x="806" y="-289"/>
      <point x="944" y="-159"/>
      <point x="944" y="-68" type="qcurve" smooth="yes"/>
      <point x="944" y="594" type="line" smooth="yes"/>
      <point x="944" y="812"/>
      <point x="819" y="1016"/>
      <point x="684" y="1016" type="qcurve" smooth="yes"/>
      <point x="538" y="1016"/>
      <point x="278" y="815"/>
      <point x="236" y="666" type="qcurve"/>
      <point x="236" y="0" type="line"/>
      <point x="166" y="0" type="line"/>
      <point x="166" y="1065" type="line"/>
      <point x="233" y="1065" type="line"/>
      <point x="233" y="799" type="line"/>
      <point x="298" y="925"/>
      <point x="554" y="1081"/>
      <point x="696" y="1081" type="qcurve" smooth="yes"/>
      <point x="861" y="1081"/>
      <point x="1014" y="843"/>
      <point x="1014" y="602" type="qcurve" smooth="yes"/>
      <point x="1014" y="-66" type="line" smooth="yes"/>
      <point x="1014" y="-187"/>
      <point x="836" y="-354"/>
      <point x="729" y="-354" type="qcurve" smooth="yes"/>
      <point x="590" y="-354"/>
    </contour>
  </outline>
</glyph>
<glyph name="odblacute" format="2">
  <advance width="1206"/>
  <unicode hex="0151"/>
  <anchor x="872" y="975" name="Anchor-11"/>
  <anchor x="602" y="532" name="Anchor-10"/>
  <anchor x="602" y="1065" name="Anchor-9"/>
  <anchor x="723" y="0" name="Anchor-8"/>
  <anchor x="600" y="0" name="Anchor-7"/>
  <outline>
    <contour>
      <point x="471" y="1309" type="line"/>
      <point x="426" y="1335" type="line"/>
      <point x="553" y="1497" type="line"/>
      <point x="641" y="1497" type="line"/>
    </contour>
    <contour>
      <point x="692" y="1309" type="line"/>
      <point x="645" y="1335" type="line"/>
      <point x="772" y="1497" type="line"/>
      <point x="860" y="1497" type="line"/>
    </contour>
    <contour>
      <point x="90" y="675"/>
      <point x="227" y="930"/>
      <point x="463" y="1081"/>
      <point x="602" y="1081" type="qcurve" smooth="yes"/>
      <point x="742" y="1081"/>
      <point x="979" y="930"/>
      <point x="1116" y="675"/>
      <point x="1116" y="381"/>
      <point x="981" y="129"/>
      <point x="743" y="-20"/>
      <point x="461" y="-20"/>
      <point x="224" y="129"/>
      <point x="90" y="381"/>
    </contour>
    <contour>
      <point x="600" y="45" type="qcurve" smooth="yes"/>
      <point x="690" y="45"/>
      <point x="854" y="123"/>
      <point x="973" y="254"/>
      <point x="1044" y="433"/>
      <point x="1044" y="530" type="qcurve" smooth="yes"/>
      <point x="1044" y="660"/>
      <point x="925" y="884"/>
      <point x="721" y="1016"/>
      <point x="602" y="1016" type="qcurve" smooth="yes"/>
      <point x="484" y="1016"/>
      <point x="280" y="883"/>
      <point x="160" y="657"/>
      <point x="160" y="526" type="qcurve" smooth="yes"/>
      <point x="160" y="328"/>
      <point x="419" y="45"/>
    </contour>
  </outline>
</glyph>
<glyph name="OE" format="2">
  <advance width="2439"/>
  <unicode hex="0152"/>
  <outline>
    <contour>
      <point x="2339" y="66" type="line"/>
      <point x="2339" y="0" type="line"/>
      <point x="1382" y="0" type="line"/>
      <point x="1382" y="446" type="line"/>
      <point x="1309" y="247"/>
      <point x="981" y="-10"/>
      <point x="778" y="-10" type="qcurve" smooth="yes"/>
      <point x="630" y="-10"/>
      <point x="371" y="116"/>
      <point x="195" y="322"/>
      <point x="94" y="587"/>
      <point x="94" y="727" type="qcurve" smooth="yes"/>
      <point x="94" y="919"/>
      <point x="271" y="1257"/>
      <point x="587" y="1464"/>
      <point x="774" y="1464" type="qcurve" smooth="yes"/>
      <point x="985" y="1464"/>
      <point x="1311" y="1204"/>
      <point x="1382" y="1006" type="qcurve"/>
      <point x="1382" y="1454" type="line"/>
      <point x="2320" y="1454" type="line"/>
      <point x="2320" y="1389" type="line"/>
      <point x="1452" y="1389" type="line"/>
      <point x="1452" y="776" type="line"/>
      <point x="2210" y="776" type="line"/>
      <point x="2210" y="711" type="line"/>
      <point x="1452" y="711" type="line"/>
      <point x="1452" y="66" type="line"/>
    </contour>
    <contour>
      <point x="1380" y="729" type="qcurve" smooth="yes"/>
      <point x="1380" y="857"/>
      <point x="1287" y="1101"/>
      <point x="1128" y="1285"/>
      <point x="900" y="1397"/>
      <point x="774" y="1397" type="qcurve" smooth="yes"/>
      <point x="642" y="1397"/>
      <point x="410" y="1281"/>
      <point x="255" y="1092"/>
      <point x="166" y="852"/>
      <point x="166" y="727" type="qcurve" smooth="yes"/>
      <point x="166" y="597"/>
      <point x="258" y="354"/>
      <point x="416" y="169"/>
      <point x="645" y="57"/>
      <point x="774" y="57" type="qcurve" smooth="yes"/>
      <point x="906" y="57"/>
      <point x="1137" y="173"/>
      <point x="1292" y="363"/>
      <point x="1380" y="604"/>
    </contour>
  </outline>
</glyph>
<glyph name="oe" format="2">
  <advance width="2140"/>
  <unicode hex="0153"/>
  <outline>
    <contour>
      <point x="90" y="526" type="qcurve" smooth="yes"/>
      <point x="90" y="639"/>
      <point x="171" y="845"/>
      <point x="309" y="993"/>
      <point x="500" y="1081"/>
      <point x="606" y="1081" type="qcurve" smooth="yes"/>
      <point x="770" y="1081"/>
      <point x="1030" y="872"/>
      <point x="1077" y="700" type="qcurve"/>
      <point x="1123" y="877"/>
      <point x="1381" y="1081"/>
      <point x="1556" y="1081" type="qcurve" smooth="yes"/>
      <point x="1771" y="1081"/>
      <point x="2049" y="784"/>
      <point x="2071" y="530" type="qcurve" smooth="yes"/>
      <point x="2071" y="526"/>
      <point x="2073" y="505"/>
      <point x="2073" y="500" type="qcurve"/>
      <point x="1116" y="500" type="line"/>
      <point x="1131" y="307"/>
      <point x="1403" y="39"/>
      <point x="1585" y="39" type="qcurve" smooth="yes"/>
      <point x="1708" y="39"/>
      <point x="1914" y="159"/>
      <point x="1952" y="254" type="qcurve"/>
      <point x="2013" y="238" type="line"/>
      <point x="1966" y="125"/>
      <point x="1721" y="-20"/>
      <point x="1581" y="-20" type="qcurve" smooth="yes"/>
      <point x="1414" y="-20"/>
      <point x="1135" y="192"/>
      <point x="1081" y="360" type="qcurve"/>
      <point x="1025" y="186"/>
      <point x="764" y="-20"/>
      <point x="598" y="-20" type="qcurve" smooth="yes"/>
      <point x="459" y="-20"/>
      <point x="225" y="126"/>
      <point x="90" y="377"/>
    </contour>
    <contour>
      <point x="2003" y="557" type="line"/>
      <point x="1990" y="759"/>
      <point x="1736" y="1020"/>
      <point x="1376" y="1020"/>
      <point x="1127" y="757"/>
      <point x="1116" y="557" type="qcurve"/>
    </contour>
    <contour>
      <point x="1044" y="528" type="qcurve" smooth="yes"/>
      <point x="1044" y="628"/>
      <point x="975" y="808"/>
      <point x="857" y="939"/>
      <point x="694" y="1016"/>
      <point x="514" y="1016"/>
      <point x="350" y="938"/>
      <point x="231" y="806"/>
      <point x="160" y="623"/>
      <point x="160" y="524" type="qcurve" smooth="yes"/>
      <point x="160" y="323"/>
      <point x="417" y="45"/>
      <point x="600" y="45" type="qcurve" smooth="yes"/>
      <point x="722" y="45"/>
      <point x="926" y="174"/>
      <point x="1044" y="396"/>
    </contour>
  </outline>
</glyph>
<glyph name="Rcaron" format="2">
  <advance width="1320"/>
  <unicode hex="0158"/>
  <anchor x="0" y="0" name="Anchor-11"/>
  <anchor x="0" y="0" name="Anchor-10"/>
  <anchor x="610" y="1884" name="Anchor-9"/>
  <anchor x="0" y="0" name="Anchor-8"/>
  <anchor x="653" y="0" name="Anchor-7"/>
  <outline>
    <contour>
      <point x="436" y="1884" type="line"/>
      <point x="610" y="1755" type="line"/>
      <point x="784" y="1884" type="line"/>
      <point x="831" y="1855" type="line"/>
      <point x="637" y="1696" type="line"/>
      <point x="584" y="1696" type="line"/>
      <point x="391" y="1855" type="line"/>
    </contour>
    <contour>
      <point x="197" y="0" type="line"/>
      <point x="197" y="1454" type="line"/>
      <point x="795" y="1454" type="line" smooth="yes"/>
      <point x="883" y="1454"/>
      <point x="1040" y="1377"/>
      <point x="1147" y="1252"/>
      <point x="1210" y="1092"/>
      <point x="1210" y="1010" type="qcurve" smooth="yes"/>
      <point x="1210" y="841"/>
      <point x="1010" y="586"/>
      <point x="854" y="569" type="qcurve"/>
      <point x="1219" y="0" type="line"/>
      <point x="1137" y="0" type="line"/>
      <point x="776" y="561" type="line"/>
      <point x="268" y="561" type="line"/>
      <point x="268" y="0" type="line"/>
    </contour>
    <contour>
      <point x="268" y="627" type="line"/>
      <point x="807" y="627" type="line" smooth="yes"/>
      <point x="906" y="627"/>
      <point x="1061" y="739"/>
      <point x="1141" y="912"/>
      <point x="1141" y="1108"/>
      <point x="1049" y="1282"/>
      <point x="887" y="1389"/>
      <point x="793" y="1389" type="qcurve" smooth="yes"/>
      <point x="268" y="1389" type="line"/>
    </contour>
  </outline>
</glyph>
<glyph name="Sacute" format="2">
  <advance width="1234"/>
  <unicode hex="015A"/>
  <anchor x="0" y="0" name="Anchor-11"/>
  <anchor x="0" y="0" name="Anchor-10"/>
  <anchor x="725" y="1919" name="Anchor-9"/>
  <anchor x="0" y="0" name="Anchor-8"/>
  <anchor x="639" y="0" name="Anchor-7"/>
  <outline>
    <contour>
      <point x="664" y="1731" type="line"/>
      <point x="614" y="1757" type="line"/>
      <point x="741" y="1919" type="line"/>
      <point x="834" y="1919" type="line"/>
    </contour>
    <contour>
      <point x="1040" y="1239" type="line"/>
      <point x="962" y="1325"/>
      <point x="771" y="1399"/>
      <point x="639" y="1399" type="qcurve" smooth="yes"/>
      <point x="415" y="1399"/>
      <point x="199" y="1229"/>
      <point x="199" y="1075" type="qcurve" smooth="yes"/>
      <point x="199" y="1015"/>
      <point x="233" y="928"/>
      <point x="295" y="865"/>
      <point x="410" y="816"/>
      <point x="539" y="781"/>
      <point x="641" y="760" type="qcurve" smooth="yes"/>
      <point x="729" y="742"/>
      <point x="853" y="709"/>
      <point x="980" y="662"/>
      <point x="1063" y="605"/>
      <point x="1130" y="529"/>
      <point x="1161" y="428"/>
      <point x="1161" y="365" type="qcurve" smooth="yes"/>
      <point x="1161" y="184"/>
      <point x="886" y="-10"/>
      <point x="647" y="-10" type="qcurve" smooth="yes"/>
      <point x="309" y="-10"/>
      <point x="76" y="211" type="qcurve"/>
      <point x="119" y="264" type="line"/>
      <point x="323" y="51"/>
      <point x="649" y="51" type="qcurve" smooth="yes"/>
      <point x="857" y="51"/>
      <point x="1090" y="205"/>
      <point x="1090" y="354" type="qcurve" smooth="yes"/>
      <point x="1090" y="431"/>
      <point x="1036" y="539"/>
      <point x="910" y="617"/>
      <point x="746" y="669"/>
      <point x="616" y="696" type="qcurve" smooth="yes"/>
      <point x="543" y="711"/>
      <point x="436" y="737"/>
      <point x="328" y="772"/>
      <point x="254" y="812"/>
      <point x="188" y="866"/>
      <point x="149" y="930"/>
      <point x="127" y="1014"/>
      <point x="127" y="1065" type="qcurve" smooth="yes"/>
      <point x="127" y="1255"/>
      <point x="403" y="1464"/>
      <point x="637" y="1464" type="qcurve" smooth="yes"/>
      <point x="777" y="1464"/>
      <point x="992" y="1381"/>
      <point x="1079" y="1292" type="qcurve"/>
    </contour>
  </outline>
</glyph>
<glyph name="Tcedilla" format="2">
  <advance width="1234"/>
  <unicode hex="0162"/>
  <anchor x="0" y="0" name="Anchor-11"/>
  <anchor x="0" y="0" name="Anchor-10"/>
  <anchor x="618" y="1448" name="Anchor-9"/>
  <anchor x="0" y="0" name="Anchor-8"/>
  <anchor x="618" y="0" name="Anchor-7"/>
  <outline>
    <contour>
      <point x="1198" y="1389" type="line"/>
      <point x="653" y="1389" type="line"/>
      <point x="653" y="12" type="line"/>
      <point x="726" y="-31"/>
      <point x="801" y="-124"/>
      <point x="801" y="-186" type="qcurve" smooth="yes"/>
      <point x="801" y="-265"/>
      <point x="691" y="-346"/>
      <point x="598" y="-346" type="qcurve" smooth="yes"/>
      <point x="477" y="-346"/>
      <point x="371" y="-293" type="qcurve"/>
      <point x="397" y="-244" type="line"/>
      <point x="503" y="-293"/>
      <point x="586" y="-293" type="qcurve" smooth="yes"/>
      <point x="743" y="-293"/>
      <point x="743" y="-180" type="qcurve" smooth="yes"/>
      <point x="743" y="-125"/>
      <point x="669" y="-44"/>
      <point x="590" y="0" type="qcurve"/>
      <point x="582" y="0" type="line"/>
      <point x="582" y="1389" type="line"/>
      <point x="37" y="1389" type="line"/>
      <point x="37" y="1454" type="line"/>
      <point x="1198" y="1454" type="line"/>
    </contour>
  </outline>
</glyph>
<glyph name="tcedilla" format="2">
  <advance width="628"/>
  <unicode hex="0163"/>
  <anchor x="434" y="1065" name="Anchor-11"/>
  <anchor x="289" y="612" name="Anchor-10"/>
  <anchor x="246" y="1454" name="Anchor-9"/>
  <anchor x="0" y="0" name="Anchor-8"/>
  <anchor x="399" y="0" name="Anchor-7"/>
  <outline>
    <contour>
      <point x="463" y="-4" type="qcurve"/>
      <point x="522" y="-43"/>
      <point x="582" y="-129"/>
      <point x="582" y="-186" type="qcurve" smooth="yes"/>
      <point x="582" y="-265"/>
      <point x="472" y="-346"/>
      <point x="379" y="-346" type="qcurve" smooth="yes"/>
      <point x="258" y="-346"/>
      <point x="152" y="-293" type="qcurve"/>
      <point x="178" y="-244" type="line"/>
      <point x="284" y="-293"/>
      <point x="367" y="-293" type="qcurve" smooth="yes"/>
      <point x="524" y="-293"/>
      <point x="524" y="-180" type="qcurve" smooth="yes"/>
      <point x="524" y="-128"/>
      <point x="459" y="-50"/>
      <point x="389" y="-10" type="qcurve"/>
      <point x="310" y="-5"/>
      <point x="205" y="89"/>
      <point x="205" y="166" type="qcurve" smooth="yes"/>
      <point x="205" y="1004" type="line"/>
      <point x="53" y="1004" type="line"/>
      <point x="53" y="1065" type="line"/>
      <point x="205" y="1065" type="line"/>
      <point x="205" y="1432" type="line"/>
      <point x="274" y="1432" type="line"/>
      <point x="274" y="1065" type="line"/>
      <point x="526" y="1065" type="line"/>
      <point x="526" y="1004" type="line"/>
      <point x="274" y="1004" type="line"/>
      <point x="274" y="176" type="line"/>
      <point x="278" y="119"/>
      <point x="358" y="55"/>
      <point x="414" y="55" type="qcurve" smooth="yes"/>
      <point x="454" y="55"/>
      <point x="535" y="79"/>
      <point x="577" y="101"/>
      <point x="582" y="106" type="qcurve"/>
      <point x="608" y="49" type="line"/>
      <point x="607" y="49"/>
      <point x="593" y="40"/>
      <point x="577" y="32"/>
      <point x="549" y="19"/>
      <point x="520" y="9"/>
      <point x="482" y="-1"/>
    </contour>
  </outline>
</glyph>
